%FSLAX45Y45*%
G04 Gerber Fmt 4.5, Leading zero omitted, Abs format (unit mm)*
G04 Created by KiCad (PCBNEW (6.0.4-0)) date 2022-04-04 21:56:59*
%MOMM*%
%LPD*%
G01*
G04 APERTURE LIST*
%TA.AperFunction,Profile*%
%ADD10C,0.100000*%
%TD*%
%ADD11C,0.200000*%
%ADD12C,0.100000*%
%ADD13C,0.150000*%
G04 APERTURE END LIST*
D10*
X4443400Y-13335000D02*
X4445000Y-10541000D01*
X4697400Y-10287005D02*
G75*
G03*
X4445000Y-10541000I1600J-253995D01*
G01*
X10417200Y-10287000D02*
X4697400Y-10287000D01*
X4443400Y-13335000D02*
G75*
G03*
X4697400Y-13589000I254000J0D01*
G01*
X10671200Y-10541000D02*
G75*
G03*
X10417200Y-10287000I-254000J0D01*
G01*
X10417200Y-13589000D02*
G75*
G03*
X10668000Y-13335000I-3220J254000D01*
G01*
X10417200Y-13589000D02*
X4697400Y-13589000D01*
X10668000Y-13335000D02*
X10671200Y-10541000D01*
D11*
D12*
X5665000Y-10491000D02*
X5765000Y-10591000D01*
X5765000Y-10491000D02*
X5665000Y-10591000D01*
X5665500Y-13285000D02*
X5765500Y-13385000D01*
X5765500Y-13285000D02*
X5665500Y-13385000D01*
X5919000Y-10491000D02*
X6019000Y-10591000D01*
X6019000Y-10491000D02*
X5919000Y-10591000D01*
X5919500Y-13285000D02*
X6019500Y-13385000D01*
X6019500Y-13285000D02*
X5919500Y-13385000D01*
X6173000Y-10491000D02*
X6273000Y-10591000D01*
X6273000Y-10491000D02*
X6173000Y-10591000D01*
X6173500Y-13285000D02*
X6273500Y-13385000D01*
X6273500Y-13285000D02*
X6173500Y-13385000D01*
X6427000Y-10491000D02*
X6527000Y-10591000D01*
X6527000Y-10491000D02*
X6427000Y-10591000D01*
X6427500Y-13285000D02*
X6527500Y-13385000D01*
X6527500Y-13285000D02*
X6427500Y-13385000D01*
X6681000Y-10491000D02*
X6781000Y-10591000D01*
X6781000Y-10491000D02*
X6681000Y-10591000D01*
X6681500Y-13285000D02*
X6781500Y-13385000D01*
X6781500Y-13285000D02*
X6681500Y-13385000D01*
X6935000Y-10491000D02*
X7035000Y-10591000D01*
X7035000Y-10491000D02*
X6935000Y-10591000D01*
X6935500Y-13285000D02*
X7035500Y-13385000D01*
X7035500Y-13285000D02*
X6935500Y-13385000D01*
X7189000Y-10491000D02*
X7289000Y-10591000D01*
X7289000Y-10491000D02*
X7189000Y-10591000D01*
X7189500Y-13285000D02*
X7289500Y-13385000D01*
X7289500Y-13285000D02*
X7189500Y-13385000D01*
X7443000Y-10491000D02*
X7543000Y-10591000D01*
X7543000Y-10491000D02*
X7443000Y-10591000D01*
X7443500Y-13285000D02*
X7543500Y-13385000D01*
X7543500Y-13285000D02*
X7443500Y-13385000D01*
X7697000Y-10491000D02*
X7797000Y-10591000D01*
X7797000Y-10491000D02*
X7697000Y-10591000D01*
X7697500Y-13285000D02*
X7797500Y-13385000D01*
X7797500Y-13285000D02*
X7697500Y-13385000D01*
X7951000Y-10491000D02*
X8051000Y-10591000D01*
X8051000Y-10491000D02*
X7951000Y-10591000D01*
X7951500Y-13285000D02*
X8051500Y-13385000D01*
X8051500Y-13285000D02*
X7951500Y-13385000D01*
X8205000Y-10491000D02*
X8305000Y-10591000D01*
X8305000Y-10491000D02*
X8205000Y-10591000D01*
X8205500Y-13285000D02*
X8305500Y-13385000D01*
X8305500Y-13285000D02*
X8205500Y-13385000D01*
X8459000Y-10491000D02*
X8559000Y-10591000D01*
X8559000Y-10491000D02*
X8459000Y-10591000D01*
X8459500Y-13285000D02*
X8559500Y-13385000D01*
X8559500Y-13285000D02*
X8459500Y-13385000D01*
X8713000Y-10491000D02*
X8813000Y-10591000D01*
X8813000Y-10491000D02*
X8713000Y-10591000D01*
X8713500Y-13285000D02*
X8813500Y-13385000D01*
X8813500Y-13285000D02*
X8713500Y-13385000D01*
X8967000Y-10491000D02*
X9067000Y-10591000D01*
X9067000Y-10491000D02*
X8967000Y-10591000D01*
X8967500Y-13285000D02*
X9067500Y-13385000D01*
X9067500Y-13285000D02*
X8967500Y-13385000D01*
X9221000Y-10491000D02*
X9321000Y-10591000D01*
X9321000Y-10491000D02*
X9221000Y-10591000D01*
X9221500Y-13285000D02*
X9321500Y-13385000D01*
X9321500Y-13285000D02*
X9221500Y-13385000D01*
D13*
X5256600Y-11678600D02*
G75*
G03*
X5256600Y-11678600I-75000J0D01*
G01*
X5891600Y-11424600D02*
G75*
G03*
X5891600Y-11424600I-75000J0D01*
G01*
X7237800Y-11678600D02*
G75*
G03*
X7237800Y-11678600I-75000J0D01*
G01*
X7872800Y-11424600D02*
G75*
G03*
X7872800Y-11424600I-75000J0D01*
G01*
X9219000Y-11678600D02*
G75*
G03*
X9219000Y-11678600I-75000J0D01*
G01*
X9854000Y-11424600D02*
G75*
G03*
X9854000Y-11424600I-75000J0D01*
G01*
D11*
X4696019Y-13904476D02*
X4696019Y-13704476D01*
X4743638Y-13704476D01*
X4772210Y-13714000D01*
X4791257Y-13733048D01*
X4800781Y-13752095D01*
X4810305Y-13790190D01*
X4810305Y-13818762D01*
X4800781Y-13856857D01*
X4791257Y-13875905D01*
X4772210Y-13894952D01*
X4743638Y-13904476D01*
X4696019Y-13904476D01*
X4896019Y-13904476D02*
X4896019Y-13771143D01*
X4896019Y-13809238D02*
X4905543Y-13790190D01*
X4915067Y-13780667D01*
X4934114Y-13771143D01*
X4953162Y-13771143D01*
X5019829Y-13904476D02*
X5019829Y-13771143D01*
X5019829Y-13704476D02*
X5010305Y-13714000D01*
X5019829Y-13723524D01*
X5029352Y-13714000D01*
X5019829Y-13704476D01*
X5019829Y-13723524D01*
X5143638Y-13904476D02*
X5124590Y-13894952D01*
X5115067Y-13875905D01*
X5115067Y-13704476D01*
X5248400Y-13904476D02*
X5229352Y-13894952D01*
X5219829Y-13875905D01*
X5219829Y-13704476D01*
X5476971Y-13904476D02*
X5476971Y-13704476D01*
X5543638Y-13847333D01*
X5610305Y-13704476D01*
X5610305Y-13904476D01*
X5791257Y-13904476D02*
X5791257Y-13799714D01*
X5781733Y-13780667D01*
X5762686Y-13771143D01*
X5724590Y-13771143D01*
X5705543Y-13780667D01*
X5791257Y-13894952D02*
X5772209Y-13904476D01*
X5724590Y-13904476D01*
X5705543Y-13894952D01*
X5696019Y-13875905D01*
X5696019Y-13856857D01*
X5705543Y-13837809D01*
X5724590Y-13828286D01*
X5772209Y-13828286D01*
X5791257Y-13818762D01*
X5886495Y-13771143D02*
X5886495Y-13971143D01*
X5886495Y-13780667D02*
X5905543Y-13771143D01*
X5943638Y-13771143D01*
X5962686Y-13780667D01*
X5972209Y-13790190D01*
X5981733Y-13809238D01*
X5981733Y-13866381D01*
X5972209Y-13885428D01*
X5962686Y-13894952D01*
X5943638Y-13904476D01*
X5905543Y-13904476D01*
X5886495Y-13894952D01*
X6067448Y-13885428D02*
X6076971Y-13894952D01*
X6067448Y-13904476D01*
X6057924Y-13894952D01*
X6067448Y-13885428D01*
X6067448Y-13904476D01*
X6067448Y-13780667D02*
X6076971Y-13790190D01*
X6067448Y-13799714D01*
X6057924Y-13790190D01*
X6067448Y-13780667D01*
X6067448Y-13799714D01*
D12*
X4338400Y-14184000D02*
X4438400Y-14284000D01*
X4438400Y-14184000D02*
X4338400Y-14284000D01*
D11*
X4800781Y-14324476D02*
X4686495Y-14324476D01*
X4743638Y-14324476D02*
X4743638Y-14124476D01*
X4724590Y-14153048D01*
X4705543Y-14172095D01*
X4686495Y-14181619D01*
X4886495Y-14305428D02*
X4896019Y-14314952D01*
X4886495Y-14324476D01*
X4876971Y-14314952D01*
X4886495Y-14305428D01*
X4886495Y-14324476D01*
X5019829Y-14124476D02*
X5038876Y-14124476D01*
X5057924Y-14134000D01*
X5067448Y-14143524D01*
X5076971Y-14162571D01*
X5086495Y-14200667D01*
X5086495Y-14248286D01*
X5076971Y-14286381D01*
X5067448Y-14305428D01*
X5057924Y-14314952D01*
X5038876Y-14324476D01*
X5019829Y-14324476D01*
X5000781Y-14314952D01*
X4991257Y-14305428D01*
X4981733Y-14286381D01*
X4972210Y-14248286D01*
X4972210Y-14200667D01*
X4981733Y-14162571D01*
X4991257Y-14143524D01*
X5000781Y-14134000D01*
X5019829Y-14124476D01*
X5210305Y-14124476D02*
X5229352Y-14124476D01*
X5248400Y-14134000D01*
X5257924Y-14143524D01*
X5267448Y-14162571D01*
X5276971Y-14200667D01*
X5276971Y-14248286D01*
X5267448Y-14286381D01*
X5257924Y-14305428D01*
X5248400Y-14314952D01*
X5229352Y-14324476D01*
X5210305Y-14324476D01*
X5191257Y-14314952D01*
X5181733Y-14305428D01*
X5172210Y-14286381D01*
X5162686Y-14248286D01*
X5162686Y-14200667D01*
X5172210Y-14162571D01*
X5181733Y-14143524D01*
X5191257Y-14134000D01*
X5210305Y-14124476D01*
X5400781Y-14124476D02*
X5419829Y-14124476D01*
X5438876Y-14134000D01*
X5448400Y-14143524D01*
X5457924Y-14162571D01*
X5467448Y-14200667D01*
X5467448Y-14248286D01*
X5457924Y-14286381D01*
X5448400Y-14305428D01*
X5438876Y-14314952D01*
X5419829Y-14324476D01*
X5400781Y-14324476D01*
X5381733Y-14314952D01*
X5372210Y-14305428D01*
X5362686Y-14286381D01*
X5353162Y-14248286D01*
X5353162Y-14200667D01*
X5362686Y-14162571D01*
X5372210Y-14143524D01*
X5381733Y-14134000D01*
X5400781Y-14124476D01*
X5553162Y-14324476D02*
X5553162Y-14191143D01*
X5553162Y-14210190D02*
X5562686Y-14200667D01*
X5581733Y-14191143D01*
X5610305Y-14191143D01*
X5629352Y-14200667D01*
X5638876Y-14219714D01*
X5638876Y-14324476D01*
X5638876Y-14219714D02*
X5648400Y-14200667D01*
X5667448Y-14191143D01*
X5696019Y-14191143D01*
X5715067Y-14200667D01*
X5724590Y-14219714D01*
X5724590Y-14324476D01*
X5819828Y-14324476D02*
X5819828Y-14191143D01*
X5819828Y-14210190D02*
X5829352Y-14200667D01*
X5848400Y-14191143D01*
X5876971Y-14191143D01*
X5896019Y-14200667D01*
X5905543Y-14219714D01*
X5905543Y-14324476D01*
X5905543Y-14219714D02*
X5915067Y-14200667D01*
X5934114Y-14191143D01*
X5962686Y-14191143D01*
X5981733Y-14200667D01*
X5991257Y-14219714D01*
X5991257Y-14324476D01*
X6381733Y-14114952D02*
X6210305Y-14372095D01*
X6638876Y-14124476D02*
X6657924Y-14124476D01*
X6676971Y-14134000D01*
X6686495Y-14143524D01*
X6696019Y-14162571D01*
X6705543Y-14200667D01*
X6705543Y-14248286D01*
X6696019Y-14286381D01*
X6686495Y-14305428D01*
X6676971Y-14314952D01*
X6657924Y-14324476D01*
X6638876Y-14324476D01*
X6619828Y-14314952D01*
X6610305Y-14305428D01*
X6600781Y-14286381D01*
X6591257Y-14248286D01*
X6591257Y-14200667D01*
X6600781Y-14162571D01*
X6610305Y-14143524D01*
X6619828Y-14134000D01*
X6638876Y-14124476D01*
X6791257Y-14305428D02*
X6800781Y-14314952D01*
X6791257Y-14324476D01*
X6781733Y-14314952D01*
X6791257Y-14305428D01*
X6791257Y-14324476D01*
X6924590Y-14124476D02*
X6943638Y-14124476D01*
X6962686Y-14134000D01*
X6972209Y-14143524D01*
X6981733Y-14162571D01*
X6991257Y-14200667D01*
X6991257Y-14248286D01*
X6981733Y-14286381D01*
X6972209Y-14305428D01*
X6962686Y-14314952D01*
X6943638Y-14324476D01*
X6924590Y-14324476D01*
X6905543Y-14314952D01*
X6896019Y-14305428D01*
X6886495Y-14286381D01*
X6876971Y-14248286D01*
X6876971Y-14200667D01*
X6886495Y-14162571D01*
X6896019Y-14143524D01*
X6905543Y-14134000D01*
X6924590Y-14124476D01*
X7057924Y-14124476D02*
X7181733Y-14124476D01*
X7115067Y-14200667D01*
X7143638Y-14200667D01*
X7162686Y-14210190D01*
X7172209Y-14219714D01*
X7181733Y-14238762D01*
X7181733Y-14286381D01*
X7172209Y-14305428D01*
X7162686Y-14314952D01*
X7143638Y-14324476D01*
X7086495Y-14324476D01*
X7067448Y-14314952D01*
X7057924Y-14305428D01*
X7276971Y-14324476D02*
X7315067Y-14324476D01*
X7334114Y-14314952D01*
X7343638Y-14305428D01*
X7362686Y-14276857D01*
X7372209Y-14238762D01*
X7372209Y-14162571D01*
X7362686Y-14143524D01*
X7353162Y-14134000D01*
X7334114Y-14124476D01*
X7296019Y-14124476D01*
X7276971Y-14134000D01*
X7267448Y-14143524D01*
X7257924Y-14162571D01*
X7257924Y-14210190D01*
X7267448Y-14229238D01*
X7276971Y-14238762D01*
X7296019Y-14248286D01*
X7334114Y-14248286D01*
X7353162Y-14238762D01*
X7362686Y-14229238D01*
X7372209Y-14210190D01*
X7543638Y-14191143D02*
X7543638Y-14324476D01*
X7496019Y-14114952D02*
X7448400Y-14257809D01*
X7572209Y-14257809D01*
X7638876Y-14124476D02*
X7638876Y-14162571D01*
X7715067Y-14124476D02*
X7715067Y-14162571D01*
X8010305Y-14400667D02*
X8000781Y-14391143D01*
X7981733Y-14362571D01*
X7972209Y-14343524D01*
X7962686Y-14314952D01*
X7953162Y-14267333D01*
X7953162Y-14229238D01*
X7962686Y-14181619D01*
X7972209Y-14153048D01*
X7981733Y-14134000D01*
X8000781Y-14105428D01*
X8010305Y-14095905D01*
X8067448Y-14124476D02*
X8191257Y-14124476D01*
X8124590Y-14200667D01*
X8153162Y-14200667D01*
X8172209Y-14210190D01*
X8181733Y-14219714D01*
X8191257Y-14238762D01*
X8191257Y-14286381D01*
X8181733Y-14305428D01*
X8172209Y-14314952D01*
X8153162Y-14324476D01*
X8096019Y-14324476D01*
X8076971Y-14314952D01*
X8067448Y-14305428D01*
X8315067Y-14124476D02*
X8334114Y-14124476D01*
X8353162Y-14134000D01*
X8362686Y-14143524D01*
X8372209Y-14162571D01*
X8381733Y-14200667D01*
X8381733Y-14248286D01*
X8372209Y-14286381D01*
X8362686Y-14305428D01*
X8353162Y-14314952D01*
X8334114Y-14324476D01*
X8315067Y-14324476D01*
X8296019Y-14314952D01*
X8286495Y-14305428D01*
X8276971Y-14286381D01*
X8267448Y-14248286D01*
X8267448Y-14200667D01*
X8276971Y-14162571D01*
X8286495Y-14143524D01*
X8296019Y-14134000D01*
X8315067Y-14124476D01*
X8619829Y-14324476D02*
X8619829Y-14124476D01*
X8705543Y-14324476D02*
X8705543Y-14219714D01*
X8696019Y-14200667D01*
X8676971Y-14191143D01*
X8648400Y-14191143D01*
X8629352Y-14200667D01*
X8619829Y-14210190D01*
X8829352Y-14324476D02*
X8810305Y-14314952D01*
X8800781Y-14305428D01*
X8791257Y-14286381D01*
X8791257Y-14229238D01*
X8800781Y-14210190D01*
X8810305Y-14200667D01*
X8829352Y-14191143D01*
X8857924Y-14191143D01*
X8876971Y-14200667D01*
X8886495Y-14210190D01*
X8896019Y-14229238D01*
X8896019Y-14286381D01*
X8886495Y-14305428D01*
X8876971Y-14314952D01*
X8857924Y-14324476D01*
X8829352Y-14324476D01*
X9010305Y-14324476D02*
X8991257Y-14314952D01*
X8981733Y-14295905D01*
X8981733Y-14124476D01*
X9162686Y-14314952D02*
X9143638Y-14324476D01*
X9105543Y-14324476D01*
X9086495Y-14314952D01*
X9076971Y-14295905D01*
X9076971Y-14219714D01*
X9086495Y-14200667D01*
X9105543Y-14191143D01*
X9143638Y-14191143D01*
X9162686Y-14200667D01*
X9172210Y-14219714D01*
X9172210Y-14238762D01*
X9076971Y-14257809D01*
X9248400Y-14314952D02*
X9267448Y-14324476D01*
X9305543Y-14324476D01*
X9324590Y-14314952D01*
X9334114Y-14295905D01*
X9334114Y-14286381D01*
X9324590Y-14267333D01*
X9305543Y-14257809D01*
X9276971Y-14257809D01*
X9257924Y-14248286D01*
X9248400Y-14229238D01*
X9248400Y-14219714D01*
X9257924Y-14200667D01*
X9276971Y-14191143D01*
X9305543Y-14191143D01*
X9324590Y-14200667D01*
X9400781Y-14400667D02*
X9410305Y-14391143D01*
X9429352Y-14362571D01*
X9438876Y-14343524D01*
X9448400Y-14314952D01*
X9457924Y-14267333D01*
X9457924Y-14229238D01*
X9448400Y-14181619D01*
X9438876Y-14153048D01*
X9429352Y-14134000D01*
X9410305Y-14105428D01*
X9400781Y-14095905D01*
D13*
X4438400Y-14498000D02*
G75*
G03*
X4438400Y-14498000I-75000J0D01*
G01*
D11*
X4800781Y-14588476D02*
X4686495Y-14588476D01*
X4743638Y-14588476D02*
X4743638Y-14388476D01*
X4724590Y-14417048D01*
X4705543Y-14436095D01*
X4686495Y-14445619D01*
X4886495Y-14569428D02*
X4896019Y-14578952D01*
X4886495Y-14588476D01*
X4876971Y-14578952D01*
X4886495Y-14569428D01*
X4886495Y-14588476D01*
X5076971Y-14388476D02*
X4981733Y-14388476D01*
X4972210Y-14483714D01*
X4981733Y-14474190D01*
X5000781Y-14464667D01*
X5048400Y-14464667D01*
X5067448Y-14474190D01*
X5076971Y-14483714D01*
X5086495Y-14502762D01*
X5086495Y-14550381D01*
X5076971Y-14569428D01*
X5067448Y-14578952D01*
X5048400Y-14588476D01*
X5000781Y-14588476D01*
X4981733Y-14578952D01*
X4972210Y-14569428D01*
X5210305Y-14388476D02*
X5229352Y-14388476D01*
X5248400Y-14398000D01*
X5257924Y-14407524D01*
X5267448Y-14426571D01*
X5276971Y-14464667D01*
X5276971Y-14512286D01*
X5267448Y-14550381D01*
X5257924Y-14569428D01*
X5248400Y-14578952D01*
X5229352Y-14588476D01*
X5210305Y-14588476D01*
X5191257Y-14578952D01*
X5181733Y-14569428D01*
X5172210Y-14550381D01*
X5162686Y-14512286D01*
X5162686Y-14464667D01*
X5172210Y-14426571D01*
X5181733Y-14407524D01*
X5191257Y-14398000D01*
X5210305Y-14388476D01*
X5400781Y-14388476D02*
X5419829Y-14388476D01*
X5438876Y-14398000D01*
X5448400Y-14407524D01*
X5457924Y-14426571D01*
X5467448Y-14464667D01*
X5467448Y-14512286D01*
X5457924Y-14550381D01*
X5448400Y-14569428D01*
X5438876Y-14578952D01*
X5419829Y-14588476D01*
X5400781Y-14588476D01*
X5381733Y-14578952D01*
X5372210Y-14569428D01*
X5362686Y-14550381D01*
X5353162Y-14512286D01*
X5353162Y-14464667D01*
X5362686Y-14426571D01*
X5372210Y-14407524D01*
X5381733Y-14398000D01*
X5400781Y-14388476D01*
X5553162Y-14588476D02*
X5553162Y-14455143D01*
X5553162Y-14474190D02*
X5562686Y-14464667D01*
X5581733Y-14455143D01*
X5610305Y-14455143D01*
X5629352Y-14464667D01*
X5638876Y-14483714D01*
X5638876Y-14588476D01*
X5638876Y-14483714D02*
X5648400Y-14464667D01*
X5667448Y-14455143D01*
X5696019Y-14455143D01*
X5715067Y-14464667D01*
X5724590Y-14483714D01*
X5724590Y-14588476D01*
X5819828Y-14588476D02*
X5819828Y-14455143D01*
X5819828Y-14474190D02*
X5829352Y-14464667D01*
X5848400Y-14455143D01*
X5876971Y-14455143D01*
X5896019Y-14464667D01*
X5905543Y-14483714D01*
X5905543Y-14588476D01*
X5905543Y-14483714D02*
X5915067Y-14464667D01*
X5934114Y-14455143D01*
X5962686Y-14455143D01*
X5981733Y-14464667D01*
X5991257Y-14483714D01*
X5991257Y-14588476D01*
X6381733Y-14378952D02*
X6210305Y-14636095D01*
X6638876Y-14388476D02*
X6657924Y-14388476D01*
X6676971Y-14398000D01*
X6686495Y-14407524D01*
X6696019Y-14426571D01*
X6705543Y-14464667D01*
X6705543Y-14512286D01*
X6696019Y-14550381D01*
X6686495Y-14569428D01*
X6676971Y-14578952D01*
X6657924Y-14588476D01*
X6638876Y-14588476D01*
X6619828Y-14578952D01*
X6610305Y-14569428D01*
X6600781Y-14550381D01*
X6591257Y-14512286D01*
X6591257Y-14464667D01*
X6600781Y-14426571D01*
X6610305Y-14407524D01*
X6619828Y-14398000D01*
X6638876Y-14388476D01*
X6791257Y-14569428D02*
X6800781Y-14578952D01*
X6791257Y-14588476D01*
X6781733Y-14578952D01*
X6791257Y-14569428D01*
X6791257Y-14588476D01*
X6924590Y-14388476D02*
X6943638Y-14388476D01*
X6962686Y-14398000D01*
X6972209Y-14407524D01*
X6981733Y-14426571D01*
X6991257Y-14464667D01*
X6991257Y-14512286D01*
X6981733Y-14550381D01*
X6972209Y-14569428D01*
X6962686Y-14578952D01*
X6943638Y-14588476D01*
X6924590Y-14588476D01*
X6905543Y-14578952D01*
X6896019Y-14569428D01*
X6886495Y-14550381D01*
X6876971Y-14512286D01*
X6876971Y-14464667D01*
X6886495Y-14426571D01*
X6896019Y-14407524D01*
X6905543Y-14398000D01*
X6924590Y-14388476D01*
X7172209Y-14388476D02*
X7076971Y-14388476D01*
X7067448Y-14483714D01*
X7076971Y-14474190D01*
X7096019Y-14464667D01*
X7143638Y-14464667D01*
X7162686Y-14474190D01*
X7172209Y-14483714D01*
X7181733Y-14502762D01*
X7181733Y-14550381D01*
X7172209Y-14569428D01*
X7162686Y-14578952D01*
X7143638Y-14588476D01*
X7096019Y-14588476D01*
X7076971Y-14578952D01*
X7067448Y-14569428D01*
X7276971Y-14588476D02*
X7315067Y-14588476D01*
X7334114Y-14578952D01*
X7343638Y-14569428D01*
X7362686Y-14540857D01*
X7372209Y-14502762D01*
X7372209Y-14426571D01*
X7362686Y-14407524D01*
X7353162Y-14398000D01*
X7334114Y-14388476D01*
X7296019Y-14388476D01*
X7276971Y-14398000D01*
X7267448Y-14407524D01*
X7257924Y-14426571D01*
X7257924Y-14474190D01*
X7267448Y-14493238D01*
X7276971Y-14502762D01*
X7296019Y-14512286D01*
X7334114Y-14512286D01*
X7353162Y-14502762D01*
X7362686Y-14493238D01*
X7372209Y-14474190D01*
X7562686Y-14588476D02*
X7448400Y-14588476D01*
X7505543Y-14588476D02*
X7505543Y-14388476D01*
X7486495Y-14417048D01*
X7467448Y-14436095D01*
X7448400Y-14445619D01*
X7638876Y-14388476D02*
X7638876Y-14426571D01*
X7715067Y-14388476D02*
X7715067Y-14426571D01*
X8010305Y-14664667D02*
X8000781Y-14655143D01*
X7981733Y-14626571D01*
X7972209Y-14607524D01*
X7962686Y-14578952D01*
X7953162Y-14531333D01*
X7953162Y-14493238D01*
X7962686Y-14445619D01*
X7972209Y-14417048D01*
X7981733Y-14398000D01*
X8000781Y-14369428D01*
X8010305Y-14359905D01*
X8172209Y-14388476D02*
X8134114Y-14388476D01*
X8115067Y-14398000D01*
X8105543Y-14407524D01*
X8086495Y-14436095D01*
X8076971Y-14474190D01*
X8076971Y-14550381D01*
X8086495Y-14569428D01*
X8096019Y-14578952D01*
X8115067Y-14588476D01*
X8153162Y-14588476D01*
X8172209Y-14578952D01*
X8181733Y-14569428D01*
X8191257Y-14550381D01*
X8191257Y-14502762D01*
X8181733Y-14483714D01*
X8172209Y-14474190D01*
X8153162Y-14464667D01*
X8115067Y-14464667D01*
X8096019Y-14474190D01*
X8086495Y-14483714D01*
X8076971Y-14502762D01*
X8429352Y-14588476D02*
X8429352Y-14388476D01*
X8515067Y-14588476D02*
X8515067Y-14483714D01*
X8505543Y-14464667D01*
X8486495Y-14455143D01*
X8457924Y-14455143D01*
X8438876Y-14464667D01*
X8429352Y-14474190D01*
X8638876Y-14588476D02*
X8619829Y-14578952D01*
X8610305Y-14569428D01*
X8600781Y-14550381D01*
X8600781Y-14493238D01*
X8610305Y-14474190D01*
X8619829Y-14464667D01*
X8638876Y-14455143D01*
X8667448Y-14455143D01*
X8686495Y-14464667D01*
X8696019Y-14474190D01*
X8705543Y-14493238D01*
X8705543Y-14550381D01*
X8696019Y-14569428D01*
X8686495Y-14578952D01*
X8667448Y-14588476D01*
X8638876Y-14588476D01*
X8819829Y-14588476D02*
X8800781Y-14578952D01*
X8791257Y-14559905D01*
X8791257Y-14388476D01*
X8972210Y-14578952D02*
X8953162Y-14588476D01*
X8915067Y-14588476D01*
X8896019Y-14578952D01*
X8886495Y-14559905D01*
X8886495Y-14483714D01*
X8896019Y-14464667D01*
X8915067Y-14455143D01*
X8953162Y-14455143D01*
X8972210Y-14464667D01*
X8981733Y-14483714D01*
X8981733Y-14502762D01*
X8886495Y-14521809D01*
X9057924Y-14578952D02*
X9076971Y-14588476D01*
X9115067Y-14588476D01*
X9134114Y-14578952D01*
X9143638Y-14559905D01*
X9143638Y-14550381D01*
X9134114Y-14531333D01*
X9115067Y-14521809D01*
X9086495Y-14521809D01*
X9067448Y-14512286D01*
X9057924Y-14493238D01*
X9057924Y-14483714D01*
X9067448Y-14464667D01*
X9086495Y-14455143D01*
X9115067Y-14455143D01*
X9134114Y-14464667D01*
X9210305Y-14664667D02*
X9219829Y-14655143D01*
X9238876Y-14626571D01*
X9248400Y-14607524D01*
X9257924Y-14578952D01*
X9267448Y-14531333D01*
X9267448Y-14493238D01*
X9257924Y-14445619D01*
X9248400Y-14417048D01*
X9238876Y-14398000D01*
X9219829Y-14369428D01*
X9210305Y-14359905D01*
M02*
