M48
; DRILL file {KiCad (6.0.4-0)} date 2022 April 04, Monday 21:56:58
; FORMAT={-:-/ absolute / metric / decimal}
; #@! TF.CreationDate,2022-04-04T21:56:58+02:00
; #@! TF.GenerationSoftware,Kicad,Pcbnew,(6.0.4-0)
; #@! TF.FileFunction,Plated,1,2,PTH
FMAT,2
METRIC
; #@! TA.AperFunction,Plated,PTH,ComponentDrill
T1C1.000
; #@! TA.AperFunction,Plated,PTH,ComponentDrill
T2C1.500
%
G90
G05
T1
X57.15Y-105.41
X57.155Y-133.35
X59.69Y-105.41
X59.695Y-133.35
X62.23Y-105.41
X62.235Y-133.35
X64.77Y-105.41
X64.775Y-133.35
X67.31Y-105.41
X67.315Y-133.35
X69.85Y-105.41
X69.855Y-133.35
X72.39Y-105.41
X72.395Y-133.35
X74.93Y-105.41
X74.935Y-133.35
X77.47Y-105.41
X77.475Y-133.35
X80.01Y-105.41
X80.015Y-133.35
X82.55Y-105.41
X82.555Y-133.35
X85.09Y-105.41
X85.095Y-133.35
X87.63Y-105.41
X87.635Y-133.35
X90.17Y-105.41
X90.175Y-133.35
X92.71Y-105.41
X92.715Y-133.35
T2
X51.816Y-116.786
X58.166Y-114.246
X71.628Y-116.786
X77.978Y-114.246
X91.44Y-116.786
X97.79Y-114.246
T0
M30
