%TF.GenerationSoftware,KiCad,Pcbnew,(6.0.4-0)*%
%TF.CreationDate,2022-04-05T18:33:42+02:00*%
%TF.ProjectId,smart-button,736d6172-742d-4627-9574-746f6e2e6b69,rev?*%
%TF.SameCoordinates,Original*%
%TF.FileFunction,Legend,Bot*%
%TF.FilePolarity,Positive*%
%FSLAX46Y46*%
G04 Gerber Fmt 4.6, Leading zero omitted, Abs format (unit mm)*
G04 Created by KiCad (PCBNEW (6.0.4-0)) date 2022-04-05 18:33:42*
%MOMM*%
%LPD*%
G01*
G04 APERTURE LIST*
%ADD10C,0.150000*%
%ADD11R,1.700000X1.700000*%
%ADD12O,1.700000X1.700000*%
%ADD13C,4.000000*%
%ADD14C,1.700000*%
%ADD15C,2.200000*%
G04 APERTURE END LIST*
D10*
X65093809Y-107359618D02*
X65131904Y-107473904D01*
X65131904Y-107664380D01*
X65093809Y-107740571D01*
X65055714Y-107778666D01*
X64979523Y-107816761D01*
X64903333Y-107816761D01*
X64827142Y-107778666D01*
X64789047Y-107740571D01*
X64750952Y-107664380D01*
X64712857Y-107511999D01*
X64674761Y-107435809D01*
X64636666Y-107397714D01*
X64560476Y-107359618D01*
X64484285Y-107359618D01*
X64408095Y-107397714D01*
X64370000Y-107435809D01*
X64331904Y-107511999D01*
X64331904Y-107702475D01*
X64370000Y-107816761D01*
X65093809Y-108121523D02*
X65131904Y-108235809D01*
X65131904Y-108426285D01*
X65093809Y-108502475D01*
X65055714Y-108540571D01*
X64979523Y-108578666D01*
X64903333Y-108578666D01*
X64827142Y-108540571D01*
X64789047Y-108502475D01*
X64750952Y-108426285D01*
X64712857Y-108273904D01*
X64674761Y-108197714D01*
X64636666Y-108159618D01*
X64560476Y-108121523D01*
X64484285Y-108121523D01*
X64408095Y-108159618D01*
X64370000Y-108197714D01*
X64331904Y-108273904D01*
X64331904Y-108464380D01*
X64370000Y-108578666D01*
X65131904Y-108921523D02*
X64331904Y-108921523D01*
X64331904Y-109111999D01*
X64370000Y-109226285D01*
X64446190Y-109302475D01*
X64522380Y-109340571D01*
X64674761Y-109378666D01*
X64789047Y-109378666D01*
X64941428Y-109340571D01*
X65017619Y-109302475D01*
X65093809Y-109226285D01*
X65131904Y-109111999D01*
X65131904Y-108921523D01*
X64331904Y-109645333D02*
X64331904Y-110140571D01*
X64636666Y-109873904D01*
X64636666Y-109988190D01*
X64674761Y-110064380D01*
X64712857Y-110102475D01*
X64789047Y-110140571D01*
X64979523Y-110140571D01*
X65055714Y-110102475D01*
X65093809Y-110064380D01*
X65131904Y-109988190D01*
X65131904Y-109759618D01*
X65093809Y-109683428D01*
X65055714Y-109645333D01*
X87991904Y-107854857D02*
X87610952Y-107588191D01*
X87991904Y-107397714D02*
X87191904Y-107397714D01*
X87191904Y-107702476D01*
X87230000Y-107778667D01*
X87268095Y-107816762D01*
X87344285Y-107854857D01*
X87458571Y-107854857D01*
X87534761Y-107816762D01*
X87572857Y-107778667D01*
X87610952Y-107702476D01*
X87610952Y-107397714D01*
X87953809Y-108159619D02*
X87991904Y-108273905D01*
X87991904Y-108464381D01*
X87953809Y-108540572D01*
X87915714Y-108578667D01*
X87839523Y-108616762D01*
X87763333Y-108616762D01*
X87687142Y-108578667D01*
X87649047Y-108540572D01*
X87610952Y-108464381D01*
X87572857Y-108312000D01*
X87534761Y-108235810D01*
X87496666Y-108197714D01*
X87420476Y-108159619D01*
X87344285Y-108159619D01*
X87268095Y-108197714D01*
X87230000Y-108235810D01*
X87191904Y-108312000D01*
X87191904Y-108502476D01*
X87230000Y-108616762D01*
X87191904Y-108845333D02*
X87191904Y-109302476D01*
X87991904Y-109073905D02*
X87191904Y-109073905D01*
X62591904Y-130149618D02*
X61791904Y-130149618D01*
X61791904Y-130340095D01*
X61830000Y-130454380D01*
X61906190Y-130530571D01*
X61982380Y-130568666D01*
X62134761Y-130606761D01*
X62249047Y-130606761D01*
X62401428Y-130568666D01*
X62477619Y-130530571D01*
X62553809Y-130454380D01*
X62591904Y-130340095D01*
X62591904Y-130149618D01*
X61868095Y-130911523D02*
X61830000Y-130949618D01*
X61791904Y-131025809D01*
X61791904Y-131216285D01*
X61830000Y-131292475D01*
X61868095Y-131330571D01*
X61944285Y-131368666D01*
X62020476Y-131368666D01*
X62134761Y-131330571D01*
X62591904Y-130873428D01*
X62591904Y-131368666D01*
X85451904Y-130606761D02*
X85070952Y-130340095D01*
X85451904Y-130149618D02*
X84651904Y-130149618D01*
X84651904Y-130454380D01*
X84690000Y-130530571D01*
X84728095Y-130568666D01*
X84804285Y-130606761D01*
X84918571Y-130606761D01*
X84994761Y-130568666D01*
X85032857Y-130530571D01*
X85070952Y-130454380D01*
X85070952Y-130149618D01*
X84651904Y-130873428D02*
X85451904Y-131406761D01*
X84651904Y-131406761D02*
X85451904Y-130873428D01*
X69411904Y-130187714D02*
X69411904Y-130682952D01*
X69716666Y-130416285D01*
X69716666Y-130530571D01*
X69754761Y-130606761D01*
X69792857Y-130644857D01*
X69869047Y-130682952D01*
X70059523Y-130682952D01*
X70135714Y-130644857D01*
X70173809Y-130606761D01*
X70211904Y-130530571D01*
X70211904Y-130301999D01*
X70173809Y-130225809D01*
X70135714Y-130187714D01*
X69411904Y-130911523D02*
X70211904Y-131178190D01*
X69411904Y-131444857D01*
X67671904Y-130149618D02*
X66871904Y-130149618D01*
X66871904Y-130340095D01*
X66910000Y-130454380D01*
X66986190Y-130530571D01*
X67062380Y-130568666D01*
X67214761Y-130606761D01*
X67329047Y-130606761D01*
X67481428Y-130568666D01*
X67557619Y-130530571D01*
X67633809Y-130454380D01*
X67671904Y-130340095D01*
X67671904Y-130149618D01*
X67138571Y-131292475D02*
X67671904Y-131292475D01*
X66833809Y-131101999D02*
X67405238Y-130911523D01*
X67405238Y-131406761D01*
X82111904Y-107321524D02*
X82111904Y-107816762D01*
X82416666Y-107550095D01*
X82416666Y-107664381D01*
X82454761Y-107740571D01*
X82492857Y-107778667D01*
X82569047Y-107816762D01*
X82759523Y-107816762D01*
X82835714Y-107778667D01*
X82873809Y-107740571D01*
X82911904Y-107664381D01*
X82911904Y-107435809D01*
X82873809Y-107359619D01*
X82835714Y-107321524D01*
X82111904Y-108045333D02*
X82911904Y-108312000D01*
X82111904Y-108578667D01*
X87191904Y-130225809D02*
X87191904Y-130682952D01*
X87991904Y-130454380D02*
X87191904Y-130454380D01*
X87191904Y-130873428D02*
X87991904Y-131406761D01*
X87191904Y-131406761D02*
X87991904Y-130873428D01*
X89770000Y-107816762D02*
X89731904Y-107740571D01*
X89731904Y-107626286D01*
X89770000Y-107512000D01*
X89846190Y-107435809D01*
X89922380Y-107397714D01*
X90074761Y-107359619D01*
X90189047Y-107359619D01*
X90341428Y-107397714D01*
X90417619Y-107435809D01*
X90493809Y-107512000D01*
X90531904Y-107626286D01*
X90531904Y-107702476D01*
X90493809Y-107816762D01*
X90455714Y-107854857D01*
X90189047Y-107854857D01*
X90189047Y-107702476D01*
X90531904Y-108197714D02*
X89731904Y-108197714D01*
X90531904Y-108654857D01*
X89731904Y-108654857D01*
X90531904Y-109035809D02*
X89731904Y-109035809D01*
X89731904Y-109226286D01*
X89770000Y-109340571D01*
X89846190Y-109416762D01*
X89922380Y-109454857D01*
X90074761Y-109492952D01*
X90189047Y-109492952D01*
X90341428Y-109454857D01*
X90417619Y-109416762D01*
X90493809Y-109340571D01*
X90531904Y-109226286D01*
X90531904Y-109035809D01*
X71990000Y-129692476D02*
X71951904Y-129616285D01*
X71951904Y-129502000D01*
X71990000Y-129387714D01*
X72066190Y-129311523D01*
X72142380Y-129273428D01*
X72294761Y-129235333D01*
X72409047Y-129235333D01*
X72561428Y-129273428D01*
X72637619Y-129311523D01*
X72713809Y-129387714D01*
X72751904Y-129502000D01*
X72751904Y-129578190D01*
X72713809Y-129692476D01*
X72675714Y-129730571D01*
X72409047Y-129730571D01*
X72409047Y-129578190D01*
X72751904Y-130073428D02*
X71951904Y-130073428D01*
X72751904Y-130530571D01*
X71951904Y-130530571D01*
X72751904Y-130911523D02*
X71951904Y-130911523D01*
X71951904Y-131102000D01*
X71990000Y-131216285D01*
X72066190Y-131292476D01*
X72142380Y-131330571D01*
X72294761Y-131368666D01*
X72409047Y-131368666D01*
X72561428Y-131330571D01*
X72637619Y-131292476D01*
X72713809Y-131216285D01*
X72751904Y-131102000D01*
X72751904Y-130911523D01*
X61791904Y-107283428D02*
X62591904Y-107550095D01*
X61791904Y-107816762D01*
X61791904Y-108083428D02*
X62439523Y-108083428D01*
X62515714Y-108121523D01*
X62553809Y-108159619D01*
X62591904Y-108235809D01*
X62591904Y-108388190D01*
X62553809Y-108464381D01*
X62515714Y-108502476D01*
X62439523Y-108540571D01*
X61791904Y-108540571D01*
X77831904Y-130149618D02*
X77031904Y-130149618D01*
X77031904Y-130340095D01*
X77070000Y-130454380D01*
X77146190Y-130530571D01*
X77222380Y-130568666D01*
X77374761Y-130606761D01*
X77489047Y-130606761D01*
X77641428Y-130568666D01*
X77717619Y-130530571D01*
X77793809Y-130454380D01*
X77831904Y-130340095D01*
X77831904Y-130149618D01*
X77031904Y-131292475D02*
X77031904Y-131140095D01*
X77070000Y-131063904D01*
X77108095Y-131025809D01*
X77222380Y-130949618D01*
X77374761Y-130911523D01*
X77679523Y-130911523D01*
X77755714Y-130949618D01*
X77793809Y-130987714D01*
X77831904Y-131063904D01*
X77831904Y-131216285D01*
X77793809Y-131292475D01*
X77755714Y-131330571D01*
X77679523Y-131368666D01*
X77489047Y-131368666D01*
X77412857Y-131330571D01*
X77374761Y-131292475D01*
X77336666Y-131216285D01*
X77336666Y-131063904D01*
X77374761Y-130987714D01*
X77412857Y-130949618D01*
X77489047Y-130911523D01*
X94947595Y-105762619D02*
X94947595Y-106762619D01*
X95280928Y-106048333D01*
X95614261Y-106762619D01*
X95614261Y-105762619D01*
X96519023Y-105762619D02*
X96519023Y-106286428D01*
X96471404Y-106381666D01*
X96376166Y-106429285D01*
X96185690Y-106429285D01*
X96090452Y-106381666D01*
X96519023Y-105810238D02*
X96423785Y-105762619D01*
X96185690Y-105762619D01*
X96090452Y-105810238D01*
X96042833Y-105905476D01*
X96042833Y-106000714D01*
X96090452Y-106095952D01*
X96185690Y-106143571D01*
X96423785Y-106143571D01*
X96519023Y-106191190D01*
X96995214Y-105762619D02*
X96995214Y-106429285D01*
X96995214Y-106238809D02*
X97042833Y-106334047D01*
X97090452Y-106381666D01*
X97185690Y-106429285D01*
X97280928Y-106429285D01*
X97471404Y-106429285D02*
X97852357Y-106429285D01*
X97614261Y-106762619D02*
X97614261Y-105905476D01*
X97661880Y-105810238D01*
X97757119Y-105762619D01*
X97852357Y-105762619D01*
X98185690Y-105762619D02*
X98185690Y-106429285D01*
X98185690Y-106762619D02*
X98138071Y-106715000D01*
X98185690Y-106667380D01*
X98233309Y-106715000D01*
X98185690Y-106762619D01*
X98185690Y-106667380D01*
X98661880Y-106429285D02*
X98661880Y-105572142D01*
X98614261Y-105476904D01*
X98519023Y-105429285D01*
X98471404Y-105429285D01*
X98661880Y-106762619D02*
X98614261Y-106715000D01*
X98661880Y-106667380D01*
X98709500Y-106715000D01*
X98661880Y-106762619D01*
X98661880Y-106667380D01*
X99138071Y-106429285D02*
X99138071Y-105762619D01*
X99138071Y-106334047D02*
X99185690Y-106381666D01*
X99280928Y-106429285D01*
X99423785Y-106429285D01*
X99519023Y-106381666D01*
X99566642Y-106286428D01*
X99566642Y-105762619D01*
X95519023Y-104247857D02*
X95471404Y-104200238D01*
X95328547Y-104152619D01*
X95233309Y-104152619D01*
X95090452Y-104200238D01*
X94995214Y-104295476D01*
X94947595Y-104390714D01*
X94899976Y-104581190D01*
X94899976Y-104724047D01*
X94947595Y-104914523D01*
X94995214Y-105009761D01*
X95090452Y-105105000D01*
X95233309Y-105152619D01*
X95328547Y-105152619D01*
X95471404Y-105105000D01*
X95519023Y-105057380D01*
X96376166Y-104152619D02*
X96376166Y-104676428D01*
X96328547Y-104771666D01*
X96233309Y-104819285D01*
X96042833Y-104819285D01*
X95947595Y-104771666D01*
X96376166Y-104200238D02*
X96280928Y-104152619D01*
X96042833Y-104152619D01*
X95947595Y-104200238D01*
X95899976Y-104295476D01*
X95899976Y-104390714D01*
X95947595Y-104485952D01*
X96042833Y-104533571D01*
X96280928Y-104533571D01*
X96376166Y-104581190D01*
X96804738Y-104200238D02*
X96899976Y-104152619D01*
X97090452Y-104152619D01*
X97185690Y-104200238D01*
X97233309Y-104295476D01*
X97233309Y-104343095D01*
X97185690Y-104438333D01*
X97090452Y-104485952D01*
X96947595Y-104485952D01*
X96852357Y-104533571D01*
X96804738Y-104628809D01*
X96804738Y-104676428D01*
X96852357Y-104771666D01*
X96947595Y-104819285D01*
X97090452Y-104819285D01*
X97185690Y-104771666D01*
X97519023Y-104819285D02*
X97899976Y-104819285D01*
X97661880Y-105152619D02*
X97661880Y-104295476D01*
X97709500Y-104200238D01*
X97804738Y-104152619D01*
X97899976Y-104152619D01*
X98614261Y-104200238D02*
X98519023Y-104152619D01*
X98328547Y-104152619D01*
X98233309Y-104200238D01*
X98185690Y-104295476D01*
X98185690Y-104676428D01*
X98233309Y-104771666D01*
X98328547Y-104819285D01*
X98519023Y-104819285D01*
X98614261Y-104771666D01*
X98661880Y-104676428D01*
X98661880Y-104581190D01*
X98185690Y-104485952D01*
X99471404Y-104200238D02*
X99376166Y-104152619D01*
X99185690Y-104152619D01*
X99090452Y-104200238D01*
X99042833Y-104295476D01*
X99042833Y-104676428D01*
X99090452Y-104771666D01*
X99185690Y-104819285D01*
X99376166Y-104819285D01*
X99471404Y-104771666D01*
X99519023Y-104676428D01*
X99519023Y-104581190D01*
X99042833Y-104485952D01*
X100090452Y-104152619D02*
X99995214Y-104200238D01*
X99947595Y-104295476D01*
X99947595Y-105152619D01*
X54389976Y-125114238D02*
X54532833Y-125066619D01*
X54770928Y-125066619D01*
X54866166Y-125114238D01*
X54913785Y-125161857D01*
X54961404Y-125257095D01*
X54961404Y-125352333D01*
X54913785Y-125447571D01*
X54866166Y-125495190D01*
X54770928Y-125542809D01*
X54580452Y-125590428D01*
X54485214Y-125638047D01*
X54437595Y-125685666D01*
X54389976Y-125780904D01*
X54389976Y-125876142D01*
X54437595Y-125971380D01*
X54485214Y-126019000D01*
X54580452Y-126066619D01*
X54818547Y-126066619D01*
X54961404Y-126019000D01*
X55389976Y-125066619D02*
X55389976Y-126066619D01*
X55818547Y-125066619D02*
X55818547Y-125590428D01*
X55770928Y-125685666D01*
X55675690Y-125733285D01*
X55532833Y-125733285D01*
X55437595Y-125685666D01*
X55389976Y-125638047D01*
X56294738Y-125066619D02*
X56294738Y-125733285D01*
X56294738Y-126066619D02*
X56247119Y-126019000D01*
X56294738Y-125971380D01*
X56342357Y-126019000D01*
X56294738Y-126066619D01*
X56294738Y-125971380D01*
X57151880Y-125114238D02*
X57056642Y-125066619D01*
X56866166Y-125066619D01*
X56770928Y-125114238D01*
X56723309Y-125209476D01*
X56723309Y-125590428D01*
X56770928Y-125685666D01*
X56866166Y-125733285D01*
X57056642Y-125733285D01*
X57151880Y-125685666D01*
X57199500Y-125590428D01*
X57199500Y-125495190D01*
X56723309Y-125399952D01*
X57770928Y-125066619D02*
X57675690Y-125114238D01*
X57628071Y-125209476D01*
X57628071Y-126066619D01*
X58580452Y-125066619D02*
X58580452Y-126066619D01*
X58580452Y-125114238D02*
X58485214Y-125066619D01*
X58294738Y-125066619D01*
X58199500Y-125114238D01*
X58151880Y-125161857D01*
X58104261Y-125257095D01*
X58104261Y-125542809D01*
X58151880Y-125638047D01*
X58199500Y-125685666D01*
X58294738Y-125733285D01*
X58485214Y-125733285D01*
X58580452Y-125685666D01*
X59675690Y-125733285D02*
X60056642Y-125733285D01*
X59818547Y-125066619D02*
X59818547Y-125923761D01*
X59866166Y-126019000D01*
X59961404Y-126066619D01*
X60056642Y-126066619D01*
X60532833Y-125066619D02*
X60437595Y-125114238D01*
X60389976Y-125161857D01*
X60342357Y-125257095D01*
X60342357Y-125542809D01*
X60389976Y-125638047D01*
X60437595Y-125685666D01*
X60532833Y-125733285D01*
X60675690Y-125733285D01*
X60770928Y-125685666D01*
X60818547Y-125638047D01*
X60866166Y-125542809D01*
X60866166Y-125257095D01*
X60818547Y-125161857D01*
X60770928Y-125114238D01*
X60675690Y-125066619D01*
X60532833Y-125066619D01*
X61294738Y-125066619D02*
X61294738Y-125733285D01*
X61294738Y-125542809D02*
X61342357Y-125638047D01*
X61389976Y-125685666D01*
X61485214Y-125733285D01*
X61580452Y-125733285D01*
X62675690Y-125066619D02*
X62675690Y-126066619D01*
X63247119Y-125066619D01*
X63247119Y-126066619D01*
X63866166Y-125066619D02*
X63770928Y-125114238D01*
X63723309Y-125161857D01*
X63675690Y-125257095D01*
X63675690Y-125542809D01*
X63723309Y-125638047D01*
X63770928Y-125685666D01*
X63866166Y-125733285D01*
X64009023Y-125733285D01*
X64104261Y-125685666D01*
X64151880Y-125638047D01*
X64199499Y-125542809D01*
X64199499Y-125257095D01*
X64151880Y-125161857D01*
X64104261Y-125114238D01*
X64009023Y-125066619D01*
X63866166Y-125066619D01*
X65056642Y-125066619D02*
X65056642Y-126066619D01*
X65056642Y-125114238D02*
X64961404Y-125066619D01*
X64770928Y-125066619D01*
X64675690Y-125114238D01*
X64628071Y-125161857D01*
X64580452Y-125257095D01*
X64580452Y-125542809D01*
X64628071Y-125638047D01*
X64675690Y-125685666D01*
X64770928Y-125733285D01*
X64961404Y-125733285D01*
X65056642Y-125685666D01*
X65913785Y-125114238D02*
X65818547Y-125066619D01*
X65628071Y-125066619D01*
X65532833Y-125114238D01*
X65485214Y-125209476D01*
X65485214Y-125590428D01*
X65532833Y-125685666D01*
X65628071Y-125733285D01*
X65818547Y-125733285D01*
X65913785Y-125685666D01*
X65961404Y-125590428D01*
X65961404Y-125495190D01*
X65485214Y-125399952D01*
X66389976Y-125066619D02*
X66389976Y-126066619D01*
X66723309Y-125352333D01*
X67056642Y-126066619D01*
X67056642Y-125066619D01*
X68104261Y-125161857D02*
X68056642Y-125114238D01*
X67913785Y-125066619D01*
X67818547Y-125066619D01*
X67675690Y-125114238D01*
X67580452Y-125209476D01*
X67532833Y-125304714D01*
X67485214Y-125495190D01*
X67485214Y-125638047D01*
X67532833Y-125828523D01*
X67580452Y-125923761D01*
X67675690Y-126019000D01*
X67818547Y-126066619D01*
X67913785Y-126066619D01*
X68056642Y-126019000D01*
X68104261Y-125971380D01*
X68532833Y-126066619D02*
X68532833Y-125257095D01*
X68580452Y-125161857D01*
X68628071Y-125114238D01*
X68723309Y-125066619D01*
X68913785Y-125066619D01*
X69009023Y-125114238D01*
X69056642Y-125161857D01*
X69104261Y-125257095D01*
X69104261Y-126066619D01*
X70247119Y-125733285D02*
X70485214Y-125066619D01*
X70723309Y-125733285D01*
X71009023Y-126066619D02*
X71628071Y-126066619D01*
X71294738Y-125685666D01*
X71437595Y-125685666D01*
X71532833Y-125638047D01*
X71580452Y-125590428D01*
X71628071Y-125495190D01*
X71628071Y-125257095D01*
X71580452Y-125161857D01*
X71532833Y-125114238D01*
X71437595Y-125066619D01*
X71151880Y-125066619D01*
X71056642Y-125114238D01*
X71009023Y-125161857D01*
X73104261Y-124685666D02*
X73056642Y-124733285D01*
X72961404Y-124876142D01*
X72913785Y-124971380D01*
X72866166Y-125114238D01*
X72818547Y-125352333D01*
X72818547Y-125542809D01*
X72866166Y-125780904D01*
X72913785Y-125923761D01*
X72961404Y-126019000D01*
X73056642Y-126161857D01*
X73104261Y-126209476D01*
X73628071Y-125066619D02*
X73532833Y-125114238D01*
X73485214Y-125209476D01*
X73485214Y-126066619D01*
X74151880Y-125066619D02*
X74056642Y-125114238D01*
X74009023Y-125161857D01*
X73961404Y-125257095D01*
X73961404Y-125542809D01*
X74009023Y-125638047D01*
X74056642Y-125685666D01*
X74151880Y-125733285D01*
X74294738Y-125733285D01*
X74389976Y-125685666D01*
X74437595Y-125638047D01*
X74485214Y-125542809D01*
X74485214Y-125257095D01*
X74437595Y-125161857D01*
X74389976Y-125114238D01*
X74294738Y-125066619D01*
X74151880Y-125066619D01*
X75056642Y-125066619D02*
X74961404Y-125114238D01*
X74913785Y-125209476D01*
X74913785Y-126066619D01*
X75437595Y-125066619D02*
X75437595Y-125733285D01*
X75437595Y-126066619D02*
X75389976Y-126019000D01*
X75437595Y-125971380D01*
X75485214Y-126019000D01*
X75437595Y-126066619D01*
X75437595Y-125971380D01*
X75913785Y-125733285D02*
X75913785Y-125066619D01*
X75913785Y-125638047D02*
X75961404Y-125685666D01*
X76056642Y-125733285D01*
X76199499Y-125733285D01*
X76294738Y-125685666D01*
X76342357Y-125590428D01*
X76342357Y-125066619D01*
X76723309Y-124685666D02*
X76770928Y-124733285D01*
X76866166Y-124876142D01*
X76913785Y-124971380D01*
X76961404Y-125114238D01*
X77009023Y-125352333D01*
X77009023Y-125542809D01*
X76961404Y-125780904D01*
X76913785Y-125923761D01*
X76866166Y-126019000D01*
X76770928Y-126161857D01*
X76723309Y-126209476D01*
X54342357Y-124123285D02*
X54532833Y-123456619D01*
X54723309Y-123932809D01*
X54913785Y-123456619D01*
X55104261Y-124123285D01*
X55485214Y-123456619D02*
X55485214Y-124123285D01*
X55485214Y-124456619D02*
X55437595Y-124409000D01*
X55485214Y-124361380D01*
X55532833Y-124409000D01*
X55485214Y-124456619D01*
X55485214Y-124361380D01*
X55818547Y-124123285D02*
X56199500Y-124123285D01*
X55961404Y-124456619D02*
X55961404Y-123599476D01*
X56009023Y-123504238D01*
X56104261Y-123456619D01*
X56199500Y-123456619D01*
X56532833Y-123456619D02*
X56532833Y-124456619D01*
X56961404Y-123456619D02*
X56961404Y-123980428D01*
X56913785Y-124075666D01*
X56818547Y-124123285D01*
X56675690Y-124123285D01*
X56580452Y-124075666D01*
X56532833Y-124028047D01*
X58104261Y-124456619D02*
X58723309Y-124456619D01*
X58389976Y-124075666D01*
X58532833Y-124075666D01*
X58628071Y-124028047D01*
X58675690Y-123980428D01*
X58723309Y-123885190D01*
X58723309Y-123647095D01*
X58675690Y-123551857D01*
X58628071Y-123504238D01*
X58532833Y-123456619D01*
X58247119Y-123456619D01*
X58151880Y-123504238D01*
X58104261Y-123551857D01*
X60485214Y-123551857D02*
X60437595Y-123504238D01*
X60294738Y-123456619D01*
X60199500Y-123456619D01*
X60056642Y-123504238D01*
X59961404Y-123599476D01*
X59913785Y-123694714D01*
X59866166Y-123885190D01*
X59866166Y-124028047D01*
X59913785Y-124218523D01*
X59961404Y-124313761D01*
X60056642Y-124409000D01*
X60199500Y-124456619D01*
X60294738Y-124456619D01*
X60437595Y-124409000D01*
X60485214Y-124361380D01*
X60913785Y-123456619D02*
X60913785Y-124456619D01*
X61342357Y-123456619D02*
X61342357Y-123980428D01*
X61294738Y-124075666D01*
X61199500Y-124123285D01*
X61056642Y-124123285D01*
X60961404Y-124075666D01*
X60913785Y-124028047D01*
X62199500Y-123504238D02*
X62104261Y-123456619D01*
X61913785Y-123456619D01*
X61818547Y-123504238D01*
X61770928Y-123599476D01*
X61770928Y-123980428D01*
X61818547Y-124075666D01*
X61913785Y-124123285D01*
X62104261Y-124123285D01*
X62199500Y-124075666D01*
X62247119Y-123980428D01*
X62247119Y-123885190D01*
X61770928Y-123789952D01*
X62675690Y-123456619D02*
X62675690Y-124123285D01*
X62675690Y-123932809D02*
X62723309Y-124028047D01*
X62770928Y-124075666D01*
X62866166Y-124123285D01*
X62961404Y-124123285D01*
X63294738Y-123456619D02*
X63294738Y-124123285D01*
X63294738Y-123932809D02*
X63342357Y-124028047D01*
X63389976Y-124075666D01*
X63485214Y-124123285D01*
X63580452Y-124123285D01*
X63818547Y-124123285D02*
X64056642Y-123456619D01*
X64294738Y-124123285D02*
X64056642Y-123456619D01*
X63961404Y-123218523D01*
X63913785Y-123170904D01*
X63818547Y-123123285D01*
X64675690Y-123456619D02*
X64675690Y-124456619D01*
X65009023Y-123742333D01*
X65342357Y-124456619D01*
X65342357Y-123456619D01*
X65723309Y-124456619D02*
X66389976Y-123456619D01*
X66389976Y-124456619D02*
X65723309Y-123456619D01*
X67532833Y-123456619D02*
X67532833Y-124456619D01*
X67532833Y-124075666D02*
X67628071Y-124123285D01*
X67818547Y-124123285D01*
X67913785Y-124075666D01*
X67961404Y-124028047D01*
X68009023Y-123932809D01*
X68009023Y-123647095D01*
X67961404Y-123551857D01*
X67913785Y-123504238D01*
X67818547Y-123456619D01*
X67628071Y-123456619D01*
X67532833Y-123504238D01*
X68866166Y-124123285D02*
X68866166Y-123456619D01*
X68437595Y-124123285D02*
X68437595Y-123599476D01*
X68485214Y-123504238D01*
X68580452Y-123456619D01*
X68723309Y-123456619D01*
X68818547Y-123504238D01*
X68866166Y-123551857D01*
X69199500Y-124123285D02*
X69580452Y-124123285D01*
X69342357Y-124456619D02*
X69342357Y-123599476D01*
X69389976Y-123504238D01*
X69485214Y-123456619D01*
X69580452Y-123456619D01*
X69770928Y-124123285D02*
X70151880Y-124123285D01*
X69913785Y-124456619D02*
X69913785Y-123599476D01*
X69961404Y-123504238D01*
X70056642Y-123456619D01*
X70151880Y-123456619D01*
X70628071Y-123456619D02*
X70532833Y-123504238D01*
X70485214Y-123551857D01*
X70437595Y-123647095D01*
X70437595Y-123932809D01*
X70485214Y-124028047D01*
X70532833Y-124075666D01*
X70628071Y-124123285D01*
X70770928Y-124123285D01*
X70866166Y-124075666D01*
X70913785Y-124028047D01*
X70961404Y-123932809D01*
X70961404Y-123647095D01*
X70913785Y-123551857D01*
X70866166Y-123504238D01*
X70770928Y-123456619D01*
X70628071Y-123456619D01*
X71389976Y-124123285D02*
X71389976Y-123456619D01*
X71389976Y-124028047D02*
X71437595Y-124075666D01*
X71532833Y-124123285D01*
X71675690Y-124123285D01*
X71770928Y-124075666D01*
X71818547Y-123980428D01*
X71818547Y-123456619D01*
X72247119Y-123504238D02*
X72342357Y-123456619D01*
X72532833Y-123456619D01*
X72628071Y-123504238D01*
X72675690Y-123599476D01*
X72675690Y-123647095D01*
X72628071Y-123742333D01*
X72532833Y-123789952D01*
X72389976Y-123789952D01*
X72294738Y-123837571D01*
X72247119Y-123932809D01*
X72247119Y-123980428D01*
X72294738Y-124075666D01*
X72389976Y-124123285D01*
X72532833Y-124123285D01*
X72628071Y-124075666D01*
X73104261Y-123551857D02*
X73151880Y-123504238D01*
X73104261Y-123456619D01*
X73056642Y-123504238D01*
X73104261Y-123551857D01*
X73104261Y-123456619D01*
X79610000Y-107816762D02*
X79571904Y-107740571D01*
X79571904Y-107626286D01*
X79610000Y-107512000D01*
X79686190Y-107435809D01*
X79762380Y-107397714D01*
X79914761Y-107359619D01*
X80029047Y-107359619D01*
X80181428Y-107397714D01*
X80257619Y-107435809D01*
X80333809Y-107512000D01*
X80371904Y-107626286D01*
X80371904Y-107702476D01*
X80333809Y-107816762D01*
X80295714Y-107854857D01*
X80029047Y-107854857D01*
X80029047Y-107702476D01*
X80371904Y-108197714D02*
X79571904Y-108197714D01*
X80371904Y-108654857D01*
X79571904Y-108654857D01*
X80371904Y-109035809D02*
X79571904Y-109035809D01*
X79571904Y-109226286D01*
X79610000Y-109340571D01*
X79686190Y-109416762D01*
X79762380Y-109454857D01*
X79914761Y-109492952D01*
X80029047Y-109492952D01*
X80181428Y-109454857D01*
X80257619Y-109416762D01*
X80333809Y-109340571D01*
X80371904Y-109226286D01*
X80371904Y-109035809D01*
X75291904Y-107397714D02*
X74491904Y-107397714D01*
X75063333Y-107664380D01*
X74491904Y-107931047D01*
X75291904Y-107931047D01*
X75291904Y-108311999D02*
X74491904Y-108311999D01*
X75253809Y-108654857D02*
X75291904Y-108769142D01*
X75291904Y-108959618D01*
X75253809Y-109035809D01*
X75215714Y-109073904D01*
X75139523Y-109111999D01*
X75063333Y-109111999D01*
X74987142Y-109073904D01*
X74949047Y-109035809D01*
X74910952Y-108959618D01*
X74872857Y-108807237D01*
X74834761Y-108731047D01*
X74796666Y-108692952D01*
X74720476Y-108654857D01*
X74644285Y-108654857D01*
X74568095Y-108692952D01*
X74530000Y-108731047D01*
X74491904Y-108807237D01*
X74491904Y-108997714D01*
X74530000Y-109111999D01*
X74491904Y-109607237D02*
X74491904Y-109759618D01*
X74530000Y-109835809D01*
X74606190Y-109911999D01*
X74758571Y-109950095D01*
X75025238Y-109950095D01*
X75177619Y-109911999D01*
X75253809Y-109835809D01*
X75291904Y-109759618D01*
X75291904Y-109607237D01*
X75253809Y-109531047D01*
X75177619Y-109454857D01*
X75025238Y-109416761D01*
X74758571Y-109416761D01*
X74606190Y-109454857D01*
X74530000Y-109531047D01*
X74491904Y-109607237D01*
X60051904Y-130149618D02*
X59251904Y-130149618D01*
X59251904Y-130340095D01*
X59290000Y-130454380D01*
X59366190Y-130530571D01*
X59442380Y-130568666D01*
X59594761Y-130606761D01*
X59709047Y-130606761D01*
X59861428Y-130568666D01*
X59937619Y-130530571D01*
X60013809Y-130454380D01*
X60051904Y-130340095D01*
X60051904Y-130149618D01*
X60051904Y-131368666D02*
X60051904Y-130911523D01*
X60051904Y-131140095D02*
X59251904Y-131140095D01*
X59366190Y-131063904D01*
X59442380Y-130987714D01*
X59480476Y-130911523D01*
X72675714Y-107854857D02*
X72713809Y-107816762D01*
X72751904Y-107702476D01*
X72751904Y-107626286D01*
X72713809Y-107512000D01*
X72637619Y-107435810D01*
X72561428Y-107397714D01*
X72409047Y-107359619D01*
X72294761Y-107359619D01*
X72142380Y-107397714D01*
X72066190Y-107435810D01*
X71990000Y-107512000D01*
X71951904Y-107626286D01*
X71951904Y-107702476D01*
X71990000Y-107816762D01*
X72028095Y-107854857D01*
X72713809Y-108159619D02*
X72751904Y-108273905D01*
X72751904Y-108464381D01*
X72713809Y-108540571D01*
X72675714Y-108578667D01*
X72599523Y-108616762D01*
X72523333Y-108616762D01*
X72447142Y-108578667D01*
X72409047Y-108540571D01*
X72370952Y-108464381D01*
X72332857Y-108312000D01*
X72294761Y-108235810D01*
X72256666Y-108197714D01*
X72180476Y-108159619D01*
X72104285Y-108159619D01*
X72028095Y-108197714D01*
X71990000Y-108235810D01*
X71951904Y-108312000D01*
X71951904Y-108502476D01*
X71990000Y-108616762D01*
X77793809Y-107359619D02*
X77831904Y-107473904D01*
X77831904Y-107664380D01*
X77793809Y-107740571D01*
X77755714Y-107778666D01*
X77679523Y-107816761D01*
X77603333Y-107816761D01*
X77527142Y-107778666D01*
X77489047Y-107740571D01*
X77450952Y-107664380D01*
X77412857Y-107512000D01*
X77374761Y-107435809D01*
X77336666Y-107397714D01*
X77260476Y-107359619D01*
X77184285Y-107359619D01*
X77108095Y-107397714D01*
X77070000Y-107435809D01*
X77031904Y-107512000D01*
X77031904Y-107702476D01*
X77070000Y-107816761D01*
X77755714Y-108616761D02*
X77793809Y-108578666D01*
X77831904Y-108464380D01*
X77831904Y-108388190D01*
X77793809Y-108273904D01*
X77717619Y-108197714D01*
X77641428Y-108159619D01*
X77489047Y-108121523D01*
X77374761Y-108121523D01*
X77222380Y-108159619D01*
X77146190Y-108197714D01*
X77070000Y-108273904D01*
X77031904Y-108388190D01*
X77031904Y-108464380D01*
X77070000Y-108578666D01*
X77108095Y-108616761D01*
X77831904Y-109340571D02*
X77831904Y-108959619D01*
X77031904Y-108959619D01*
X77831904Y-109607238D02*
X77031904Y-109607238D01*
X77831904Y-110064380D02*
X77374761Y-109721523D01*
X77031904Y-110064380D02*
X77489047Y-109607238D01*
X82911904Y-130149618D02*
X82111904Y-130149618D01*
X82111904Y-130340095D01*
X82150000Y-130454380D01*
X82226190Y-130530571D01*
X82302380Y-130568666D01*
X82454761Y-130606761D01*
X82569047Y-130606761D01*
X82721428Y-130568666D01*
X82797619Y-130530571D01*
X82873809Y-130454380D01*
X82911904Y-130340095D01*
X82911904Y-130149618D01*
X82454761Y-131063904D02*
X82416666Y-130987714D01*
X82378571Y-130949618D01*
X82302380Y-130911523D01*
X82264285Y-130911523D01*
X82188095Y-130949618D01*
X82150000Y-130987714D01*
X82111904Y-131063904D01*
X82111904Y-131216285D01*
X82150000Y-131292475D01*
X82188095Y-131330571D01*
X82264285Y-131368666D01*
X82302380Y-131368666D01*
X82378571Y-131330571D01*
X82416666Y-131292475D01*
X82454761Y-131216285D01*
X82454761Y-131063904D01*
X82492857Y-130987714D01*
X82530952Y-130949618D01*
X82607142Y-130911523D01*
X82759523Y-130911523D01*
X82835714Y-130949618D01*
X82873809Y-130987714D01*
X82911904Y-131063904D01*
X82911904Y-131216285D01*
X82873809Y-131292475D01*
X82835714Y-131330571D01*
X82759523Y-131368666D01*
X82607142Y-131368666D01*
X82530952Y-131330571D01*
X82492857Y-131292475D01*
X82454761Y-131216285D01*
X59290000Y-107816762D02*
X59251904Y-107740571D01*
X59251904Y-107626286D01*
X59290000Y-107512000D01*
X59366190Y-107435809D01*
X59442380Y-107397714D01*
X59594761Y-107359619D01*
X59709047Y-107359619D01*
X59861428Y-107397714D01*
X59937619Y-107435809D01*
X60013809Y-107512000D01*
X60051904Y-107626286D01*
X60051904Y-107702476D01*
X60013809Y-107816762D01*
X59975714Y-107854857D01*
X59709047Y-107854857D01*
X59709047Y-107702476D01*
X60051904Y-108197714D02*
X59251904Y-108197714D01*
X60051904Y-108654857D01*
X59251904Y-108654857D01*
X60051904Y-109035809D02*
X59251904Y-109035809D01*
X59251904Y-109226286D01*
X59290000Y-109340571D01*
X59366190Y-109416762D01*
X59442380Y-109454857D01*
X59594761Y-109492952D01*
X59709047Y-109492952D01*
X59861428Y-109454857D01*
X59937619Y-109416762D01*
X60013809Y-109340571D01*
X60051904Y-109226286D01*
X60051904Y-109035809D01*
X89770000Y-129692476D02*
X89731904Y-129616285D01*
X89731904Y-129502000D01*
X89770000Y-129387714D01*
X89846190Y-129311523D01*
X89922380Y-129273428D01*
X90074761Y-129235333D01*
X90189047Y-129235333D01*
X90341428Y-129273428D01*
X90417619Y-129311523D01*
X90493809Y-129387714D01*
X90531904Y-129502000D01*
X90531904Y-129578190D01*
X90493809Y-129692476D01*
X90455714Y-129730571D01*
X90189047Y-129730571D01*
X90189047Y-129578190D01*
X90531904Y-130073428D02*
X89731904Y-130073428D01*
X90531904Y-130530571D01*
X89731904Y-130530571D01*
X90531904Y-130911523D02*
X89731904Y-130911523D01*
X89731904Y-131102000D01*
X89770000Y-131216285D01*
X89846190Y-131292476D01*
X89922380Y-131330571D01*
X90074761Y-131368666D01*
X90189047Y-131368666D01*
X90341428Y-131330571D01*
X90417619Y-131292476D01*
X90493809Y-131216285D01*
X90531904Y-131102000D01*
X90531904Y-130911523D01*
X92271904Y-107283428D02*
X93071904Y-107550095D01*
X92271904Y-107816761D01*
X93071904Y-108083428D02*
X92538571Y-108083428D01*
X92271904Y-108083428D02*
X92310000Y-108045333D01*
X92348095Y-108083428D01*
X92310000Y-108121523D01*
X92271904Y-108083428D01*
X92348095Y-108083428D01*
X92538571Y-108464380D02*
X93071904Y-108464380D01*
X92614761Y-108464380D02*
X92576666Y-108502476D01*
X92538571Y-108578666D01*
X92538571Y-108692952D01*
X92576666Y-108769142D01*
X92652857Y-108807237D01*
X93071904Y-108807237D01*
X65131904Y-130149618D02*
X64331904Y-130149618D01*
X64331904Y-130340095D01*
X64370000Y-130454380D01*
X64446190Y-130530571D01*
X64522380Y-130568666D01*
X64674761Y-130606761D01*
X64789047Y-130606761D01*
X64941428Y-130568666D01*
X65017619Y-130530571D01*
X65093809Y-130454380D01*
X65131904Y-130340095D01*
X65131904Y-130149618D01*
X64331904Y-130873428D02*
X64331904Y-131368666D01*
X64636666Y-131101999D01*
X64636666Y-131216285D01*
X64674761Y-131292475D01*
X64712857Y-131330571D01*
X64789047Y-131368666D01*
X64979523Y-131368666D01*
X65055714Y-131330571D01*
X65093809Y-131292475D01*
X65131904Y-131216285D01*
X65131904Y-130987714D01*
X65093809Y-130911523D01*
X65055714Y-130873428D01*
X57511904Y-130149618D02*
X56711904Y-130149618D01*
X56711904Y-130340095D01*
X56750000Y-130454380D01*
X56826190Y-130530571D01*
X56902380Y-130568666D01*
X57054761Y-130606761D01*
X57169047Y-130606761D01*
X57321428Y-130568666D01*
X57397619Y-130530571D01*
X57473809Y-130454380D01*
X57511904Y-130340095D01*
X57511904Y-130149618D01*
X56711904Y-131101999D02*
X56711904Y-131178190D01*
X56750000Y-131254380D01*
X56788095Y-131292475D01*
X56864285Y-131330571D01*
X57016666Y-131368666D01*
X57207142Y-131368666D01*
X57359523Y-131330571D01*
X57435714Y-131292475D01*
X57473809Y-131254380D01*
X57511904Y-131178190D01*
X57511904Y-131101999D01*
X57473809Y-131025809D01*
X57435714Y-130987714D01*
X57359523Y-130949618D01*
X57207142Y-130911523D01*
X57016666Y-130911523D01*
X56864285Y-130949618D01*
X56788095Y-130987714D01*
X56750000Y-131025809D01*
X56711904Y-131101999D01*
X75291904Y-130149618D02*
X74491904Y-130149618D01*
X74491904Y-130340095D01*
X74530000Y-130454380D01*
X74606190Y-130530571D01*
X74682380Y-130568666D01*
X74834761Y-130606761D01*
X74949047Y-130606761D01*
X75101428Y-130568666D01*
X75177619Y-130530571D01*
X75253809Y-130454380D01*
X75291904Y-130340095D01*
X75291904Y-130149618D01*
X74491904Y-131330571D02*
X74491904Y-130949618D01*
X74872857Y-130911523D01*
X74834761Y-130949618D01*
X74796666Y-131025809D01*
X74796666Y-131216285D01*
X74834761Y-131292475D01*
X74872857Y-131330571D01*
X74949047Y-131368666D01*
X75139523Y-131368666D01*
X75215714Y-131330571D01*
X75253809Y-131292475D01*
X75291904Y-131216285D01*
X75291904Y-131025809D01*
X75253809Y-130949618D01*
X75215714Y-130911523D01*
X92271904Y-130187714D02*
X92271904Y-130682952D01*
X92576666Y-130416285D01*
X92576666Y-130530571D01*
X92614761Y-130606761D01*
X92652857Y-130644857D01*
X92729047Y-130682952D01*
X92919523Y-130682952D01*
X92995714Y-130644857D01*
X93033809Y-130606761D01*
X93071904Y-130530571D01*
X93071904Y-130301999D01*
X93033809Y-130225809D01*
X92995714Y-130187714D01*
X92271904Y-130911523D02*
X93071904Y-131178190D01*
X92271904Y-131444857D01*
X67633809Y-107359618D02*
X67671904Y-107473904D01*
X67671904Y-107664380D01*
X67633809Y-107740571D01*
X67595714Y-107778666D01*
X67519523Y-107816761D01*
X67443333Y-107816761D01*
X67367142Y-107778666D01*
X67329047Y-107740571D01*
X67290952Y-107664380D01*
X67252857Y-107511999D01*
X67214761Y-107435809D01*
X67176666Y-107397714D01*
X67100476Y-107359618D01*
X67024285Y-107359618D01*
X66948095Y-107397714D01*
X66910000Y-107435809D01*
X66871904Y-107511999D01*
X66871904Y-107702475D01*
X66910000Y-107816761D01*
X67633809Y-108121523D02*
X67671904Y-108235809D01*
X67671904Y-108426285D01*
X67633809Y-108502475D01*
X67595714Y-108540571D01*
X67519523Y-108578666D01*
X67443333Y-108578666D01*
X67367142Y-108540571D01*
X67329047Y-108502475D01*
X67290952Y-108426285D01*
X67252857Y-108273904D01*
X67214761Y-108197714D01*
X67176666Y-108159618D01*
X67100476Y-108121523D01*
X67024285Y-108121523D01*
X66948095Y-108159618D01*
X66910000Y-108197714D01*
X66871904Y-108273904D01*
X66871904Y-108464380D01*
X66910000Y-108578666D01*
X67671904Y-108921523D02*
X66871904Y-108921523D01*
X66871904Y-109111999D01*
X66910000Y-109226285D01*
X66986190Y-109302475D01*
X67062380Y-109340571D01*
X67214761Y-109378666D01*
X67329047Y-109378666D01*
X67481428Y-109340571D01*
X67557619Y-109302475D01*
X67633809Y-109226285D01*
X67671904Y-109111999D01*
X67671904Y-108921523D01*
X66948095Y-109683428D02*
X66910000Y-109721523D01*
X66871904Y-109797714D01*
X66871904Y-109988190D01*
X66910000Y-110064380D01*
X66948095Y-110102475D01*
X67024285Y-110140571D01*
X67100476Y-110140571D01*
X67214761Y-110102475D01*
X67671904Y-109645333D01*
X67671904Y-110140571D01*
X85032857Y-107397714D02*
X85032857Y-107664381D01*
X85451904Y-107778667D02*
X85451904Y-107397714D01*
X84651904Y-107397714D01*
X84651904Y-107778667D01*
X85451904Y-108121524D02*
X84651904Y-108121524D01*
X85451904Y-108578667D01*
X84651904Y-108578667D01*
X70211904Y-107397714D02*
X69411904Y-107397714D01*
X69983333Y-107664380D01*
X69411904Y-107931047D01*
X70211904Y-107931047D01*
X69411904Y-108464380D02*
X69411904Y-108616761D01*
X69450000Y-108692952D01*
X69526190Y-108769142D01*
X69678571Y-108807237D01*
X69945238Y-108807237D01*
X70097619Y-108769142D01*
X70173809Y-108692952D01*
X70211904Y-108616761D01*
X70211904Y-108464380D01*
X70173809Y-108388190D01*
X70097619Y-108311999D01*
X69945238Y-108273904D01*
X69678571Y-108273904D01*
X69526190Y-108311999D01*
X69450000Y-108388190D01*
X69411904Y-108464380D01*
X70173809Y-109111999D02*
X70211904Y-109226285D01*
X70211904Y-109416761D01*
X70173809Y-109492952D01*
X70135714Y-109531047D01*
X70059523Y-109569142D01*
X69983333Y-109569142D01*
X69907142Y-109531047D01*
X69869047Y-109492952D01*
X69830952Y-109416761D01*
X69792857Y-109264380D01*
X69754761Y-109188190D01*
X69716666Y-109150095D01*
X69640476Y-109111999D01*
X69564285Y-109111999D01*
X69488095Y-109150095D01*
X69450000Y-109188190D01*
X69411904Y-109264380D01*
X69411904Y-109454857D01*
X69450000Y-109569142D01*
X70211904Y-109911999D02*
X69411904Y-109911999D01*
X80371904Y-130149618D02*
X79571904Y-130149618D01*
X79571904Y-130340095D01*
X79610000Y-130454380D01*
X79686190Y-130530571D01*
X79762380Y-130568666D01*
X79914761Y-130606761D01*
X80029047Y-130606761D01*
X80181428Y-130568666D01*
X80257619Y-130530571D01*
X80333809Y-130454380D01*
X80371904Y-130340095D01*
X80371904Y-130149618D01*
X79571904Y-130873428D02*
X79571904Y-131406761D01*
X80371904Y-131063904D01*
X57283333Y-107359619D02*
X57283333Y-107740571D01*
X57511904Y-107283428D02*
X56711904Y-107550095D01*
X57511904Y-107816762D01*
X56711904Y-108235809D02*
X56711904Y-108312000D01*
X56750000Y-108388190D01*
X56788095Y-108426286D01*
X56864285Y-108464381D01*
X57016666Y-108502476D01*
X57207142Y-108502476D01*
X57359523Y-108464381D01*
X57435714Y-108426286D01*
X57473809Y-108388190D01*
X57511904Y-108312000D01*
X57511904Y-108235809D01*
X57473809Y-108159619D01*
X57435714Y-108121524D01*
X57359523Y-108083428D01*
X57207142Y-108045333D01*
X57016666Y-108045333D01*
X56864285Y-108083428D01*
X56788095Y-108121524D01*
X56750000Y-108159619D01*
X56711904Y-108235809D01*
X51991619Y-119667976D02*
X51944000Y-119715595D01*
X51896380Y-119810833D01*
X51896380Y-120048928D01*
X51944000Y-120144166D01*
X51991619Y-120191785D01*
X52086857Y-120239404D01*
X52182095Y-120239404D01*
X52324952Y-120191785D01*
X52896380Y-119620357D01*
X52896380Y-120239404D01*
X51896380Y-120572738D02*
X51896380Y-121239404D01*
X52896380Y-120810833D01*
X52801142Y-121620357D02*
X52848761Y-121667976D01*
X52896380Y-121620357D01*
X52848761Y-121572738D01*
X52801142Y-121620357D01*
X52896380Y-121620357D01*
X52896380Y-122144166D02*
X52896380Y-122334642D01*
X52848761Y-122429880D01*
X52801142Y-122477500D01*
X52658285Y-122572738D01*
X52467809Y-122620357D01*
X52086857Y-122620357D01*
X51991619Y-122572738D01*
X51944000Y-122525119D01*
X51896380Y-122429880D01*
X51896380Y-122239404D01*
X51944000Y-122144166D01*
X51991619Y-122096547D01*
X52086857Y-122048928D01*
X52324952Y-122048928D01*
X52420190Y-122096547D01*
X52467809Y-122144166D01*
X52515428Y-122239404D01*
X52515428Y-122429880D01*
X52467809Y-122525119D01*
X52420190Y-122572738D01*
X52324952Y-122620357D01*
X52229714Y-123477500D02*
X52896380Y-123477500D01*
X51848761Y-123239404D02*
X52563047Y-123001309D01*
X52563047Y-123620357D01*
X51896380Y-124191785D02*
X51896380Y-124287023D01*
X51944000Y-124382261D01*
X51991619Y-124429880D01*
X52086857Y-124477500D01*
X52277333Y-124525119D01*
X52515428Y-124525119D01*
X52705904Y-124477500D01*
X52801142Y-124429880D01*
X52848761Y-124382261D01*
X52896380Y-124287023D01*
X52896380Y-124191785D01*
X52848761Y-124096547D01*
X52801142Y-124048928D01*
X52705904Y-124001309D01*
X52515428Y-123953690D01*
X52277333Y-123953690D01*
X52086857Y-124001309D01*
X51991619Y-124048928D01*
X51944000Y-124096547D01*
X51896380Y-124191785D01*
X51896380Y-125144166D02*
X51896380Y-125239404D01*
X51944000Y-125334642D01*
X51991619Y-125382261D01*
X52086857Y-125429880D01*
X52277333Y-125477500D01*
X52515428Y-125477500D01*
X52705904Y-125429880D01*
X52801142Y-125382261D01*
X52848761Y-125334642D01*
X52896380Y-125239404D01*
X52896380Y-125144166D01*
X52848761Y-125048928D01*
X52801142Y-125001309D01*
X52705904Y-124953690D01*
X52515428Y-124906071D01*
X52277333Y-124906071D01*
X52086857Y-124953690D01*
X51991619Y-125001309D01*
X51944000Y-125048928D01*
X51896380Y-125144166D01*
X52896380Y-126667976D02*
X52229714Y-126667976D01*
X52324952Y-126667976D02*
X52277333Y-126715595D01*
X52229714Y-126810833D01*
X52229714Y-126953690D01*
X52277333Y-127048928D01*
X52372571Y-127096547D01*
X52896380Y-127096547D01*
X52372571Y-127096547D02*
X52277333Y-127144166D01*
X52229714Y-127239404D01*
X52229714Y-127382261D01*
X52277333Y-127477500D01*
X52372571Y-127525119D01*
X52896380Y-127525119D01*
X52896380Y-128001309D02*
X52229714Y-128001309D01*
X52324952Y-128001309D02*
X52277333Y-128048928D01*
X52229714Y-128144166D01*
X52229714Y-128287023D01*
X52277333Y-128382261D01*
X52372571Y-128429880D01*
X52896380Y-128429880D01*
X52372571Y-128429880D02*
X52277333Y-128477500D01*
X52229714Y-128572738D01*
X52229714Y-128715595D01*
X52277333Y-128810833D01*
X52372571Y-128858452D01*
X52896380Y-128858452D01*
X54110000Y-133350000D02*
X53007580Y-133350000D01*
X54110000Y-105410000D02*
X53007580Y-105410000D01*
X53594000Y-133350000D02*
X53594000Y-105410000D01*
X53594000Y-133350000D02*
X53594000Y-105410000D01*
X53594000Y-133350000D02*
X54180421Y-132223496D01*
X53594000Y-133350000D02*
X53007579Y-132223496D01*
X53594000Y-105410000D02*
X53007579Y-106536504D01*
X53594000Y-105410000D02*
X54180421Y-106536504D01*
%LPC*%
D11*
X57150000Y-105410000D03*
D12*
X59690000Y-105410000D03*
X62230000Y-105410000D03*
X64770000Y-105410000D03*
X67310000Y-105410000D03*
X69850000Y-105410000D03*
X72390000Y-105410000D03*
X74930000Y-105410000D03*
X77470000Y-105410000D03*
X80010000Y-105410000D03*
X82550000Y-105410000D03*
X85090000Y-105410000D03*
X87630000Y-105410000D03*
X90170000Y-105410000D03*
X92710000Y-105410000D03*
D13*
X55626000Y-119326000D03*
D14*
X50546000Y-119326000D03*
X60706000Y-119326000D03*
D15*
X58166000Y-114246000D03*
X51816000Y-116786000D03*
D14*
X100330000Y-119326000D03*
D13*
X95250000Y-119326000D03*
D14*
X90170000Y-119326000D03*
D15*
X97790000Y-114246000D03*
X91440000Y-116786000D03*
D14*
X57155000Y-133350000D03*
D12*
X59695000Y-133350000D03*
X62235000Y-133350000D03*
X64775000Y-133350000D03*
X67315000Y-133350000D03*
X69855000Y-133350000D03*
X72395000Y-133350000D03*
X74935000Y-133350000D03*
X77475000Y-133350000D03*
X80015000Y-133350000D03*
X82555000Y-133350000D03*
X85095000Y-133350000D03*
X87635000Y-133350000D03*
X90175000Y-133350000D03*
X92715000Y-133350000D03*
D14*
X70358000Y-119326000D03*
X80518000Y-119326000D03*
D13*
X75438000Y-119326000D03*
D15*
X77978000Y-114246000D03*
X71628000Y-116786000D03*
M02*
