%TF.GenerationSoftware,KiCad,Pcbnew,(6.0.4-0)*%
%TF.CreationDate,2022-04-04T21:56:53+02:00*%
%TF.ProjectId,smart-button,736d6172-742d-4627-9574-746f6e2e6b69,rev?*%
%TF.SameCoordinates,Original*%
%TF.FileFunction,Copper,L1,Top*%
%TF.FilePolarity,Positive*%
%FSLAX46Y46*%
G04 Gerber Fmt 4.6, Leading zero omitted, Abs format (unit mm)*
G04 Created by KiCad (PCBNEW (6.0.4-0)) date 2022-04-04 21:56:53*
%MOMM*%
%LPD*%
G01*
G04 APERTURE LIST*
%TA.AperFunction,ComponentPad*%
%ADD10R,1.700000X1.700000*%
%TD*%
%TA.AperFunction,ComponentPad*%
%ADD11O,1.700000X1.700000*%
%TD*%
%TA.AperFunction,ComponentPad*%
%ADD12C,2.200000*%
%TD*%
%TA.AperFunction,ComponentPad*%
%ADD13C,1.700000*%
%TD*%
G04 APERTURE END LIST*
D10*
X57150000Y-105410000D03*
D11*
X59690000Y-105410000D03*
X62230000Y-105410000D03*
X64770000Y-105410000D03*
X67310000Y-105410000D03*
X69850000Y-105410000D03*
X72390000Y-105410000D03*
X74930000Y-105410000D03*
X77470000Y-105410000D03*
X80010000Y-105410000D03*
X82550000Y-105410000D03*
X85090000Y-105410000D03*
X87630000Y-105410000D03*
X90170000Y-105410000D03*
X92710000Y-105410000D03*
D12*
X58166000Y-114246000D03*
X51816000Y-116786000D03*
X97790000Y-114246000D03*
X91440000Y-116786000D03*
D13*
X57155000Y-133350000D03*
D11*
X59695000Y-133350000D03*
X62235000Y-133350000D03*
X64775000Y-133350000D03*
X67315000Y-133350000D03*
X69855000Y-133350000D03*
X72395000Y-133350000D03*
X74935000Y-133350000D03*
X77475000Y-133350000D03*
X80015000Y-133350000D03*
X82555000Y-133350000D03*
X85095000Y-133350000D03*
X87635000Y-133350000D03*
X90175000Y-133350000D03*
X92715000Y-133350000D03*
D12*
X77978000Y-114246000D03*
X71628000Y-116786000D03*
%TA.AperFunction,Conductor*%
G36*
X104142018Y-103380000D02*
G01*
X104156851Y-103382310D01*
X104156855Y-103382310D01*
X104165724Y-103383691D01*
X104174626Y-103382527D01*
X104174629Y-103382527D01*
X104182012Y-103381561D01*
X104206591Y-103380767D01*
X104231062Y-103382371D01*
X104428922Y-103395340D01*
X104445262Y-103397491D01*
X104567477Y-103421801D01*
X104689696Y-103446112D01*
X104705606Y-103450375D01*
X104941600Y-103530484D01*
X104956826Y-103536791D01*
X105180342Y-103647016D01*
X105194616Y-103655257D01*
X105401829Y-103793713D01*
X105414905Y-103803746D01*
X105602278Y-103968068D01*
X105613932Y-103979722D01*
X105778254Y-104167095D01*
X105788287Y-104180171D01*
X105926743Y-104387384D01*
X105934984Y-104401658D01*
X106045209Y-104625174D01*
X106051515Y-104640398D01*
X106131625Y-104876394D01*
X106135889Y-104892307D01*
X106184509Y-105136738D01*
X106186660Y-105153078D01*
X106200763Y-105368236D01*
X106199733Y-105391350D01*
X106199690Y-105394853D01*
X106198309Y-105403724D01*
X106202390Y-105434931D01*
X106203453Y-105451396D01*
X106184884Y-121664182D01*
X106171557Y-133300411D01*
X106170057Y-133319652D01*
X106167690Y-133334851D01*
X106167690Y-133334855D01*
X106166309Y-133343724D01*
X106167570Y-133353365D01*
X106168451Y-133360102D01*
X106169250Y-133384616D01*
X106154929Y-133604889D01*
X106152812Y-133621100D01*
X106104963Y-133863660D01*
X106100765Y-133879460D01*
X106021912Y-134113785D01*
X106015703Y-134128909D01*
X106002913Y-134155088D01*
X105918808Y-134327240D01*
X105907179Y-134351042D01*
X105899066Y-134365233D01*
X105830554Y-134468831D01*
X105762685Y-134571457D01*
X105752802Y-134584478D01*
X105725106Y-134616433D01*
X105590869Y-134771306D01*
X105579382Y-134782939D01*
X105394628Y-134947222D01*
X105381732Y-134957270D01*
X105177259Y-135096250D01*
X105163170Y-135104544D01*
X104942424Y-135215879D01*
X104927380Y-135222279D01*
X104694075Y-135304096D01*
X104678328Y-135308494D01*
X104436391Y-135359414D01*
X104420208Y-135361736D01*
X104207289Y-135378291D01*
X104183803Y-135377538D01*
X104180652Y-135377540D01*
X104171764Y-135376271D01*
X104145810Y-135380000D01*
X104144286Y-135380219D01*
X104126367Y-135381500D01*
X47023367Y-135381500D01*
X47003982Y-135380000D01*
X46989149Y-135377690D01*
X46989145Y-135377690D01*
X46980276Y-135376309D01*
X46971374Y-135377473D01*
X46971371Y-135377473D01*
X46963988Y-135378439D01*
X46939409Y-135379233D01*
X46894799Y-135376309D01*
X46717078Y-135364660D01*
X46700738Y-135362509D01*
X46578523Y-135338199D01*
X46456304Y-135313888D01*
X46440394Y-135309625D01*
X46204398Y-135229515D01*
X46189174Y-135223209D01*
X45965658Y-135112984D01*
X45951384Y-135104743D01*
X45744171Y-134966287D01*
X45731095Y-134956254D01*
X45543722Y-134791932D01*
X45532068Y-134780278D01*
X45367746Y-134592905D01*
X45357713Y-134579829D01*
X45219257Y-134372616D01*
X45211016Y-134358342D01*
X45100791Y-134134826D01*
X45094484Y-134119600D01*
X45071886Y-134053028D01*
X45014375Y-133883606D01*
X45010111Y-133867693D01*
X45005967Y-133846857D01*
X44961491Y-133623262D01*
X44959340Y-133606922D01*
X44945476Y-133395407D01*
X44946650Y-133372232D01*
X44946334Y-133372204D01*
X44946770Y-133367344D01*
X44947576Y-133362552D01*
X44947729Y-133350000D01*
X44947040Y-133345189D01*
X44947039Y-133345173D01*
X44943799Y-133322552D01*
X44943383Y-133316695D01*
X55792251Y-133316695D01*
X55792548Y-133321848D01*
X55792548Y-133321851D01*
X55798011Y-133416590D01*
X55805110Y-133539715D01*
X55806247Y-133544761D01*
X55806248Y-133544767D01*
X55819798Y-133604889D01*
X55854222Y-133757639D01*
X55938266Y-133964616D01*
X55989019Y-134047438D01*
X56052291Y-134150688D01*
X56054987Y-134155088D01*
X56201250Y-134323938D01*
X56373126Y-134466632D01*
X56566000Y-134579338D01*
X56570825Y-134581180D01*
X56570826Y-134581181D01*
X56585276Y-134586699D01*
X56774692Y-134659030D01*
X56779760Y-134660061D01*
X56779763Y-134660062D01*
X56874862Y-134679410D01*
X56993597Y-134703567D01*
X56998772Y-134703757D01*
X56998774Y-134703757D01*
X57211673Y-134711564D01*
X57211677Y-134711564D01*
X57216837Y-134711753D01*
X57221957Y-134711097D01*
X57221959Y-134711097D01*
X57433288Y-134684025D01*
X57433289Y-134684025D01*
X57438416Y-134683368D01*
X57443366Y-134681883D01*
X57647429Y-134620661D01*
X57647434Y-134620659D01*
X57652384Y-134619174D01*
X57852994Y-134520896D01*
X58034860Y-134391173D01*
X58075132Y-134351042D01*
X58116209Y-134310107D01*
X58193096Y-134233489D01*
X58252594Y-134150689D01*
X58323453Y-134052077D01*
X58324776Y-134053028D01*
X58371645Y-134009857D01*
X58441580Y-133997625D01*
X58507026Y-134025144D01*
X58534875Y-134056994D01*
X58594987Y-134155088D01*
X58741250Y-134323938D01*
X58913126Y-134466632D01*
X59106000Y-134579338D01*
X59110825Y-134581180D01*
X59110826Y-134581181D01*
X59125276Y-134586699D01*
X59314692Y-134659030D01*
X59319760Y-134660061D01*
X59319763Y-134660062D01*
X59414862Y-134679410D01*
X59533597Y-134703567D01*
X59538772Y-134703757D01*
X59538774Y-134703757D01*
X59751673Y-134711564D01*
X59751677Y-134711564D01*
X59756837Y-134711753D01*
X59761957Y-134711097D01*
X59761959Y-134711097D01*
X59973288Y-134684025D01*
X59973289Y-134684025D01*
X59978416Y-134683368D01*
X59983366Y-134681883D01*
X60187429Y-134620661D01*
X60187434Y-134620659D01*
X60192384Y-134619174D01*
X60392994Y-134520896D01*
X60574860Y-134391173D01*
X60615132Y-134351042D01*
X60656209Y-134310107D01*
X60733096Y-134233489D01*
X60792594Y-134150689D01*
X60863453Y-134052077D01*
X60864776Y-134053028D01*
X60911645Y-134009857D01*
X60981580Y-133997625D01*
X61047026Y-134025144D01*
X61074875Y-134056994D01*
X61134987Y-134155088D01*
X61281250Y-134323938D01*
X61453126Y-134466632D01*
X61646000Y-134579338D01*
X61650825Y-134581180D01*
X61650826Y-134581181D01*
X61665276Y-134586699D01*
X61854692Y-134659030D01*
X61859760Y-134660061D01*
X61859763Y-134660062D01*
X61954862Y-134679410D01*
X62073597Y-134703567D01*
X62078772Y-134703757D01*
X62078774Y-134703757D01*
X62291673Y-134711564D01*
X62291677Y-134711564D01*
X62296837Y-134711753D01*
X62301957Y-134711097D01*
X62301959Y-134711097D01*
X62513288Y-134684025D01*
X62513289Y-134684025D01*
X62518416Y-134683368D01*
X62523366Y-134681883D01*
X62727429Y-134620661D01*
X62727434Y-134620659D01*
X62732384Y-134619174D01*
X62932994Y-134520896D01*
X63114860Y-134391173D01*
X63155132Y-134351042D01*
X63196209Y-134310107D01*
X63273096Y-134233489D01*
X63332594Y-134150689D01*
X63403453Y-134052077D01*
X63404776Y-134053028D01*
X63451645Y-134009857D01*
X63521580Y-133997625D01*
X63587026Y-134025144D01*
X63614875Y-134056994D01*
X63674987Y-134155088D01*
X63821250Y-134323938D01*
X63993126Y-134466632D01*
X64186000Y-134579338D01*
X64190825Y-134581180D01*
X64190826Y-134581181D01*
X64205276Y-134586699D01*
X64394692Y-134659030D01*
X64399760Y-134660061D01*
X64399763Y-134660062D01*
X64494862Y-134679410D01*
X64613597Y-134703567D01*
X64618772Y-134703757D01*
X64618774Y-134703757D01*
X64831673Y-134711564D01*
X64831677Y-134711564D01*
X64836837Y-134711753D01*
X64841957Y-134711097D01*
X64841959Y-134711097D01*
X65053288Y-134684025D01*
X65053289Y-134684025D01*
X65058416Y-134683368D01*
X65063366Y-134681883D01*
X65267429Y-134620661D01*
X65267434Y-134620659D01*
X65272384Y-134619174D01*
X65472994Y-134520896D01*
X65654860Y-134391173D01*
X65695132Y-134351042D01*
X65736209Y-134310107D01*
X65813096Y-134233489D01*
X65872594Y-134150689D01*
X65943453Y-134052077D01*
X65944776Y-134053028D01*
X65991645Y-134009857D01*
X66061580Y-133997625D01*
X66127026Y-134025144D01*
X66154875Y-134056994D01*
X66214987Y-134155088D01*
X66361250Y-134323938D01*
X66533126Y-134466632D01*
X66726000Y-134579338D01*
X66730825Y-134581180D01*
X66730826Y-134581181D01*
X66745276Y-134586699D01*
X66934692Y-134659030D01*
X66939760Y-134660061D01*
X66939763Y-134660062D01*
X67034862Y-134679410D01*
X67153597Y-134703567D01*
X67158772Y-134703757D01*
X67158774Y-134703757D01*
X67371673Y-134711564D01*
X67371677Y-134711564D01*
X67376837Y-134711753D01*
X67381957Y-134711097D01*
X67381959Y-134711097D01*
X67593288Y-134684025D01*
X67593289Y-134684025D01*
X67598416Y-134683368D01*
X67603366Y-134681883D01*
X67807429Y-134620661D01*
X67807434Y-134620659D01*
X67812384Y-134619174D01*
X68012994Y-134520896D01*
X68194860Y-134391173D01*
X68235132Y-134351042D01*
X68276209Y-134310107D01*
X68353096Y-134233489D01*
X68412594Y-134150689D01*
X68483453Y-134052077D01*
X68484776Y-134053028D01*
X68531645Y-134009857D01*
X68601580Y-133997625D01*
X68667026Y-134025144D01*
X68694875Y-134056994D01*
X68754987Y-134155088D01*
X68901250Y-134323938D01*
X69073126Y-134466632D01*
X69266000Y-134579338D01*
X69270825Y-134581180D01*
X69270826Y-134581181D01*
X69285276Y-134586699D01*
X69474692Y-134659030D01*
X69479760Y-134660061D01*
X69479763Y-134660062D01*
X69574862Y-134679410D01*
X69693597Y-134703567D01*
X69698772Y-134703757D01*
X69698774Y-134703757D01*
X69911673Y-134711564D01*
X69911677Y-134711564D01*
X69916837Y-134711753D01*
X69921957Y-134711097D01*
X69921959Y-134711097D01*
X70133288Y-134684025D01*
X70133289Y-134684025D01*
X70138416Y-134683368D01*
X70143366Y-134681883D01*
X70347429Y-134620661D01*
X70347434Y-134620659D01*
X70352384Y-134619174D01*
X70552994Y-134520896D01*
X70734860Y-134391173D01*
X70775132Y-134351042D01*
X70816209Y-134310107D01*
X70893096Y-134233489D01*
X70952594Y-134150689D01*
X71023453Y-134052077D01*
X71024640Y-134052930D01*
X71071960Y-134009362D01*
X71141897Y-133997145D01*
X71207338Y-134024678D01*
X71235166Y-134056511D01*
X71292694Y-134150388D01*
X71298777Y-134158699D01*
X71438213Y-134319667D01*
X71445580Y-134326883D01*
X71609434Y-134462916D01*
X71617881Y-134468831D01*
X71801756Y-134576279D01*
X71811042Y-134580729D01*
X72010001Y-134656703D01*
X72019899Y-134659579D01*
X72123250Y-134680606D01*
X72137299Y-134679410D01*
X72141000Y-134669065D01*
X72141000Y-134668517D01*
X72649000Y-134668517D01*
X72653064Y-134682359D01*
X72666478Y-134684393D01*
X72673184Y-134683534D01*
X72683262Y-134681392D01*
X72887255Y-134620191D01*
X72896842Y-134616433D01*
X73088095Y-134522739D01*
X73096945Y-134517464D01*
X73270328Y-134393792D01*
X73278200Y-134387139D01*
X73429052Y-134236812D01*
X73435730Y-134228965D01*
X73563022Y-134051819D01*
X73564279Y-134052722D01*
X73611373Y-134009362D01*
X73681311Y-133997145D01*
X73746751Y-134024678D01*
X73774579Y-134056511D01*
X73834987Y-134155088D01*
X73981250Y-134323938D01*
X74153126Y-134466632D01*
X74346000Y-134579338D01*
X74350825Y-134581180D01*
X74350826Y-134581181D01*
X74365276Y-134586699D01*
X74554692Y-134659030D01*
X74559760Y-134660061D01*
X74559763Y-134660062D01*
X74654862Y-134679410D01*
X74773597Y-134703567D01*
X74778772Y-134703757D01*
X74778774Y-134703757D01*
X74991673Y-134711564D01*
X74991677Y-134711564D01*
X74996837Y-134711753D01*
X75001957Y-134711097D01*
X75001959Y-134711097D01*
X75213288Y-134684025D01*
X75213289Y-134684025D01*
X75218416Y-134683368D01*
X75223366Y-134681883D01*
X75427429Y-134620661D01*
X75427434Y-134620659D01*
X75432384Y-134619174D01*
X75632994Y-134520896D01*
X75814860Y-134391173D01*
X75855132Y-134351042D01*
X75896209Y-134310107D01*
X75973096Y-134233489D01*
X76032594Y-134150689D01*
X76103453Y-134052077D01*
X76104776Y-134053028D01*
X76151645Y-134009857D01*
X76221580Y-133997625D01*
X76287026Y-134025144D01*
X76314875Y-134056994D01*
X76374987Y-134155088D01*
X76521250Y-134323938D01*
X76693126Y-134466632D01*
X76886000Y-134579338D01*
X76890825Y-134581180D01*
X76890826Y-134581181D01*
X76905276Y-134586699D01*
X77094692Y-134659030D01*
X77099760Y-134660061D01*
X77099763Y-134660062D01*
X77194862Y-134679410D01*
X77313597Y-134703567D01*
X77318772Y-134703757D01*
X77318774Y-134703757D01*
X77531673Y-134711564D01*
X77531677Y-134711564D01*
X77536837Y-134711753D01*
X77541957Y-134711097D01*
X77541959Y-134711097D01*
X77753288Y-134684025D01*
X77753289Y-134684025D01*
X77758416Y-134683368D01*
X77763366Y-134681883D01*
X77967429Y-134620661D01*
X77967434Y-134620659D01*
X77972384Y-134619174D01*
X78172994Y-134520896D01*
X78354860Y-134391173D01*
X78395132Y-134351042D01*
X78436209Y-134310107D01*
X78513096Y-134233489D01*
X78572594Y-134150689D01*
X78643453Y-134052077D01*
X78644776Y-134053028D01*
X78691645Y-134009857D01*
X78761580Y-133997625D01*
X78827026Y-134025144D01*
X78854875Y-134056994D01*
X78914987Y-134155088D01*
X79061250Y-134323938D01*
X79233126Y-134466632D01*
X79426000Y-134579338D01*
X79430825Y-134581180D01*
X79430826Y-134581181D01*
X79445276Y-134586699D01*
X79634692Y-134659030D01*
X79639760Y-134660061D01*
X79639763Y-134660062D01*
X79734862Y-134679410D01*
X79853597Y-134703567D01*
X79858772Y-134703757D01*
X79858774Y-134703757D01*
X80071673Y-134711564D01*
X80071677Y-134711564D01*
X80076837Y-134711753D01*
X80081957Y-134711097D01*
X80081959Y-134711097D01*
X80293288Y-134684025D01*
X80293289Y-134684025D01*
X80298416Y-134683368D01*
X80303366Y-134681883D01*
X80507429Y-134620661D01*
X80507434Y-134620659D01*
X80512384Y-134619174D01*
X80712994Y-134520896D01*
X80894860Y-134391173D01*
X80935132Y-134351042D01*
X80976209Y-134310107D01*
X81053096Y-134233489D01*
X81112594Y-134150689D01*
X81183453Y-134052077D01*
X81184776Y-134053028D01*
X81231645Y-134009857D01*
X81301580Y-133997625D01*
X81367026Y-134025144D01*
X81394875Y-134056994D01*
X81454987Y-134155088D01*
X81601250Y-134323938D01*
X81773126Y-134466632D01*
X81966000Y-134579338D01*
X81970825Y-134581180D01*
X81970826Y-134581181D01*
X81985276Y-134586699D01*
X82174692Y-134659030D01*
X82179760Y-134660061D01*
X82179763Y-134660062D01*
X82274862Y-134679410D01*
X82393597Y-134703567D01*
X82398772Y-134703757D01*
X82398774Y-134703757D01*
X82611673Y-134711564D01*
X82611677Y-134711564D01*
X82616837Y-134711753D01*
X82621957Y-134711097D01*
X82621959Y-134711097D01*
X82833288Y-134684025D01*
X82833289Y-134684025D01*
X82838416Y-134683368D01*
X82843366Y-134681883D01*
X83047429Y-134620661D01*
X83047434Y-134620659D01*
X83052384Y-134619174D01*
X83252994Y-134520896D01*
X83434860Y-134391173D01*
X83475132Y-134351042D01*
X83516209Y-134310107D01*
X83593096Y-134233489D01*
X83652594Y-134150689D01*
X83723453Y-134052077D01*
X83724776Y-134053028D01*
X83771645Y-134009857D01*
X83841580Y-133997625D01*
X83907026Y-134025144D01*
X83934875Y-134056994D01*
X83994987Y-134155088D01*
X84141250Y-134323938D01*
X84313126Y-134466632D01*
X84506000Y-134579338D01*
X84510825Y-134581180D01*
X84510826Y-134581181D01*
X84525276Y-134586699D01*
X84714692Y-134659030D01*
X84719760Y-134660061D01*
X84719763Y-134660062D01*
X84814862Y-134679410D01*
X84933597Y-134703567D01*
X84938772Y-134703757D01*
X84938774Y-134703757D01*
X85151673Y-134711564D01*
X85151677Y-134711564D01*
X85156837Y-134711753D01*
X85161957Y-134711097D01*
X85161959Y-134711097D01*
X85373288Y-134684025D01*
X85373289Y-134684025D01*
X85378416Y-134683368D01*
X85383366Y-134681883D01*
X85587429Y-134620661D01*
X85587434Y-134620659D01*
X85592384Y-134619174D01*
X85792994Y-134520896D01*
X85974860Y-134391173D01*
X86015132Y-134351042D01*
X86056209Y-134310107D01*
X86133096Y-134233489D01*
X86192594Y-134150689D01*
X86263453Y-134052077D01*
X86264776Y-134053028D01*
X86311645Y-134009857D01*
X86381580Y-133997625D01*
X86447026Y-134025144D01*
X86474875Y-134056994D01*
X86534987Y-134155088D01*
X86681250Y-134323938D01*
X86853126Y-134466632D01*
X87046000Y-134579338D01*
X87050825Y-134581180D01*
X87050826Y-134581181D01*
X87065276Y-134586699D01*
X87254692Y-134659030D01*
X87259760Y-134660061D01*
X87259763Y-134660062D01*
X87354862Y-134679410D01*
X87473597Y-134703567D01*
X87478772Y-134703757D01*
X87478774Y-134703757D01*
X87691673Y-134711564D01*
X87691677Y-134711564D01*
X87696837Y-134711753D01*
X87701957Y-134711097D01*
X87701959Y-134711097D01*
X87913288Y-134684025D01*
X87913289Y-134684025D01*
X87918416Y-134683368D01*
X87923366Y-134681883D01*
X88127429Y-134620661D01*
X88127434Y-134620659D01*
X88132384Y-134619174D01*
X88332994Y-134520896D01*
X88514860Y-134391173D01*
X88555132Y-134351042D01*
X88596209Y-134310107D01*
X88673096Y-134233489D01*
X88732594Y-134150689D01*
X88803453Y-134052077D01*
X88804640Y-134052930D01*
X88851960Y-134009362D01*
X88921897Y-133997145D01*
X88987338Y-134024678D01*
X89015166Y-134056511D01*
X89072694Y-134150388D01*
X89078777Y-134158699D01*
X89218213Y-134319667D01*
X89225580Y-134326883D01*
X89389434Y-134462916D01*
X89397881Y-134468831D01*
X89581756Y-134576279D01*
X89591042Y-134580729D01*
X89790001Y-134656703D01*
X89799899Y-134659579D01*
X89903250Y-134680606D01*
X89917299Y-134679410D01*
X89921000Y-134669065D01*
X89921000Y-134668517D01*
X90429000Y-134668517D01*
X90433064Y-134682359D01*
X90446478Y-134684393D01*
X90453184Y-134683534D01*
X90463262Y-134681392D01*
X90667255Y-134620191D01*
X90676842Y-134616433D01*
X90868095Y-134522739D01*
X90876945Y-134517464D01*
X91050328Y-134393792D01*
X91058200Y-134387139D01*
X91209052Y-134236812D01*
X91215730Y-134228965D01*
X91343022Y-134051819D01*
X91344279Y-134052722D01*
X91391373Y-134009362D01*
X91461311Y-133997145D01*
X91526751Y-134024678D01*
X91554579Y-134056511D01*
X91614987Y-134155088D01*
X91761250Y-134323938D01*
X91933126Y-134466632D01*
X92126000Y-134579338D01*
X92130825Y-134581180D01*
X92130826Y-134581181D01*
X92145276Y-134586699D01*
X92334692Y-134659030D01*
X92339760Y-134660061D01*
X92339763Y-134660062D01*
X92434862Y-134679410D01*
X92553597Y-134703567D01*
X92558772Y-134703757D01*
X92558774Y-134703757D01*
X92771673Y-134711564D01*
X92771677Y-134711564D01*
X92776837Y-134711753D01*
X92781957Y-134711097D01*
X92781959Y-134711097D01*
X92993288Y-134684025D01*
X92993289Y-134684025D01*
X92998416Y-134683368D01*
X93003366Y-134681883D01*
X93207429Y-134620661D01*
X93207434Y-134620659D01*
X93212384Y-134619174D01*
X93412994Y-134520896D01*
X93594860Y-134391173D01*
X93635132Y-134351042D01*
X93676209Y-134310107D01*
X93753096Y-134233489D01*
X93812594Y-134150689D01*
X93880435Y-134056277D01*
X93883453Y-134052077D01*
X93896995Y-134024678D01*
X93980136Y-133856453D01*
X93980137Y-133856451D01*
X93982430Y-133851811D01*
X94014900Y-133744940D01*
X94045865Y-133643023D01*
X94045865Y-133643021D01*
X94047370Y-133638069D01*
X94076529Y-133416590D01*
X94077613Y-133372232D01*
X94078074Y-133353365D01*
X94078074Y-133353361D01*
X94078156Y-133350000D01*
X94059852Y-133127361D01*
X94005431Y-132910702D01*
X93916354Y-132705840D01*
X93795014Y-132518277D01*
X93644670Y-132353051D01*
X93640619Y-132349852D01*
X93640615Y-132349848D01*
X93473414Y-132217800D01*
X93473410Y-132217798D01*
X93469359Y-132214598D01*
X93433028Y-132194542D01*
X93417136Y-132185769D01*
X93273789Y-132106638D01*
X93268920Y-132104914D01*
X93268916Y-132104912D01*
X93068087Y-132033795D01*
X93068083Y-132033794D01*
X93063212Y-132032069D01*
X93058119Y-132031162D01*
X93058116Y-132031161D01*
X92848373Y-131993800D01*
X92848367Y-131993799D01*
X92843284Y-131992894D01*
X92769452Y-131991992D01*
X92625081Y-131990228D01*
X92625079Y-131990228D01*
X92619911Y-131990165D01*
X92399091Y-132023955D01*
X92186756Y-132093357D01*
X91988607Y-132196507D01*
X91984474Y-132199610D01*
X91984471Y-132199612D01*
X91960247Y-132217800D01*
X91809965Y-132330635D01*
X91655629Y-132492138D01*
X91548204Y-132649618D01*
X91547898Y-132650066D01*
X91492987Y-132695069D01*
X91422462Y-132703240D01*
X91358715Y-132671986D01*
X91338018Y-132647502D01*
X91257426Y-132522926D01*
X91251136Y-132514757D01*
X91107806Y-132357240D01*
X91100273Y-132350215D01*
X90933139Y-132218222D01*
X90924552Y-132212517D01*
X90738117Y-132109599D01*
X90728705Y-132105369D01*
X90527959Y-132034280D01*
X90517988Y-132031646D01*
X90446837Y-132018972D01*
X90433540Y-132020432D01*
X90429000Y-132034989D01*
X90429000Y-134668517D01*
X89921000Y-134668517D01*
X89921000Y-132033102D01*
X89917082Y-132019758D01*
X89902806Y-132017771D01*
X89864324Y-132023660D01*
X89854288Y-132026051D01*
X89651868Y-132092212D01*
X89642359Y-132096209D01*
X89453463Y-132194542D01*
X89444738Y-132200036D01*
X89274433Y-132327905D01*
X89266726Y-132334748D01*
X89119590Y-132488717D01*
X89113109Y-132496722D01*
X89008498Y-132650074D01*
X88953587Y-132695076D01*
X88883062Y-132703247D01*
X88819315Y-132671993D01*
X88798618Y-132647509D01*
X88717822Y-132522617D01*
X88717820Y-132522614D01*
X88715014Y-132518277D01*
X88564670Y-132353051D01*
X88560619Y-132349852D01*
X88560615Y-132349848D01*
X88393414Y-132217800D01*
X88393410Y-132217798D01*
X88389359Y-132214598D01*
X88353028Y-132194542D01*
X88337136Y-132185769D01*
X88193789Y-132106638D01*
X88188920Y-132104914D01*
X88188916Y-132104912D01*
X87988087Y-132033795D01*
X87988083Y-132033794D01*
X87983212Y-132032069D01*
X87978119Y-132031162D01*
X87978116Y-132031161D01*
X87768373Y-131993800D01*
X87768367Y-131993799D01*
X87763284Y-131992894D01*
X87689452Y-131991992D01*
X87545081Y-131990228D01*
X87545079Y-131990228D01*
X87539911Y-131990165D01*
X87319091Y-132023955D01*
X87106756Y-132093357D01*
X86908607Y-132196507D01*
X86904474Y-132199610D01*
X86904471Y-132199612D01*
X86880247Y-132217800D01*
X86729965Y-132330635D01*
X86575629Y-132492138D01*
X86468201Y-132649621D01*
X86413293Y-132694621D01*
X86342768Y-132702792D01*
X86279021Y-132671538D01*
X86258324Y-132647054D01*
X86177822Y-132522617D01*
X86177820Y-132522614D01*
X86175014Y-132518277D01*
X86024670Y-132353051D01*
X86020619Y-132349852D01*
X86020615Y-132349848D01*
X85853414Y-132217800D01*
X85853410Y-132217798D01*
X85849359Y-132214598D01*
X85813028Y-132194542D01*
X85797136Y-132185769D01*
X85653789Y-132106638D01*
X85648920Y-132104914D01*
X85648916Y-132104912D01*
X85448087Y-132033795D01*
X85448083Y-132033794D01*
X85443212Y-132032069D01*
X85438119Y-132031162D01*
X85438116Y-132031161D01*
X85228373Y-131993800D01*
X85228367Y-131993799D01*
X85223284Y-131992894D01*
X85149452Y-131991992D01*
X85005081Y-131990228D01*
X85005079Y-131990228D01*
X84999911Y-131990165D01*
X84779091Y-132023955D01*
X84566756Y-132093357D01*
X84368607Y-132196507D01*
X84364474Y-132199610D01*
X84364471Y-132199612D01*
X84340247Y-132217800D01*
X84189965Y-132330635D01*
X84035629Y-132492138D01*
X83928201Y-132649621D01*
X83873293Y-132694621D01*
X83802768Y-132702792D01*
X83739021Y-132671538D01*
X83718324Y-132647054D01*
X83637822Y-132522617D01*
X83637820Y-132522614D01*
X83635014Y-132518277D01*
X83484670Y-132353051D01*
X83480619Y-132349852D01*
X83480615Y-132349848D01*
X83313414Y-132217800D01*
X83313410Y-132217798D01*
X83309359Y-132214598D01*
X83273028Y-132194542D01*
X83257136Y-132185769D01*
X83113789Y-132106638D01*
X83108920Y-132104914D01*
X83108916Y-132104912D01*
X82908087Y-132033795D01*
X82908083Y-132033794D01*
X82903212Y-132032069D01*
X82898119Y-132031162D01*
X82898116Y-132031161D01*
X82688373Y-131993800D01*
X82688367Y-131993799D01*
X82683284Y-131992894D01*
X82609452Y-131991992D01*
X82465081Y-131990228D01*
X82465079Y-131990228D01*
X82459911Y-131990165D01*
X82239091Y-132023955D01*
X82026756Y-132093357D01*
X81828607Y-132196507D01*
X81824474Y-132199610D01*
X81824471Y-132199612D01*
X81800247Y-132217800D01*
X81649965Y-132330635D01*
X81495629Y-132492138D01*
X81388201Y-132649621D01*
X81333293Y-132694621D01*
X81262768Y-132702792D01*
X81199021Y-132671538D01*
X81178324Y-132647054D01*
X81097822Y-132522617D01*
X81097820Y-132522614D01*
X81095014Y-132518277D01*
X80944670Y-132353051D01*
X80940619Y-132349852D01*
X80940615Y-132349848D01*
X80773414Y-132217800D01*
X80773410Y-132217798D01*
X80769359Y-132214598D01*
X80733028Y-132194542D01*
X80717136Y-132185769D01*
X80573789Y-132106638D01*
X80568920Y-132104914D01*
X80568916Y-132104912D01*
X80368087Y-132033795D01*
X80368083Y-132033794D01*
X80363212Y-132032069D01*
X80358119Y-132031162D01*
X80358116Y-132031161D01*
X80148373Y-131993800D01*
X80148367Y-131993799D01*
X80143284Y-131992894D01*
X80069452Y-131991992D01*
X79925081Y-131990228D01*
X79925079Y-131990228D01*
X79919911Y-131990165D01*
X79699091Y-132023955D01*
X79486756Y-132093357D01*
X79288607Y-132196507D01*
X79284474Y-132199610D01*
X79284471Y-132199612D01*
X79260247Y-132217800D01*
X79109965Y-132330635D01*
X78955629Y-132492138D01*
X78848201Y-132649621D01*
X78793293Y-132694621D01*
X78722768Y-132702792D01*
X78659021Y-132671538D01*
X78638324Y-132647054D01*
X78557822Y-132522617D01*
X78557820Y-132522614D01*
X78555014Y-132518277D01*
X78404670Y-132353051D01*
X78400619Y-132349852D01*
X78400615Y-132349848D01*
X78233414Y-132217800D01*
X78233410Y-132217798D01*
X78229359Y-132214598D01*
X78193028Y-132194542D01*
X78177136Y-132185769D01*
X78033789Y-132106638D01*
X78028920Y-132104914D01*
X78028916Y-132104912D01*
X77828087Y-132033795D01*
X77828083Y-132033794D01*
X77823212Y-132032069D01*
X77818119Y-132031162D01*
X77818116Y-132031161D01*
X77608373Y-131993800D01*
X77608367Y-131993799D01*
X77603284Y-131992894D01*
X77529452Y-131991992D01*
X77385081Y-131990228D01*
X77385079Y-131990228D01*
X77379911Y-131990165D01*
X77159091Y-132023955D01*
X76946756Y-132093357D01*
X76748607Y-132196507D01*
X76744474Y-132199610D01*
X76744471Y-132199612D01*
X76720247Y-132217800D01*
X76569965Y-132330635D01*
X76415629Y-132492138D01*
X76308201Y-132649621D01*
X76253293Y-132694621D01*
X76182768Y-132702792D01*
X76119021Y-132671538D01*
X76098324Y-132647054D01*
X76017822Y-132522617D01*
X76017820Y-132522614D01*
X76015014Y-132518277D01*
X75864670Y-132353051D01*
X75860619Y-132349852D01*
X75860615Y-132349848D01*
X75693414Y-132217800D01*
X75693410Y-132217798D01*
X75689359Y-132214598D01*
X75653028Y-132194542D01*
X75637136Y-132185769D01*
X75493789Y-132106638D01*
X75488920Y-132104914D01*
X75488916Y-132104912D01*
X75288087Y-132033795D01*
X75288083Y-132033794D01*
X75283212Y-132032069D01*
X75278119Y-132031162D01*
X75278116Y-132031161D01*
X75068373Y-131993800D01*
X75068367Y-131993799D01*
X75063284Y-131992894D01*
X74989452Y-131991992D01*
X74845081Y-131990228D01*
X74845079Y-131990228D01*
X74839911Y-131990165D01*
X74619091Y-132023955D01*
X74406756Y-132093357D01*
X74208607Y-132196507D01*
X74204474Y-132199610D01*
X74204471Y-132199612D01*
X74180247Y-132217800D01*
X74029965Y-132330635D01*
X73875629Y-132492138D01*
X73768204Y-132649618D01*
X73767898Y-132650066D01*
X73712987Y-132695069D01*
X73642462Y-132703240D01*
X73578715Y-132671986D01*
X73558018Y-132647502D01*
X73477426Y-132522926D01*
X73471136Y-132514757D01*
X73327806Y-132357240D01*
X73320273Y-132350215D01*
X73153139Y-132218222D01*
X73144552Y-132212517D01*
X72958117Y-132109599D01*
X72948705Y-132105369D01*
X72747959Y-132034280D01*
X72737988Y-132031646D01*
X72666837Y-132018972D01*
X72653540Y-132020432D01*
X72649000Y-132034989D01*
X72649000Y-134668517D01*
X72141000Y-134668517D01*
X72141000Y-132033102D01*
X72137082Y-132019758D01*
X72122806Y-132017771D01*
X72084324Y-132023660D01*
X72074288Y-132026051D01*
X71871868Y-132092212D01*
X71862359Y-132096209D01*
X71673463Y-132194542D01*
X71664738Y-132200036D01*
X71494433Y-132327905D01*
X71486726Y-132334748D01*
X71339590Y-132488717D01*
X71333109Y-132496722D01*
X71228498Y-132650074D01*
X71173587Y-132695076D01*
X71103062Y-132703247D01*
X71039315Y-132671993D01*
X71018618Y-132647509D01*
X70937822Y-132522617D01*
X70937820Y-132522614D01*
X70935014Y-132518277D01*
X70784670Y-132353051D01*
X70780619Y-132349852D01*
X70780615Y-132349848D01*
X70613414Y-132217800D01*
X70613410Y-132217798D01*
X70609359Y-132214598D01*
X70573028Y-132194542D01*
X70557136Y-132185769D01*
X70413789Y-132106638D01*
X70408920Y-132104914D01*
X70408916Y-132104912D01*
X70208087Y-132033795D01*
X70208083Y-132033794D01*
X70203212Y-132032069D01*
X70198119Y-132031162D01*
X70198116Y-132031161D01*
X69988373Y-131993800D01*
X69988367Y-131993799D01*
X69983284Y-131992894D01*
X69909452Y-131991992D01*
X69765081Y-131990228D01*
X69765079Y-131990228D01*
X69759911Y-131990165D01*
X69539091Y-132023955D01*
X69326756Y-132093357D01*
X69128607Y-132196507D01*
X69124474Y-132199610D01*
X69124471Y-132199612D01*
X69100247Y-132217800D01*
X68949965Y-132330635D01*
X68795629Y-132492138D01*
X68688201Y-132649621D01*
X68633293Y-132694621D01*
X68562768Y-132702792D01*
X68499021Y-132671538D01*
X68478324Y-132647054D01*
X68397822Y-132522617D01*
X68397820Y-132522614D01*
X68395014Y-132518277D01*
X68244670Y-132353051D01*
X68240619Y-132349852D01*
X68240615Y-132349848D01*
X68073414Y-132217800D01*
X68073410Y-132217798D01*
X68069359Y-132214598D01*
X68033028Y-132194542D01*
X68017136Y-132185769D01*
X67873789Y-132106638D01*
X67868920Y-132104914D01*
X67868916Y-132104912D01*
X67668087Y-132033795D01*
X67668083Y-132033794D01*
X67663212Y-132032069D01*
X67658119Y-132031162D01*
X67658116Y-132031161D01*
X67448373Y-131993800D01*
X67448367Y-131993799D01*
X67443284Y-131992894D01*
X67369452Y-131991992D01*
X67225081Y-131990228D01*
X67225079Y-131990228D01*
X67219911Y-131990165D01*
X66999091Y-132023955D01*
X66786756Y-132093357D01*
X66588607Y-132196507D01*
X66584474Y-132199610D01*
X66584471Y-132199612D01*
X66560247Y-132217800D01*
X66409965Y-132330635D01*
X66255629Y-132492138D01*
X66148201Y-132649621D01*
X66093293Y-132694621D01*
X66022768Y-132702792D01*
X65959021Y-132671538D01*
X65938324Y-132647054D01*
X65857822Y-132522617D01*
X65857820Y-132522614D01*
X65855014Y-132518277D01*
X65704670Y-132353051D01*
X65700619Y-132349852D01*
X65700615Y-132349848D01*
X65533414Y-132217800D01*
X65533410Y-132217798D01*
X65529359Y-132214598D01*
X65493028Y-132194542D01*
X65477136Y-132185769D01*
X65333789Y-132106638D01*
X65328920Y-132104914D01*
X65328916Y-132104912D01*
X65128087Y-132033795D01*
X65128083Y-132033794D01*
X65123212Y-132032069D01*
X65118119Y-132031162D01*
X65118116Y-132031161D01*
X64908373Y-131993800D01*
X64908367Y-131993799D01*
X64903284Y-131992894D01*
X64829452Y-131991992D01*
X64685081Y-131990228D01*
X64685079Y-131990228D01*
X64679911Y-131990165D01*
X64459091Y-132023955D01*
X64246756Y-132093357D01*
X64048607Y-132196507D01*
X64044474Y-132199610D01*
X64044471Y-132199612D01*
X64020247Y-132217800D01*
X63869965Y-132330635D01*
X63715629Y-132492138D01*
X63608201Y-132649621D01*
X63553293Y-132694621D01*
X63482768Y-132702792D01*
X63419021Y-132671538D01*
X63398324Y-132647054D01*
X63317822Y-132522617D01*
X63317820Y-132522614D01*
X63315014Y-132518277D01*
X63164670Y-132353051D01*
X63160619Y-132349852D01*
X63160615Y-132349848D01*
X62993414Y-132217800D01*
X62993410Y-132217798D01*
X62989359Y-132214598D01*
X62953028Y-132194542D01*
X62937136Y-132185769D01*
X62793789Y-132106638D01*
X62788920Y-132104914D01*
X62788916Y-132104912D01*
X62588087Y-132033795D01*
X62588083Y-132033794D01*
X62583212Y-132032069D01*
X62578119Y-132031162D01*
X62578116Y-132031161D01*
X62368373Y-131993800D01*
X62368367Y-131993799D01*
X62363284Y-131992894D01*
X62289452Y-131991992D01*
X62145081Y-131990228D01*
X62145079Y-131990228D01*
X62139911Y-131990165D01*
X61919091Y-132023955D01*
X61706756Y-132093357D01*
X61508607Y-132196507D01*
X61504474Y-132199610D01*
X61504471Y-132199612D01*
X61480247Y-132217800D01*
X61329965Y-132330635D01*
X61175629Y-132492138D01*
X61068201Y-132649621D01*
X61013293Y-132694621D01*
X60942768Y-132702792D01*
X60879021Y-132671538D01*
X60858324Y-132647054D01*
X60777822Y-132522617D01*
X60777820Y-132522614D01*
X60775014Y-132518277D01*
X60624670Y-132353051D01*
X60620619Y-132349852D01*
X60620615Y-132349848D01*
X60453414Y-132217800D01*
X60453410Y-132217798D01*
X60449359Y-132214598D01*
X60413028Y-132194542D01*
X60397136Y-132185769D01*
X60253789Y-132106638D01*
X60248920Y-132104914D01*
X60248916Y-132104912D01*
X60048087Y-132033795D01*
X60048083Y-132033794D01*
X60043212Y-132032069D01*
X60038119Y-132031162D01*
X60038116Y-132031161D01*
X59828373Y-131993800D01*
X59828367Y-131993799D01*
X59823284Y-131992894D01*
X59749452Y-131991992D01*
X59605081Y-131990228D01*
X59605079Y-131990228D01*
X59599911Y-131990165D01*
X59379091Y-132023955D01*
X59166756Y-132093357D01*
X58968607Y-132196507D01*
X58964474Y-132199610D01*
X58964471Y-132199612D01*
X58940247Y-132217800D01*
X58789965Y-132330635D01*
X58635629Y-132492138D01*
X58528201Y-132649621D01*
X58473293Y-132694621D01*
X58402768Y-132702792D01*
X58339021Y-132671538D01*
X58318324Y-132647054D01*
X58237822Y-132522617D01*
X58237820Y-132522614D01*
X58235014Y-132518277D01*
X58084670Y-132353051D01*
X58080619Y-132349852D01*
X58080615Y-132349848D01*
X57913414Y-132217800D01*
X57913410Y-132217798D01*
X57909359Y-132214598D01*
X57873028Y-132194542D01*
X57857136Y-132185769D01*
X57713789Y-132106638D01*
X57708920Y-132104914D01*
X57708916Y-132104912D01*
X57508087Y-132033795D01*
X57508083Y-132033794D01*
X57503212Y-132032069D01*
X57498119Y-132031162D01*
X57498116Y-132031161D01*
X57288373Y-131993800D01*
X57288367Y-131993799D01*
X57283284Y-131992894D01*
X57209452Y-131991992D01*
X57065081Y-131990228D01*
X57065079Y-131990228D01*
X57059911Y-131990165D01*
X56839091Y-132023955D01*
X56626756Y-132093357D01*
X56428607Y-132196507D01*
X56424474Y-132199610D01*
X56424471Y-132199612D01*
X56400247Y-132217800D01*
X56249965Y-132330635D01*
X56095629Y-132492138D01*
X55969743Y-132676680D01*
X55875688Y-132879305D01*
X55815989Y-133094570D01*
X55792251Y-133316695D01*
X44943383Y-133316695D01*
X44942526Y-133304618D01*
X44942529Y-133300411D01*
X44950568Y-119261774D01*
X49184102Y-119261774D01*
X49192751Y-119492158D01*
X49240093Y-119717791D01*
X49324776Y-119932221D01*
X49444377Y-120129317D01*
X49447874Y-120133347D01*
X49534438Y-120233103D01*
X49595477Y-120303445D01*
X49599608Y-120306832D01*
X49769627Y-120446240D01*
X49769633Y-120446244D01*
X49773755Y-120449624D01*
X49778391Y-120452263D01*
X49778394Y-120452265D01*
X49887422Y-120514327D01*
X49974114Y-120563675D01*
X50190825Y-120642337D01*
X50196074Y-120643286D01*
X50196077Y-120643287D01*
X50413608Y-120682623D01*
X50413615Y-120682624D01*
X50417692Y-120683361D01*
X50435414Y-120684197D01*
X50440356Y-120684430D01*
X50440363Y-120684430D01*
X50441844Y-120684500D01*
X50603890Y-120684500D01*
X50670809Y-120678822D01*
X50770409Y-120670371D01*
X50770413Y-120670370D01*
X50775720Y-120669920D01*
X50780875Y-120668582D01*
X50780881Y-120668581D01*
X50993703Y-120613343D01*
X50993707Y-120613342D01*
X50998872Y-120612001D01*
X51003738Y-120609809D01*
X51003741Y-120609808D01*
X51204202Y-120519507D01*
X51209075Y-120517312D01*
X51400319Y-120388559D01*
X51567135Y-120229424D01*
X51704754Y-120044458D01*
X51809240Y-119838949D01*
X51822274Y-119796975D01*
X51876024Y-119623871D01*
X51877607Y-119618773D01*
X51878308Y-119613484D01*
X51895493Y-119483821D01*
X53117500Y-119483821D01*
X53157060Y-119796975D01*
X53235557Y-120102702D01*
X53237010Y-120106371D01*
X53237010Y-120106372D01*
X53347279Y-120384878D01*
X53351753Y-120396179D01*
X53353659Y-120399647D01*
X53353660Y-120399648D01*
X53487603Y-120643287D01*
X53503816Y-120672779D01*
X53689346Y-120928140D01*
X53905418Y-121158233D01*
X54148625Y-121359432D01*
X54415131Y-121528562D01*
X54418710Y-121530246D01*
X54418717Y-121530250D01*
X54697144Y-121661267D01*
X54697148Y-121661269D01*
X54700734Y-121662956D01*
X55000928Y-121760495D01*
X55310980Y-121819641D01*
X55547162Y-121834500D01*
X55704838Y-121834500D01*
X55941020Y-121819641D01*
X56251072Y-121760495D01*
X56551266Y-121662956D01*
X56554852Y-121661269D01*
X56554856Y-121661267D01*
X56833283Y-121530250D01*
X56833290Y-121530246D01*
X56836869Y-121528562D01*
X57103375Y-121359432D01*
X57346582Y-121158233D01*
X57562654Y-120928140D01*
X57748184Y-120672779D01*
X57764398Y-120643287D01*
X57898340Y-120399648D01*
X57898341Y-120399647D01*
X57900247Y-120396179D01*
X57904722Y-120384878D01*
X58014990Y-120106372D01*
X58014990Y-120106371D01*
X58016443Y-120102702D01*
X58094940Y-119796975D01*
X58134500Y-119483821D01*
X58134500Y-119261774D01*
X59344102Y-119261774D01*
X59352751Y-119492158D01*
X59400093Y-119717791D01*
X59484776Y-119932221D01*
X59604377Y-120129317D01*
X59607874Y-120133347D01*
X59694438Y-120233103D01*
X59755477Y-120303445D01*
X59759608Y-120306832D01*
X59929627Y-120446240D01*
X59929633Y-120446244D01*
X59933755Y-120449624D01*
X59938391Y-120452263D01*
X59938394Y-120452265D01*
X60047422Y-120514327D01*
X60134114Y-120563675D01*
X60350825Y-120642337D01*
X60356074Y-120643286D01*
X60356077Y-120643287D01*
X60573608Y-120682623D01*
X60573615Y-120682624D01*
X60577692Y-120683361D01*
X60595414Y-120684197D01*
X60600356Y-120684430D01*
X60600363Y-120684430D01*
X60601844Y-120684500D01*
X60763890Y-120684500D01*
X60830809Y-120678822D01*
X60930409Y-120670371D01*
X60930413Y-120670370D01*
X60935720Y-120669920D01*
X60940875Y-120668582D01*
X60940881Y-120668581D01*
X61153703Y-120613343D01*
X61153707Y-120613342D01*
X61158872Y-120612001D01*
X61163738Y-120609809D01*
X61163741Y-120609808D01*
X61364202Y-120519507D01*
X61369075Y-120517312D01*
X61560319Y-120388559D01*
X61727135Y-120229424D01*
X61864754Y-120044458D01*
X61969240Y-119838949D01*
X61982274Y-119796975D01*
X62036024Y-119623871D01*
X62037607Y-119618773D01*
X62038308Y-119613484D01*
X62067198Y-119395511D01*
X62067198Y-119395506D01*
X62067898Y-119390226D01*
X62063076Y-119261774D01*
X68996102Y-119261774D01*
X69004751Y-119492158D01*
X69052093Y-119717791D01*
X69136776Y-119932221D01*
X69256377Y-120129317D01*
X69259874Y-120133347D01*
X69346438Y-120233103D01*
X69407477Y-120303445D01*
X69411608Y-120306832D01*
X69581627Y-120446240D01*
X69581633Y-120446244D01*
X69585755Y-120449624D01*
X69590391Y-120452263D01*
X69590394Y-120452265D01*
X69699422Y-120514327D01*
X69786114Y-120563675D01*
X70002825Y-120642337D01*
X70008074Y-120643286D01*
X70008077Y-120643287D01*
X70225608Y-120682623D01*
X70225615Y-120682624D01*
X70229692Y-120683361D01*
X70247414Y-120684197D01*
X70252356Y-120684430D01*
X70252363Y-120684430D01*
X70253844Y-120684500D01*
X70415890Y-120684500D01*
X70482809Y-120678822D01*
X70582409Y-120670371D01*
X70582413Y-120670370D01*
X70587720Y-120669920D01*
X70592875Y-120668582D01*
X70592881Y-120668581D01*
X70805703Y-120613343D01*
X70805707Y-120613342D01*
X70810872Y-120612001D01*
X70815738Y-120609809D01*
X70815741Y-120609808D01*
X71016202Y-120519507D01*
X71021075Y-120517312D01*
X71212319Y-120388559D01*
X71379135Y-120229424D01*
X71516754Y-120044458D01*
X71621240Y-119838949D01*
X71634274Y-119796975D01*
X71688024Y-119623871D01*
X71689607Y-119618773D01*
X71690308Y-119613484D01*
X71707493Y-119483821D01*
X72929500Y-119483821D01*
X72969060Y-119796975D01*
X73047557Y-120102702D01*
X73049010Y-120106371D01*
X73049010Y-120106372D01*
X73159279Y-120384878D01*
X73163753Y-120396179D01*
X73165659Y-120399647D01*
X73165660Y-120399648D01*
X73299603Y-120643287D01*
X73315816Y-120672779D01*
X73501346Y-120928140D01*
X73717418Y-121158233D01*
X73960625Y-121359432D01*
X74227131Y-121528562D01*
X74230710Y-121530246D01*
X74230717Y-121530250D01*
X74509144Y-121661267D01*
X74509148Y-121661269D01*
X74512734Y-121662956D01*
X74812928Y-121760495D01*
X75122980Y-121819641D01*
X75359162Y-121834500D01*
X75516838Y-121834500D01*
X75753020Y-121819641D01*
X76063072Y-121760495D01*
X76363266Y-121662956D01*
X76366852Y-121661269D01*
X76366856Y-121661267D01*
X76645283Y-121530250D01*
X76645290Y-121530246D01*
X76648869Y-121528562D01*
X76915375Y-121359432D01*
X77158582Y-121158233D01*
X77374654Y-120928140D01*
X77560184Y-120672779D01*
X77576398Y-120643287D01*
X77710340Y-120399648D01*
X77710341Y-120399647D01*
X77712247Y-120396179D01*
X77716722Y-120384878D01*
X77826990Y-120106372D01*
X77826990Y-120106371D01*
X77828443Y-120102702D01*
X77906940Y-119796975D01*
X77946500Y-119483821D01*
X77946500Y-119261774D01*
X79156102Y-119261774D01*
X79164751Y-119492158D01*
X79212093Y-119717791D01*
X79296776Y-119932221D01*
X79416377Y-120129317D01*
X79419874Y-120133347D01*
X79506438Y-120233103D01*
X79567477Y-120303445D01*
X79571608Y-120306832D01*
X79741627Y-120446240D01*
X79741633Y-120446244D01*
X79745755Y-120449624D01*
X79750391Y-120452263D01*
X79750394Y-120452265D01*
X79859422Y-120514327D01*
X79946114Y-120563675D01*
X80162825Y-120642337D01*
X80168074Y-120643286D01*
X80168077Y-120643287D01*
X80385608Y-120682623D01*
X80385615Y-120682624D01*
X80389692Y-120683361D01*
X80407414Y-120684197D01*
X80412356Y-120684430D01*
X80412363Y-120684430D01*
X80413844Y-120684500D01*
X80575890Y-120684500D01*
X80642809Y-120678822D01*
X80742409Y-120670371D01*
X80742413Y-120670370D01*
X80747720Y-120669920D01*
X80752875Y-120668582D01*
X80752881Y-120668581D01*
X80965703Y-120613343D01*
X80965707Y-120613342D01*
X80970872Y-120612001D01*
X80975738Y-120609809D01*
X80975741Y-120609808D01*
X81176202Y-120519507D01*
X81181075Y-120517312D01*
X81372319Y-120388559D01*
X81539135Y-120229424D01*
X81676754Y-120044458D01*
X81781240Y-119838949D01*
X81794274Y-119796975D01*
X81848024Y-119623871D01*
X81849607Y-119618773D01*
X81850308Y-119613484D01*
X81879198Y-119395511D01*
X81879198Y-119395506D01*
X81879898Y-119390226D01*
X81875076Y-119261774D01*
X88808102Y-119261774D01*
X88816751Y-119492158D01*
X88864093Y-119717791D01*
X88948776Y-119932221D01*
X89068377Y-120129317D01*
X89071874Y-120133347D01*
X89158438Y-120233103D01*
X89219477Y-120303445D01*
X89223608Y-120306832D01*
X89393627Y-120446240D01*
X89393633Y-120446244D01*
X89397755Y-120449624D01*
X89402391Y-120452263D01*
X89402394Y-120452265D01*
X89511422Y-120514327D01*
X89598114Y-120563675D01*
X89814825Y-120642337D01*
X89820074Y-120643286D01*
X89820077Y-120643287D01*
X90037608Y-120682623D01*
X90037615Y-120682624D01*
X90041692Y-120683361D01*
X90059414Y-120684197D01*
X90064356Y-120684430D01*
X90064363Y-120684430D01*
X90065844Y-120684500D01*
X90227890Y-120684500D01*
X90294809Y-120678822D01*
X90394409Y-120670371D01*
X90394413Y-120670370D01*
X90399720Y-120669920D01*
X90404875Y-120668582D01*
X90404881Y-120668581D01*
X90617703Y-120613343D01*
X90617707Y-120613342D01*
X90622872Y-120612001D01*
X90627738Y-120609809D01*
X90627741Y-120609808D01*
X90828202Y-120519507D01*
X90833075Y-120517312D01*
X91024319Y-120388559D01*
X91191135Y-120229424D01*
X91328754Y-120044458D01*
X91433240Y-119838949D01*
X91446274Y-119796975D01*
X91500024Y-119623871D01*
X91501607Y-119618773D01*
X91502308Y-119613484D01*
X91519493Y-119483821D01*
X92741500Y-119483821D01*
X92781060Y-119796975D01*
X92859557Y-120102702D01*
X92861010Y-120106371D01*
X92861010Y-120106372D01*
X92971279Y-120384878D01*
X92975753Y-120396179D01*
X92977659Y-120399647D01*
X92977660Y-120399648D01*
X93111603Y-120643287D01*
X93127816Y-120672779D01*
X93313346Y-120928140D01*
X93529418Y-121158233D01*
X93772625Y-121359432D01*
X94039131Y-121528562D01*
X94042710Y-121530246D01*
X94042717Y-121530250D01*
X94321144Y-121661267D01*
X94321148Y-121661269D01*
X94324734Y-121662956D01*
X94624928Y-121760495D01*
X94934980Y-121819641D01*
X95171162Y-121834500D01*
X95328838Y-121834500D01*
X95565020Y-121819641D01*
X95875072Y-121760495D01*
X96175266Y-121662956D01*
X96178852Y-121661269D01*
X96178856Y-121661267D01*
X96457283Y-121530250D01*
X96457290Y-121530246D01*
X96460869Y-121528562D01*
X96727375Y-121359432D01*
X96970582Y-121158233D01*
X97186654Y-120928140D01*
X97372184Y-120672779D01*
X97388398Y-120643287D01*
X97522340Y-120399648D01*
X97522341Y-120399647D01*
X97524247Y-120396179D01*
X97528722Y-120384878D01*
X97638990Y-120106372D01*
X97638990Y-120106371D01*
X97640443Y-120102702D01*
X97718940Y-119796975D01*
X97758500Y-119483821D01*
X97758500Y-119261774D01*
X98968102Y-119261774D01*
X98976751Y-119492158D01*
X99024093Y-119717791D01*
X99108776Y-119932221D01*
X99228377Y-120129317D01*
X99231874Y-120133347D01*
X99318438Y-120233103D01*
X99379477Y-120303445D01*
X99383608Y-120306832D01*
X99553627Y-120446240D01*
X99553633Y-120446244D01*
X99557755Y-120449624D01*
X99562391Y-120452263D01*
X99562394Y-120452265D01*
X99671422Y-120514327D01*
X99758114Y-120563675D01*
X99974825Y-120642337D01*
X99980074Y-120643286D01*
X99980077Y-120643287D01*
X100197608Y-120682623D01*
X100197615Y-120682624D01*
X100201692Y-120683361D01*
X100219414Y-120684197D01*
X100224356Y-120684430D01*
X100224363Y-120684430D01*
X100225844Y-120684500D01*
X100387890Y-120684500D01*
X100454809Y-120678822D01*
X100554409Y-120670371D01*
X100554413Y-120670370D01*
X100559720Y-120669920D01*
X100564875Y-120668582D01*
X100564881Y-120668581D01*
X100777703Y-120613343D01*
X100777707Y-120613342D01*
X100782872Y-120612001D01*
X100787738Y-120609809D01*
X100787741Y-120609808D01*
X100988202Y-120519507D01*
X100993075Y-120517312D01*
X101184319Y-120388559D01*
X101351135Y-120229424D01*
X101488754Y-120044458D01*
X101593240Y-119838949D01*
X101606274Y-119796975D01*
X101660024Y-119623871D01*
X101661607Y-119618773D01*
X101662308Y-119613484D01*
X101691198Y-119395511D01*
X101691198Y-119395506D01*
X101691898Y-119390226D01*
X101683249Y-119159842D01*
X101635907Y-118934209D01*
X101551224Y-118719779D01*
X101431623Y-118522683D01*
X101344755Y-118422576D01*
X101284023Y-118352588D01*
X101284021Y-118352586D01*
X101280523Y-118348555D01*
X101238970Y-118314484D01*
X101106373Y-118205760D01*
X101106367Y-118205756D01*
X101102245Y-118202376D01*
X101097609Y-118199737D01*
X101097606Y-118199735D01*
X100911697Y-118093910D01*
X100901886Y-118088325D01*
X100685175Y-118009663D01*
X100679926Y-118008714D01*
X100679923Y-118008713D01*
X100462392Y-117969377D01*
X100462385Y-117969376D01*
X100458308Y-117968639D01*
X100440586Y-117967803D01*
X100435644Y-117967570D01*
X100435637Y-117967570D01*
X100434156Y-117967500D01*
X100272110Y-117967500D01*
X100205191Y-117973178D01*
X100105591Y-117981629D01*
X100105587Y-117981630D01*
X100100280Y-117982080D01*
X100095125Y-117983418D01*
X100095119Y-117983419D01*
X99882297Y-118038657D01*
X99882293Y-118038658D01*
X99877128Y-118039999D01*
X99872262Y-118042191D01*
X99872259Y-118042192D01*
X99763980Y-118090968D01*
X99666925Y-118134688D01*
X99475681Y-118263441D01*
X99308865Y-118422576D01*
X99171246Y-118607542D01*
X99066760Y-118813051D01*
X99065178Y-118818145D01*
X99065177Y-118818148D01*
X99003115Y-119018020D01*
X98998393Y-119033227D01*
X98997692Y-119038516D01*
X98982304Y-119154623D01*
X98968102Y-119261774D01*
X97758500Y-119261774D01*
X97758500Y-119168179D01*
X97718940Y-118855025D01*
X97640443Y-118549298D01*
X97590270Y-118422576D01*
X97525702Y-118259495D01*
X97525700Y-118259490D01*
X97524247Y-118255821D01*
X97506542Y-118223616D01*
X97374093Y-117982693D01*
X97374091Y-117982690D01*
X97372184Y-117979221D01*
X97186654Y-117723860D01*
X96993810Y-117518502D01*
X96973297Y-117496658D01*
X96973296Y-117496657D01*
X96970582Y-117493767D01*
X96727375Y-117292568D01*
X96460869Y-117123438D01*
X96457290Y-117121754D01*
X96457283Y-117121750D01*
X96178856Y-116990733D01*
X96178852Y-116990731D01*
X96175266Y-116989044D01*
X95875072Y-116891505D01*
X95565020Y-116832359D01*
X95328838Y-116817500D01*
X95171162Y-116817500D01*
X94934980Y-116832359D01*
X94624928Y-116891505D01*
X94324734Y-116989044D01*
X94321148Y-116990731D01*
X94321144Y-116990733D01*
X94042717Y-117121750D01*
X94042710Y-117121754D01*
X94039131Y-117123438D01*
X93772625Y-117292568D01*
X93529418Y-117493767D01*
X93526704Y-117496657D01*
X93526703Y-117496658D01*
X93506190Y-117518502D01*
X93313346Y-117723860D01*
X93127816Y-117979221D01*
X93125909Y-117982690D01*
X93125907Y-117982693D01*
X92993458Y-118223616D01*
X92975753Y-118255821D01*
X92974300Y-118259490D01*
X92974298Y-118259495D01*
X92909730Y-118422576D01*
X92859557Y-118549298D01*
X92781060Y-118855025D01*
X92741500Y-119168179D01*
X92741500Y-119483821D01*
X91519493Y-119483821D01*
X91531198Y-119395511D01*
X91531198Y-119395506D01*
X91531898Y-119390226D01*
X91523249Y-119159842D01*
X91475907Y-118934209D01*
X91391224Y-118719779D01*
X91312261Y-118589653D01*
X91294023Y-118521041D01*
X91315774Y-118453459D01*
X91370610Y-118408364D01*
X91429861Y-118398677D01*
X91435061Y-118399086D01*
X91435070Y-118399086D01*
X91440000Y-118399474D01*
X91692403Y-118379609D01*
X91697210Y-118378455D01*
X91697216Y-118378454D01*
X91853968Y-118340821D01*
X91938591Y-118320505D01*
X91943164Y-118318611D01*
X92167928Y-118225511D01*
X92167932Y-118225509D01*
X92172502Y-118223616D01*
X92388376Y-118091328D01*
X92580898Y-117926898D01*
X92745328Y-117734376D01*
X92877616Y-117518502D01*
X92888908Y-117491242D01*
X92972611Y-117289164D01*
X92972612Y-117289162D01*
X92974505Y-117284591D01*
X93013194Y-117123438D01*
X93032454Y-117043216D01*
X93032455Y-117043210D01*
X93033609Y-117038403D01*
X93053474Y-116786000D01*
X93033609Y-116533597D01*
X92974505Y-116287409D01*
X92877616Y-116053498D01*
X92745328Y-115837624D01*
X92580898Y-115645102D01*
X92471176Y-115551390D01*
X96849440Y-115551390D01*
X96855167Y-115559040D01*
X97053506Y-115680583D01*
X97062300Y-115685064D01*
X97286991Y-115778134D01*
X97296376Y-115781183D01*
X97532863Y-115837959D01*
X97542610Y-115839502D01*
X97785070Y-115858584D01*
X97794930Y-115858584D01*
X98037390Y-115839502D01*
X98047137Y-115837959D01*
X98283624Y-115781183D01*
X98293009Y-115778134D01*
X98517700Y-115685064D01*
X98526494Y-115680583D01*
X98721167Y-115561287D01*
X98730627Y-115550830D01*
X98726844Y-115542054D01*
X97802812Y-114618022D01*
X97788868Y-114610408D01*
X97787035Y-114610539D01*
X97780420Y-114614790D01*
X96856200Y-115539010D01*
X96849440Y-115551390D01*
X92471176Y-115551390D01*
X92388376Y-115480672D01*
X92172502Y-115348384D01*
X92167932Y-115346491D01*
X92167928Y-115346489D01*
X91943164Y-115253389D01*
X91943162Y-115253388D01*
X91938591Y-115251495D01*
X91853968Y-115231179D01*
X91697216Y-115193546D01*
X91697210Y-115193545D01*
X91692403Y-115192391D01*
X91440000Y-115172526D01*
X91187597Y-115192391D01*
X91182790Y-115193545D01*
X91182784Y-115193546D01*
X91026032Y-115231179D01*
X90941409Y-115251495D01*
X90936838Y-115253388D01*
X90936836Y-115253389D01*
X90712072Y-115346489D01*
X90712068Y-115346491D01*
X90707498Y-115348384D01*
X90491624Y-115480672D01*
X90299102Y-115645102D01*
X90134672Y-115837624D01*
X90002384Y-116053498D01*
X89905495Y-116287409D01*
X89846391Y-116533597D01*
X89826526Y-116786000D01*
X89846391Y-117038403D01*
X89847545Y-117043210D01*
X89847546Y-117043216D01*
X89866806Y-117123438D01*
X89905495Y-117284591D01*
X89907388Y-117289162D01*
X89907389Y-117289164D01*
X89991093Y-117491242D01*
X90002384Y-117518502D01*
X90134672Y-117734376D01*
X90137879Y-117738131D01*
X90137882Y-117738135D01*
X90159404Y-117763333D01*
X90188435Y-117828122D01*
X90177830Y-117898322D01*
X90130956Y-117951645D01*
X90074247Y-117970713D01*
X90029350Y-117974522D01*
X89945591Y-117981629D01*
X89945587Y-117981630D01*
X89940280Y-117982080D01*
X89935125Y-117983418D01*
X89935119Y-117983419D01*
X89722297Y-118038657D01*
X89722293Y-118038658D01*
X89717128Y-118039999D01*
X89712262Y-118042191D01*
X89712259Y-118042192D01*
X89603980Y-118090968D01*
X89506925Y-118134688D01*
X89315681Y-118263441D01*
X89148865Y-118422576D01*
X89011246Y-118607542D01*
X88906760Y-118813051D01*
X88905178Y-118818145D01*
X88905177Y-118818148D01*
X88843115Y-119018020D01*
X88838393Y-119033227D01*
X88837692Y-119038516D01*
X88822304Y-119154623D01*
X88808102Y-119261774D01*
X81875076Y-119261774D01*
X81871249Y-119159842D01*
X81823907Y-118934209D01*
X81739224Y-118719779D01*
X81619623Y-118522683D01*
X81532755Y-118422576D01*
X81472023Y-118352588D01*
X81472021Y-118352586D01*
X81468523Y-118348555D01*
X81426970Y-118314484D01*
X81294373Y-118205760D01*
X81294367Y-118205756D01*
X81290245Y-118202376D01*
X81285609Y-118199737D01*
X81285606Y-118199735D01*
X81099697Y-118093910D01*
X81089886Y-118088325D01*
X80873175Y-118009663D01*
X80867926Y-118008714D01*
X80867923Y-118008713D01*
X80650392Y-117969377D01*
X80650385Y-117969376D01*
X80646308Y-117968639D01*
X80628586Y-117967803D01*
X80623644Y-117967570D01*
X80623637Y-117967570D01*
X80622156Y-117967500D01*
X80460110Y-117967500D01*
X80393191Y-117973178D01*
X80293591Y-117981629D01*
X80293587Y-117981630D01*
X80288280Y-117982080D01*
X80283125Y-117983418D01*
X80283119Y-117983419D01*
X80070297Y-118038657D01*
X80070293Y-118038658D01*
X80065128Y-118039999D01*
X80060262Y-118042191D01*
X80060259Y-118042192D01*
X79951980Y-118090968D01*
X79854925Y-118134688D01*
X79663681Y-118263441D01*
X79496865Y-118422576D01*
X79359246Y-118607542D01*
X79254760Y-118813051D01*
X79253178Y-118818145D01*
X79253177Y-118818148D01*
X79191115Y-119018020D01*
X79186393Y-119033227D01*
X79185692Y-119038516D01*
X79170304Y-119154623D01*
X79156102Y-119261774D01*
X77946500Y-119261774D01*
X77946500Y-119168179D01*
X77906940Y-118855025D01*
X77828443Y-118549298D01*
X77778270Y-118422576D01*
X77713702Y-118259495D01*
X77713700Y-118259490D01*
X77712247Y-118255821D01*
X77694542Y-118223616D01*
X77562093Y-117982693D01*
X77562091Y-117982690D01*
X77560184Y-117979221D01*
X77374654Y-117723860D01*
X77181810Y-117518502D01*
X77161297Y-117496658D01*
X77161296Y-117496657D01*
X77158582Y-117493767D01*
X76915375Y-117292568D01*
X76648869Y-117123438D01*
X76645290Y-117121754D01*
X76645283Y-117121750D01*
X76366856Y-116990733D01*
X76366852Y-116990731D01*
X76363266Y-116989044D01*
X76063072Y-116891505D01*
X75753020Y-116832359D01*
X75516838Y-116817500D01*
X75359162Y-116817500D01*
X75122980Y-116832359D01*
X74812928Y-116891505D01*
X74512734Y-116989044D01*
X74509148Y-116990731D01*
X74509144Y-116990733D01*
X74230717Y-117121750D01*
X74230710Y-117121754D01*
X74227131Y-117123438D01*
X73960625Y-117292568D01*
X73717418Y-117493767D01*
X73714704Y-117496657D01*
X73714703Y-117496658D01*
X73694190Y-117518502D01*
X73501346Y-117723860D01*
X73315816Y-117979221D01*
X73313909Y-117982690D01*
X73313907Y-117982693D01*
X73181458Y-118223616D01*
X73163753Y-118255821D01*
X73162300Y-118259490D01*
X73162298Y-118259495D01*
X73097730Y-118422576D01*
X73047557Y-118549298D01*
X72969060Y-118855025D01*
X72929500Y-119168179D01*
X72929500Y-119483821D01*
X71707493Y-119483821D01*
X71719198Y-119395511D01*
X71719198Y-119395506D01*
X71719898Y-119390226D01*
X71711249Y-119159842D01*
X71663907Y-118934209D01*
X71579224Y-118719779D01*
X71500261Y-118589653D01*
X71482023Y-118521041D01*
X71503774Y-118453459D01*
X71558610Y-118408364D01*
X71617861Y-118398677D01*
X71623061Y-118399086D01*
X71623070Y-118399086D01*
X71628000Y-118399474D01*
X71880403Y-118379609D01*
X71885210Y-118378455D01*
X71885216Y-118378454D01*
X72041968Y-118340821D01*
X72126591Y-118320505D01*
X72131164Y-118318611D01*
X72355928Y-118225511D01*
X72355932Y-118225509D01*
X72360502Y-118223616D01*
X72576376Y-118091328D01*
X72768898Y-117926898D01*
X72933328Y-117734376D01*
X73065616Y-117518502D01*
X73076908Y-117491242D01*
X73160611Y-117289164D01*
X73160612Y-117289162D01*
X73162505Y-117284591D01*
X73201194Y-117123438D01*
X73220454Y-117043216D01*
X73220455Y-117043210D01*
X73221609Y-117038403D01*
X73241474Y-116786000D01*
X73221609Y-116533597D01*
X73162505Y-116287409D01*
X73065616Y-116053498D01*
X72933328Y-115837624D01*
X72768898Y-115645102D01*
X72659176Y-115551390D01*
X77037440Y-115551390D01*
X77043167Y-115559040D01*
X77241506Y-115680583D01*
X77250300Y-115685064D01*
X77474991Y-115778134D01*
X77484376Y-115781183D01*
X77720863Y-115837959D01*
X77730610Y-115839502D01*
X77973070Y-115858584D01*
X77982930Y-115858584D01*
X78225390Y-115839502D01*
X78235137Y-115837959D01*
X78471624Y-115781183D01*
X78481009Y-115778134D01*
X78705700Y-115685064D01*
X78714494Y-115680583D01*
X78909167Y-115561287D01*
X78918627Y-115550830D01*
X78914844Y-115542054D01*
X77990812Y-114618022D01*
X77976868Y-114610408D01*
X77975035Y-114610539D01*
X77968420Y-114614790D01*
X77044200Y-115539010D01*
X77037440Y-115551390D01*
X72659176Y-115551390D01*
X72576376Y-115480672D01*
X72360502Y-115348384D01*
X72355932Y-115346491D01*
X72355928Y-115346489D01*
X72131164Y-115253389D01*
X72131162Y-115253388D01*
X72126591Y-115251495D01*
X72041968Y-115231179D01*
X71885216Y-115193546D01*
X71885210Y-115193545D01*
X71880403Y-115192391D01*
X71628000Y-115172526D01*
X71375597Y-115192391D01*
X71370790Y-115193545D01*
X71370784Y-115193546D01*
X71214032Y-115231179D01*
X71129409Y-115251495D01*
X71124838Y-115253388D01*
X71124836Y-115253389D01*
X70900072Y-115346489D01*
X70900068Y-115346491D01*
X70895498Y-115348384D01*
X70679624Y-115480672D01*
X70487102Y-115645102D01*
X70322672Y-115837624D01*
X70190384Y-116053498D01*
X70093495Y-116287409D01*
X70034391Y-116533597D01*
X70014526Y-116786000D01*
X70034391Y-117038403D01*
X70035545Y-117043210D01*
X70035546Y-117043216D01*
X70054806Y-117123438D01*
X70093495Y-117284591D01*
X70095388Y-117289162D01*
X70095389Y-117289164D01*
X70179093Y-117491242D01*
X70190384Y-117518502D01*
X70322672Y-117734376D01*
X70325879Y-117738131D01*
X70325882Y-117738135D01*
X70347404Y-117763333D01*
X70376435Y-117828122D01*
X70365830Y-117898322D01*
X70318956Y-117951645D01*
X70262247Y-117970713D01*
X70217350Y-117974522D01*
X70133591Y-117981629D01*
X70133587Y-117981630D01*
X70128280Y-117982080D01*
X70123125Y-117983418D01*
X70123119Y-117983419D01*
X69910297Y-118038657D01*
X69910293Y-118038658D01*
X69905128Y-118039999D01*
X69900262Y-118042191D01*
X69900259Y-118042192D01*
X69791980Y-118090968D01*
X69694925Y-118134688D01*
X69503681Y-118263441D01*
X69336865Y-118422576D01*
X69199246Y-118607542D01*
X69094760Y-118813051D01*
X69093178Y-118818145D01*
X69093177Y-118818148D01*
X69031115Y-119018020D01*
X69026393Y-119033227D01*
X69025692Y-119038516D01*
X69010304Y-119154623D01*
X68996102Y-119261774D01*
X62063076Y-119261774D01*
X62059249Y-119159842D01*
X62011907Y-118934209D01*
X61927224Y-118719779D01*
X61807623Y-118522683D01*
X61720755Y-118422576D01*
X61660023Y-118352588D01*
X61660021Y-118352586D01*
X61656523Y-118348555D01*
X61614970Y-118314484D01*
X61482373Y-118205760D01*
X61482367Y-118205756D01*
X61478245Y-118202376D01*
X61473609Y-118199737D01*
X61473606Y-118199735D01*
X61287697Y-118093910D01*
X61277886Y-118088325D01*
X61061175Y-118009663D01*
X61055926Y-118008714D01*
X61055923Y-118008713D01*
X60838392Y-117969377D01*
X60838385Y-117969376D01*
X60834308Y-117968639D01*
X60816586Y-117967803D01*
X60811644Y-117967570D01*
X60811637Y-117967570D01*
X60810156Y-117967500D01*
X60648110Y-117967500D01*
X60581191Y-117973178D01*
X60481591Y-117981629D01*
X60481587Y-117981630D01*
X60476280Y-117982080D01*
X60471125Y-117983418D01*
X60471119Y-117983419D01*
X60258297Y-118038657D01*
X60258293Y-118038658D01*
X60253128Y-118039999D01*
X60248262Y-118042191D01*
X60248259Y-118042192D01*
X60139980Y-118090968D01*
X60042925Y-118134688D01*
X59851681Y-118263441D01*
X59684865Y-118422576D01*
X59547246Y-118607542D01*
X59442760Y-118813051D01*
X59441178Y-118818145D01*
X59441177Y-118818148D01*
X59379115Y-119018020D01*
X59374393Y-119033227D01*
X59373692Y-119038516D01*
X59358304Y-119154623D01*
X59344102Y-119261774D01*
X58134500Y-119261774D01*
X58134500Y-119168179D01*
X58094940Y-118855025D01*
X58016443Y-118549298D01*
X57966270Y-118422576D01*
X57901702Y-118259495D01*
X57901700Y-118259490D01*
X57900247Y-118255821D01*
X57882542Y-118223616D01*
X57750093Y-117982693D01*
X57750091Y-117982690D01*
X57748184Y-117979221D01*
X57562654Y-117723860D01*
X57369810Y-117518502D01*
X57349297Y-117496658D01*
X57349296Y-117496657D01*
X57346582Y-117493767D01*
X57103375Y-117292568D01*
X56836869Y-117123438D01*
X56833290Y-117121754D01*
X56833283Y-117121750D01*
X56554856Y-116990733D01*
X56554852Y-116990731D01*
X56551266Y-116989044D01*
X56251072Y-116891505D01*
X55941020Y-116832359D01*
X55704838Y-116817500D01*
X55547162Y-116817500D01*
X55310980Y-116832359D01*
X55000928Y-116891505D01*
X54700734Y-116989044D01*
X54697148Y-116990731D01*
X54697144Y-116990733D01*
X54418717Y-117121750D01*
X54418710Y-117121754D01*
X54415131Y-117123438D01*
X54148625Y-117292568D01*
X53905418Y-117493767D01*
X53902704Y-117496657D01*
X53902703Y-117496658D01*
X53882190Y-117518502D01*
X53689346Y-117723860D01*
X53503816Y-117979221D01*
X53501909Y-117982690D01*
X53501907Y-117982693D01*
X53369458Y-118223616D01*
X53351753Y-118255821D01*
X53350300Y-118259490D01*
X53350298Y-118259495D01*
X53285730Y-118422576D01*
X53235557Y-118549298D01*
X53157060Y-118855025D01*
X53117500Y-119168179D01*
X53117500Y-119483821D01*
X51895493Y-119483821D01*
X51907198Y-119395511D01*
X51907198Y-119395506D01*
X51907898Y-119390226D01*
X51899249Y-119159842D01*
X51851907Y-118934209D01*
X51767224Y-118719779D01*
X51688261Y-118589653D01*
X51670023Y-118521041D01*
X51691774Y-118453459D01*
X51746610Y-118408364D01*
X51805861Y-118398677D01*
X51811061Y-118399086D01*
X51811070Y-118399086D01*
X51816000Y-118399474D01*
X52068403Y-118379609D01*
X52073210Y-118378455D01*
X52073216Y-118378454D01*
X52229968Y-118340821D01*
X52314591Y-118320505D01*
X52319164Y-118318611D01*
X52543928Y-118225511D01*
X52543932Y-118225509D01*
X52548502Y-118223616D01*
X52764376Y-118091328D01*
X52956898Y-117926898D01*
X53121328Y-117734376D01*
X53253616Y-117518502D01*
X53264908Y-117491242D01*
X53348611Y-117289164D01*
X53348612Y-117289162D01*
X53350505Y-117284591D01*
X53389194Y-117123438D01*
X53408454Y-117043216D01*
X53408455Y-117043210D01*
X53409609Y-117038403D01*
X53429474Y-116786000D01*
X53409609Y-116533597D01*
X53350505Y-116287409D01*
X53253616Y-116053498D01*
X53121328Y-115837624D01*
X52956898Y-115645102D01*
X52847176Y-115551390D01*
X57225440Y-115551390D01*
X57231167Y-115559040D01*
X57429506Y-115680583D01*
X57438300Y-115685064D01*
X57662991Y-115778134D01*
X57672376Y-115781183D01*
X57908863Y-115837959D01*
X57918610Y-115839502D01*
X58161070Y-115858584D01*
X58170930Y-115858584D01*
X58413390Y-115839502D01*
X58423137Y-115837959D01*
X58659624Y-115781183D01*
X58669009Y-115778134D01*
X58893700Y-115685064D01*
X58902494Y-115680583D01*
X59097167Y-115561287D01*
X59106627Y-115550830D01*
X59102844Y-115542054D01*
X58178812Y-114618022D01*
X58164868Y-114610408D01*
X58163035Y-114610539D01*
X58156420Y-114614790D01*
X57232200Y-115539010D01*
X57225440Y-115551390D01*
X52847176Y-115551390D01*
X52764376Y-115480672D01*
X52548502Y-115348384D01*
X52543932Y-115346491D01*
X52543928Y-115346489D01*
X52319164Y-115253389D01*
X52319162Y-115253388D01*
X52314591Y-115251495D01*
X52229968Y-115231179D01*
X52073216Y-115193546D01*
X52073210Y-115193545D01*
X52068403Y-115192391D01*
X51816000Y-115172526D01*
X51563597Y-115192391D01*
X51558790Y-115193545D01*
X51558784Y-115193546D01*
X51402032Y-115231179D01*
X51317409Y-115251495D01*
X51312838Y-115253388D01*
X51312836Y-115253389D01*
X51088072Y-115346489D01*
X51088068Y-115346491D01*
X51083498Y-115348384D01*
X50867624Y-115480672D01*
X50675102Y-115645102D01*
X50510672Y-115837624D01*
X50378384Y-116053498D01*
X50281495Y-116287409D01*
X50222391Y-116533597D01*
X50202526Y-116786000D01*
X50222391Y-117038403D01*
X50223545Y-117043210D01*
X50223546Y-117043216D01*
X50242806Y-117123438D01*
X50281495Y-117284591D01*
X50283388Y-117289162D01*
X50283389Y-117289164D01*
X50367093Y-117491242D01*
X50378384Y-117518502D01*
X50510672Y-117734376D01*
X50513879Y-117738131D01*
X50513882Y-117738135D01*
X50535404Y-117763333D01*
X50564435Y-117828122D01*
X50553830Y-117898322D01*
X50506956Y-117951645D01*
X50450247Y-117970713D01*
X50405350Y-117974522D01*
X50321591Y-117981629D01*
X50321587Y-117981630D01*
X50316280Y-117982080D01*
X50311125Y-117983418D01*
X50311119Y-117983419D01*
X50098297Y-118038657D01*
X50098293Y-118038658D01*
X50093128Y-118039999D01*
X50088262Y-118042191D01*
X50088259Y-118042192D01*
X49979980Y-118090968D01*
X49882925Y-118134688D01*
X49691681Y-118263441D01*
X49524865Y-118422576D01*
X49387246Y-118607542D01*
X49282760Y-118813051D01*
X49281178Y-118818145D01*
X49281177Y-118818148D01*
X49219115Y-119018020D01*
X49214393Y-119033227D01*
X49213692Y-119038516D01*
X49198304Y-119154623D01*
X49184102Y-119261774D01*
X44950568Y-119261774D01*
X44953437Y-114250930D01*
X56553416Y-114250930D01*
X56572498Y-114493390D01*
X56574041Y-114503137D01*
X56630817Y-114739624D01*
X56633866Y-114749009D01*
X56726936Y-114973700D01*
X56731417Y-114982494D01*
X56850713Y-115177167D01*
X56861170Y-115186627D01*
X56869946Y-115182844D01*
X57793978Y-114258812D01*
X57800356Y-114247132D01*
X58530408Y-114247132D01*
X58530539Y-114248965D01*
X58534790Y-114255580D01*
X59459010Y-115179800D01*
X59471390Y-115186560D01*
X59479040Y-115180833D01*
X59600583Y-114982494D01*
X59605064Y-114973700D01*
X59698134Y-114749009D01*
X59701183Y-114739624D01*
X59757959Y-114503137D01*
X59759502Y-114493390D01*
X59778584Y-114250930D01*
X76365416Y-114250930D01*
X76384498Y-114493390D01*
X76386041Y-114503137D01*
X76442817Y-114739624D01*
X76445866Y-114749009D01*
X76538936Y-114973700D01*
X76543417Y-114982494D01*
X76662713Y-115177167D01*
X76673170Y-115186627D01*
X76681946Y-115182844D01*
X77605978Y-114258812D01*
X77612356Y-114247132D01*
X78342408Y-114247132D01*
X78342539Y-114248965D01*
X78346790Y-114255580D01*
X79271010Y-115179800D01*
X79283390Y-115186560D01*
X79291040Y-115180833D01*
X79412583Y-114982494D01*
X79417064Y-114973700D01*
X79510134Y-114749009D01*
X79513183Y-114739624D01*
X79569959Y-114503137D01*
X79571502Y-114493390D01*
X79590584Y-114250930D01*
X96177416Y-114250930D01*
X96196498Y-114493390D01*
X96198041Y-114503137D01*
X96254817Y-114739624D01*
X96257866Y-114749009D01*
X96350936Y-114973700D01*
X96355417Y-114982494D01*
X96474713Y-115177167D01*
X96485170Y-115186627D01*
X96493946Y-115182844D01*
X97417978Y-114258812D01*
X97424356Y-114247132D01*
X98154408Y-114247132D01*
X98154539Y-114248965D01*
X98158790Y-114255580D01*
X99083010Y-115179800D01*
X99095390Y-115186560D01*
X99103040Y-115180833D01*
X99224583Y-114982494D01*
X99229064Y-114973700D01*
X99322134Y-114749009D01*
X99325183Y-114739624D01*
X99381959Y-114503137D01*
X99383502Y-114493390D01*
X99402584Y-114250930D01*
X99402584Y-114241070D01*
X99383502Y-113998610D01*
X99381959Y-113988863D01*
X99325183Y-113752376D01*
X99322134Y-113742991D01*
X99229064Y-113518300D01*
X99224583Y-113509506D01*
X99105287Y-113314833D01*
X99094830Y-113305373D01*
X99086054Y-113309156D01*
X98162022Y-114233188D01*
X98154408Y-114247132D01*
X97424356Y-114247132D01*
X97425592Y-114244868D01*
X97425461Y-114243035D01*
X97421210Y-114236420D01*
X96496990Y-113312200D01*
X96484610Y-113305440D01*
X96476960Y-113311167D01*
X96355417Y-113509506D01*
X96350936Y-113518300D01*
X96257866Y-113742991D01*
X96254817Y-113752376D01*
X96198041Y-113988863D01*
X96196498Y-113998610D01*
X96177416Y-114241070D01*
X96177416Y-114250930D01*
X79590584Y-114250930D01*
X79590584Y-114241070D01*
X79571502Y-113998610D01*
X79569959Y-113988863D01*
X79513183Y-113752376D01*
X79510134Y-113742991D01*
X79417064Y-113518300D01*
X79412583Y-113509506D01*
X79293287Y-113314833D01*
X79282830Y-113305373D01*
X79274054Y-113309156D01*
X78350022Y-114233188D01*
X78342408Y-114247132D01*
X77612356Y-114247132D01*
X77613592Y-114244868D01*
X77613461Y-114243035D01*
X77609210Y-114236420D01*
X76684990Y-113312200D01*
X76672610Y-113305440D01*
X76664960Y-113311167D01*
X76543417Y-113509506D01*
X76538936Y-113518300D01*
X76445866Y-113742991D01*
X76442817Y-113752376D01*
X76386041Y-113988863D01*
X76384498Y-113998610D01*
X76365416Y-114241070D01*
X76365416Y-114250930D01*
X59778584Y-114250930D01*
X59778584Y-114241070D01*
X59759502Y-113998610D01*
X59757959Y-113988863D01*
X59701183Y-113752376D01*
X59698134Y-113742991D01*
X59605064Y-113518300D01*
X59600583Y-113509506D01*
X59481287Y-113314833D01*
X59470830Y-113305373D01*
X59462054Y-113309156D01*
X58538022Y-114233188D01*
X58530408Y-114247132D01*
X57800356Y-114247132D01*
X57801592Y-114244868D01*
X57801461Y-114243035D01*
X57797210Y-114236420D01*
X56872990Y-113312200D01*
X56860610Y-113305440D01*
X56852960Y-113311167D01*
X56731417Y-113509506D01*
X56726936Y-113518300D01*
X56633866Y-113742991D01*
X56630817Y-113752376D01*
X56574041Y-113988863D01*
X56572498Y-113998610D01*
X56553416Y-114241070D01*
X56553416Y-114250930D01*
X44953437Y-114250930D01*
X44954187Y-112941170D01*
X57225373Y-112941170D01*
X57229156Y-112949946D01*
X58153188Y-113873978D01*
X58167132Y-113881592D01*
X58168965Y-113881461D01*
X58175580Y-113877210D01*
X59099800Y-112952990D01*
X59106254Y-112941170D01*
X77037373Y-112941170D01*
X77041156Y-112949946D01*
X77965188Y-113873978D01*
X77979132Y-113881592D01*
X77980965Y-113881461D01*
X77987580Y-113877210D01*
X78911800Y-112952990D01*
X78918254Y-112941170D01*
X96849373Y-112941170D01*
X96853156Y-112949946D01*
X97777188Y-113873978D01*
X97791132Y-113881592D01*
X97792965Y-113881461D01*
X97799580Y-113877210D01*
X98723800Y-112952990D01*
X98730560Y-112940610D01*
X98724833Y-112932960D01*
X98526494Y-112811417D01*
X98517700Y-112806936D01*
X98293009Y-112713866D01*
X98283624Y-112710817D01*
X98047137Y-112654041D01*
X98037390Y-112652498D01*
X97794930Y-112633416D01*
X97785070Y-112633416D01*
X97542610Y-112652498D01*
X97532863Y-112654041D01*
X97296376Y-112710817D01*
X97286991Y-112713866D01*
X97062300Y-112806936D01*
X97053506Y-112811417D01*
X96858833Y-112930713D01*
X96849373Y-112941170D01*
X78918254Y-112941170D01*
X78918560Y-112940610D01*
X78912833Y-112932960D01*
X78714494Y-112811417D01*
X78705700Y-112806936D01*
X78481009Y-112713866D01*
X78471624Y-112710817D01*
X78235137Y-112654041D01*
X78225390Y-112652498D01*
X77982930Y-112633416D01*
X77973070Y-112633416D01*
X77730610Y-112652498D01*
X77720863Y-112654041D01*
X77484376Y-112710817D01*
X77474991Y-112713866D01*
X77250300Y-112806936D01*
X77241506Y-112811417D01*
X77046833Y-112930713D01*
X77037373Y-112941170D01*
X59106254Y-112941170D01*
X59106560Y-112940610D01*
X59100833Y-112932960D01*
X58902494Y-112811417D01*
X58893700Y-112806936D01*
X58669009Y-112713866D01*
X58659624Y-112710817D01*
X58423137Y-112654041D01*
X58413390Y-112652498D01*
X58170930Y-112633416D01*
X58161070Y-112633416D01*
X57918610Y-112652498D01*
X57908863Y-112654041D01*
X57672376Y-112710817D01*
X57662991Y-112713866D01*
X57438300Y-112806936D01*
X57429506Y-112811417D01*
X57234833Y-112930713D01*
X57225373Y-112941170D01*
X44954187Y-112941170D01*
X44957986Y-106308134D01*
X55791500Y-106308134D01*
X55798255Y-106370316D01*
X55849385Y-106506705D01*
X55936739Y-106623261D01*
X56053295Y-106710615D01*
X56189684Y-106761745D01*
X56251866Y-106768500D01*
X58048134Y-106768500D01*
X58110316Y-106761745D01*
X58246705Y-106710615D01*
X58363261Y-106623261D01*
X58450615Y-106506705D01*
X58472799Y-106447529D01*
X58494598Y-106389382D01*
X58537240Y-106332618D01*
X58603802Y-106307918D01*
X58673150Y-106323126D01*
X58707817Y-106351114D01*
X58736250Y-106383938D01*
X58908126Y-106526632D01*
X59101000Y-106639338D01*
X59309692Y-106719030D01*
X59314760Y-106720061D01*
X59314763Y-106720062D01*
X59409862Y-106739410D01*
X59528597Y-106763567D01*
X59533772Y-106763757D01*
X59533774Y-106763757D01*
X59746673Y-106771564D01*
X59746677Y-106771564D01*
X59751837Y-106771753D01*
X59756957Y-106771097D01*
X59756959Y-106771097D01*
X59968288Y-106744025D01*
X59968289Y-106744025D01*
X59973416Y-106743368D01*
X59978366Y-106741883D01*
X60182429Y-106680661D01*
X60182434Y-106680659D01*
X60187384Y-106679174D01*
X60387994Y-106580896D01*
X60569860Y-106451173D01*
X60728096Y-106293489D01*
X60858453Y-106112077D01*
X60859776Y-106113028D01*
X60906645Y-106069857D01*
X60976580Y-106057625D01*
X61042026Y-106085144D01*
X61069875Y-106116994D01*
X61129987Y-106215088D01*
X61276250Y-106383938D01*
X61448126Y-106526632D01*
X61641000Y-106639338D01*
X61849692Y-106719030D01*
X61854760Y-106720061D01*
X61854763Y-106720062D01*
X61949862Y-106739410D01*
X62068597Y-106763567D01*
X62073772Y-106763757D01*
X62073774Y-106763757D01*
X62286673Y-106771564D01*
X62286677Y-106771564D01*
X62291837Y-106771753D01*
X62296957Y-106771097D01*
X62296959Y-106771097D01*
X62508288Y-106744025D01*
X62508289Y-106744025D01*
X62513416Y-106743368D01*
X62518366Y-106741883D01*
X62722429Y-106680661D01*
X62722434Y-106680659D01*
X62727384Y-106679174D01*
X62927994Y-106580896D01*
X63109860Y-106451173D01*
X63268096Y-106293489D01*
X63398453Y-106112077D01*
X63399776Y-106113028D01*
X63446645Y-106069857D01*
X63516580Y-106057625D01*
X63582026Y-106085144D01*
X63609875Y-106116994D01*
X63669987Y-106215088D01*
X63816250Y-106383938D01*
X63988126Y-106526632D01*
X64181000Y-106639338D01*
X64389692Y-106719030D01*
X64394760Y-106720061D01*
X64394763Y-106720062D01*
X64489862Y-106739410D01*
X64608597Y-106763567D01*
X64613772Y-106763757D01*
X64613774Y-106763757D01*
X64826673Y-106771564D01*
X64826677Y-106771564D01*
X64831837Y-106771753D01*
X64836957Y-106771097D01*
X64836959Y-106771097D01*
X65048288Y-106744025D01*
X65048289Y-106744025D01*
X65053416Y-106743368D01*
X65058366Y-106741883D01*
X65262429Y-106680661D01*
X65262434Y-106680659D01*
X65267384Y-106679174D01*
X65467994Y-106580896D01*
X65649860Y-106451173D01*
X65808096Y-106293489D01*
X65938453Y-106112077D01*
X65939776Y-106113028D01*
X65986645Y-106069857D01*
X66056580Y-106057625D01*
X66122026Y-106085144D01*
X66149875Y-106116994D01*
X66209987Y-106215088D01*
X66356250Y-106383938D01*
X66528126Y-106526632D01*
X66721000Y-106639338D01*
X66929692Y-106719030D01*
X66934760Y-106720061D01*
X66934763Y-106720062D01*
X67029862Y-106739410D01*
X67148597Y-106763567D01*
X67153772Y-106763757D01*
X67153774Y-106763757D01*
X67366673Y-106771564D01*
X67366677Y-106771564D01*
X67371837Y-106771753D01*
X67376957Y-106771097D01*
X67376959Y-106771097D01*
X67588288Y-106744025D01*
X67588289Y-106744025D01*
X67593416Y-106743368D01*
X67598366Y-106741883D01*
X67802429Y-106680661D01*
X67802434Y-106680659D01*
X67807384Y-106679174D01*
X68007994Y-106580896D01*
X68189860Y-106451173D01*
X68348096Y-106293489D01*
X68478453Y-106112077D01*
X68479776Y-106113028D01*
X68526645Y-106069857D01*
X68596580Y-106057625D01*
X68662026Y-106085144D01*
X68689875Y-106116994D01*
X68749987Y-106215088D01*
X68896250Y-106383938D01*
X69068126Y-106526632D01*
X69261000Y-106639338D01*
X69469692Y-106719030D01*
X69474760Y-106720061D01*
X69474763Y-106720062D01*
X69569862Y-106739410D01*
X69688597Y-106763567D01*
X69693772Y-106763757D01*
X69693774Y-106763757D01*
X69906673Y-106771564D01*
X69906677Y-106771564D01*
X69911837Y-106771753D01*
X69916957Y-106771097D01*
X69916959Y-106771097D01*
X70128288Y-106744025D01*
X70128289Y-106744025D01*
X70133416Y-106743368D01*
X70138366Y-106741883D01*
X70342429Y-106680661D01*
X70342434Y-106680659D01*
X70347384Y-106679174D01*
X70547994Y-106580896D01*
X70729860Y-106451173D01*
X70888096Y-106293489D01*
X71018453Y-106112077D01*
X71019776Y-106113028D01*
X71066645Y-106069857D01*
X71136580Y-106057625D01*
X71202026Y-106085144D01*
X71229875Y-106116994D01*
X71289987Y-106215088D01*
X71436250Y-106383938D01*
X71608126Y-106526632D01*
X71801000Y-106639338D01*
X72009692Y-106719030D01*
X72014760Y-106720061D01*
X72014763Y-106720062D01*
X72109862Y-106739410D01*
X72228597Y-106763567D01*
X72233772Y-106763757D01*
X72233774Y-106763757D01*
X72446673Y-106771564D01*
X72446677Y-106771564D01*
X72451837Y-106771753D01*
X72456957Y-106771097D01*
X72456959Y-106771097D01*
X72668288Y-106744025D01*
X72668289Y-106744025D01*
X72673416Y-106743368D01*
X72678366Y-106741883D01*
X72882429Y-106680661D01*
X72882434Y-106680659D01*
X72887384Y-106679174D01*
X73087994Y-106580896D01*
X73269860Y-106451173D01*
X73428096Y-106293489D01*
X73558453Y-106112077D01*
X73559776Y-106113028D01*
X73606645Y-106069857D01*
X73676580Y-106057625D01*
X73742026Y-106085144D01*
X73769875Y-106116994D01*
X73829987Y-106215088D01*
X73976250Y-106383938D01*
X74148126Y-106526632D01*
X74341000Y-106639338D01*
X74549692Y-106719030D01*
X74554760Y-106720061D01*
X74554763Y-106720062D01*
X74649862Y-106739410D01*
X74768597Y-106763567D01*
X74773772Y-106763757D01*
X74773774Y-106763757D01*
X74986673Y-106771564D01*
X74986677Y-106771564D01*
X74991837Y-106771753D01*
X74996957Y-106771097D01*
X74996959Y-106771097D01*
X75208288Y-106744025D01*
X75208289Y-106744025D01*
X75213416Y-106743368D01*
X75218366Y-106741883D01*
X75422429Y-106680661D01*
X75422434Y-106680659D01*
X75427384Y-106679174D01*
X75627994Y-106580896D01*
X75809860Y-106451173D01*
X75968096Y-106293489D01*
X76098453Y-106112077D01*
X76099776Y-106113028D01*
X76146645Y-106069857D01*
X76216580Y-106057625D01*
X76282026Y-106085144D01*
X76309875Y-106116994D01*
X76369987Y-106215088D01*
X76516250Y-106383938D01*
X76688126Y-106526632D01*
X76881000Y-106639338D01*
X77089692Y-106719030D01*
X77094760Y-106720061D01*
X77094763Y-106720062D01*
X77189862Y-106739410D01*
X77308597Y-106763567D01*
X77313772Y-106763757D01*
X77313774Y-106763757D01*
X77526673Y-106771564D01*
X77526677Y-106771564D01*
X77531837Y-106771753D01*
X77536957Y-106771097D01*
X77536959Y-106771097D01*
X77748288Y-106744025D01*
X77748289Y-106744025D01*
X77753416Y-106743368D01*
X77758366Y-106741883D01*
X77962429Y-106680661D01*
X77962434Y-106680659D01*
X77967384Y-106679174D01*
X78167994Y-106580896D01*
X78349860Y-106451173D01*
X78508096Y-106293489D01*
X78638453Y-106112077D01*
X78639640Y-106112930D01*
X78686960Y-106069362D01*
X78756897Y-106057145D01*
X78822338Y-106084678D01*
X78850166Y-106116511D01*
X78907694Y-106210388D01*
X78913777Y-106218699D01*
X79053213Y-106379667D01*
X79060580Y-106386883D01*
X79224434Y-106522916D01*
X79232881Y-106528831D01*
X79416756Y-106636279D01*
X79426042Y-106640729D01*
X79625001Y-106716703D01*
X79634899Y-106719579D01*
X79738250Y-106740606D01*
X79752299Y-106739410D01*
X79756000Y-106729065D01*
X79756000Y-106728517D01*
X80264000Y-106728517D01*
X80268064Y-106742359D01*
X80281478Y-106744393D01*
X80288184Y-106743534D01*
X80298262Y-106741392D01*
X80502255Y-106680191D01*
X80511842Y-106676433D01*
X80703095Y-106582739D01*
X80711945Y-106577464D01*
X80885328Y-106453792D01*
X80893200Y-106447139D01*
X81044052Y-106296812D01*
X81050730Y-106288965D01*
X81178022Y-106111819D01*
X81179279Y-106112722D01*
X81226373Y-106069362D01*
X81296311Y-106057145D01*
X81361751Y-106084678D01*
X81389579Y-106116511D01*
X81449987Y-106215088D01*
X81596250Y-106383938D01*
X81768126Y-106526632D01*
X81961000Y-106639338D01*
X82169692Y-106719030D01*
X82174760Y-106720061D01*
X82174763Y-106720062D01*
X82269862Y-106739410D01*
X82388597Y-106763567D01*
X82393772Y-106763757D01*
X82393774Y-106763757D01*
X82606673Y-106771564D01*
X82606677Y-106771564D01*
X82611837Y-106771753D01*
X82616957Y-106771097D01*
X82616959Y-106771097D01*
X82828288Y-106744025D01*
X82828289Y-106744025D01*
X82833416Y-106743368D01*
X82838366Y-106741883D01*
X83042429Y-106680661D01*
X83042434Y-106680659D01*
X83047384Y-106679174D01*
X83247994Y-106580896D01*
X83429860Y-106451173D01*
X83588096Y-106293489D01*
X83718453Y-106112077D01*
X83719776Y-106113028D01*
X83766645Y-106069857D01*
X83836580Y-106057625D01*
X83902026Y-106085144D01*
X83929875Y-106116994D01*
X83989987Y-106215088D01*
X84136250Y-106383938D01*
X84308126Y-106526632D01*
X84501000Y-106639338D01*
X84709692Y-106719030D01*
X84714760Y-106720061D01*
X84714763Y-106720062D01*
X84809862Y-106739410D01*
X84928597Y-106763567D01*
X84933772Y-106763757D01*
X84933774Y-106763757D01*
X85146673Y-106771564D01*
X85146677Y-106771564D01*
X85151837Y-106771753D01*
X85156957Y-106771097D01*
X85156959Y-106771097D01*
X85368288Y-106744025D01*
X85368289Y-106744025D01*
X85373416Y-106743368D01*
X85378366Y-106741883D01*
X85582429Y-106680661D01*
X85582434Y-106680659D01*
X85587384Y-106679174D01*
X85787994Y-106580896D01*
X85969860Y-106451173D01*
X86128096Y-106293489D01*
X86258453Y-106112077D01*
X86259776Y-106113028D01*
X86306645Y-106069857D01*
X86376580Y-106057625D01*
X86442026Y-106085144D01*
X86469875Y-106116994D01*
X86529987Y-106215088D01*
X86676250Y-106383938D01*
X86848126Y-106526632D01*
X87041000Y-106639338D01*
X87249692Y-106719030D01*
X87254760Y-106720061D01*
X87254763Y-106720062D01*
X87349862Y-106739410D01*
X87468597Y-106763567D01*
X87473772Y-106763757D01*
X87473774Y-106763757D01*
X87686673Y-106771564D01*
X87686677Y-106771564D01*
X87691837Y-106771753D01*
X87696957Y-106771097D01*
X87696959Y-106771097D01*
X87908288Y-106744025D01*
X87908289Y-106744025D01*
X87913416Y-106743368D01*
X87918366Y-106741883D01*
X88122429Y-106680661D01*
X88122434Y-106680659D01*
X88127384Y-106679174D01*
X88327994Y-106580896D01*
X88509860Y-106451173D01*
X88668096Y-106293489D01*
X88798453Y-106112077D01*
X88799640Y-106112930D01*
X88846960Y-106069362D01*
X88916897Y-106057145D01*
X88982338Y-106084678D01*
X89010166Y-106116511D01*
X89067694Y-106210388D01*
X89073777Y-106218699D01*
X89213213Y-106379667D01*
X89220580Y-106386883D01*
X89384434Y-106522916D01*
X89392881Y-106528831D01*
X89576756Y-106636279D01*
X89586042Y-106640729D01*
X89785001Y-106716703D01*
X89794899Y-106719579D01*
X89898250Y-106740606D01*
X89912299Y-106739410D01*
X89916000Y-106729065D01*
X89916000Y-106728517D01*
X90424000Y-106728517D01*
X90428064Y-106742359D01*
X90441478Y-106744393D01*
X90448184Y-106743534D01*
X90458262Y-106741392D01*
X90662255Y-106680191D01*
X90671842Y-106676433D01*
X90863095Y-106582739D01*
X90871945Y-106577464D01*
X91045328Y-106453792D01*
X91053200Y-106447139D01*
X91204052Y-106296812D01*
X91210730Y-106288965D01*
X91338022Y-106111819D01*
X91339279Y-106112722D01*
X91386373Y-106069362D01*
X91456311Y-106057145D01*
X91521751Y-106084678D01*
X91549579Y-106116511D01*
X91609987Y-106215088D01*
X91756250Y-106383938D01*
X91928126Y-106526632D01*
X92121000Y-106639338D01*
X92329692Y-106719030D01*
X92334760Y-106720061D01*
X92334763Y-106720062D01*
X92429862Y-106739410D01*
X92548597Y-106763567D01*
X92553772Y-106763757D01*
X92553774Y-106763757D01*
X92766673Y-106771564D01*
X92766677Y-106771564D01*
X92771837Y-106771753D01*
X92776957Y-106771097D01*
X92776959Y-106771097D01*
X92988288Y-106744025D01*
X92988289Y-106744025D01*
X92993416Y-106743368D01*
X92998366Y-106741883D01*
X93202429Y-106680661D01*
X93202434Y-106680659D01*
X93207384Y-106679174D01*
X93407994Y-106580896D01*
X93589860Y-106451173D01*
X93748096Y-106293489D01*
X93878453Y-106112077D01*
X93891995Y-106084678D01*
X93975136Y-105916453D01*
X93975137Y-105916451D01*
X93977430Y-105911811D01*
X94042370Y-105698069D01*
X94071529Y-105476590D01*
X94071611Y-105473240D01*
X94073074Y-105413365D01*
X94073074Y-105413361D01*
X94073156Y-105410000D01*
X94054852Y-105187361D01*
X94000431Y-104970702D01*
X93911354Y-104765840D01*
X93825144Y-104632579D01*
X93792822Y-104582617D01*
X93792820Y-104582614D01*
X93790014Y-104578277D01*
X93639670Y-104413051D01*
X93635619Y-104409852D01*
X93635615Y-104409848D01*
X93468414Y-104277800D01*
X93468410Y-104277798D01*
X93464359Y-104274598D01*
X93428028Y-104254542D01*
X93412136Y-104245769D01*
X93268789Y-104166638D01*
X93263920Y-104164914D01*
X93263916Y-104164912D01*
X93063087Y-104093795D01*
X93063083Y-104093794D01*
X93058212Y-104092069D01*
X93053119Y-104091162D01*
X93053116Y-104091161D01*
X92843373Y-104053800D01*
X92843367Y-104053799D01*
X92838284Y-104052894D01*
X92764452Y-104051992D01*
X92620081Y-104050228D01*
X92620079Y-104050228D01*
X92614911Y-104050165D01*
X92394091Y-104083955D01*
X92181756Y-104153357D01*
X91983607Y-104256507D01*
X91979474Y-104259610D01*
X91979471Y-104259612D01*
X91809100Y-104387530D01*
X91804965Y-104390635D01*
X91794431Y-104401658D01*
X91693729Y-104507037D01*
X91650629Y-104552138D01*
X91543204Y-104709618D01*
X91542898Y-104710066D01*
X91487987Y-104755069D01*
X91417462Y-104763240D01*
X91353715Y-104731986D01*
X91333018Y-104707502D01*
X91252426Y-104582926D01*
X91246136Y-104574757D01*
X91102806Y-104417240D01*
X91095273Y-104410215D01*
X90928139Y-104278222D01*
X90919552Y-104272517D01*
X90733117Y-104169599D01*
X90723705Y-104165369D01*
X90522959Y-104094280D01*
X90512988Y-104091646D01*
X90441837Y-104078972D01*
X90428540Y-104080432D01*
X90424000Y-104094989D01*
X90424000Y-106728517D01*
X89916000Y-106728517D01*
X89916000Y-104093102D01*
X89912082Y-104079758D01*
X89897806Y-104077771D01*
X89859324Y-104083660D01*
X89849288Y-104086051D01*
X89646868Y-104152212D01*
X89637359Y-104156209D01*
X89448463Y-104254542D01*
X89439738Y-104260036D01*
X89269433Y-104387905D01*
X89261726Y-104394748D01*
X89114590Y-104548717D01*
X89108109Y-104556722D01*
X89003498Y-104710074D01*
X88948587Y-104755076D01*
X88878062Y-104763247D01*
X88814315Y-104731993D01*
X88793618Y-104707509D01*
X88712822Y-104582617D01*
X88712820Y-104582614D01*
X88710014Y-104578277D01*
X88559670Y-104413051D01*
X88555619Y-104409852D01*
X88555615Y-104409848D01*
X88388414Y-104277800D01*
X88388410Y-104277798D01*
X88384359Y-104274598D01*
X88348028Y-104254542D01*
X88332136Y-104245769D01*
X88188789Y-104166638D01*
X88183920Y-104164914D01*
X88183916Y-104164912D01*
X87983087Y-104093795D01*
X87983083Y-104093794D01*
X87978212Y-104092069D01*
X87973119Y-104091162D01*
X87973116Y-104091161D01*
X87763373Y-104053800D01*
X87763367Y-104053799D01*
X87758284Y-104052894D01*
X87684452Y-104051992D01*
X87540081Y-104050228D01*
X87540079Y-104050228D01*
X87534911Y-104050165D01*
X87314091Y-104083955D01*
X87101756Y-104153357D01*
X86903607Y-104256507D01*
X86899474Y-104259610D01*
X86899471Y-104259612D01*
X86729100Y-104387530D01*
X86724965Y-104390635D01*
X86714431Y-104401658D01*
X86613729Y-104507037D01*
X86570629Y-104552138D01*
X86463201Y-104709621D01*
X86408293Y-104754621D01*
X86337768Y-104762792D01*
X86274021Y-104731538D01*
X86253324Y-104707054D01*
X86172822Y-104582617D01*
X86172820Y-104582614D01*
X86170014Y-104578277D01*
X86019670Y-104413051D01*
X86015619Y-104409852D01*
X86015615Y-104409848D01*
X85848414Y-104277800D01*
X85848410Y-104277798D01*
X85844359Y-104274598D01*
X85808028Y-104254542D01*
X85792136Y-104245769D01*
X85648789Y-104166638D01*
X85643920Y-104164914D01*
X85643916Y-104164912D01*
X85443087Y-104093795D01*
X85443083Y-104093794D01*
X85438212Y-104092069D01*
X85433119Y-104091162D01*
X85433116Y-104091161D01*
X85223373Y-104053800D01*
X85223367Y-104053799D01*
X85218284Y-104052894D01*
X85144452Y-104051992D01*
X85000081Y-104050228D01*
X85000079Y-104050228D01*
X84994911Y-104050165D01*
X84774091Y-104083955D01*
X84561756Y-104153357D01*
X84363607Y-104256507D01*
X84359474Y-104259610D01*
X84359471Y-104259612D01*
X84189100Y-104387530D01*
X84184965Y-104390635D01*
X84174431Y-104401658D01*
X84073729Y-104507037D01*
X84030629Y-104552138D01*
X83923201Y-104709621D01*
X83868293Y-104754621D01*
X83797768Y-104762792D01*
X83734021Y-104731538D01*
X83713324Y-104707054D01*
X83632822Y-104582617D01*
X83632820Y-104582614D01*
X83630014Y-104578277D01*
X83479670Y-104413051D01*
X83475619Y-104409852D01*
X83475615Y-104409848D01*
X83308414Y-104277800D01*
X83308410Y-104277798D01*
X83304359Y-104274598D01*
X83268028Y-104254542D01*
X83252136Y-104245769D01*
X83108789Y-104166638D01*
X83103920Y-104164914D01*
X83103916Y-104164912D01*
X82903087Y-104093795D01*
X82903083Y-104093794D01*
X82898212Y-104092069D01*
X82893119Y-104091162D01*
X82893116Y-104091161D01*
X82683373Y-104053800D01*
X82683367Y-104053799D01*
X82678284Y-104052894D01*
X82604452Y-104051992D01*
X82460081Y-104050228D01*
X82460079Y-104050228D01*
X82454911Y-104050165D01*
X82234091Y-104083955D01*
X82021756Y-104153357D01*
X81823607Y-104256507D01*
X81819474Y-104259610D01*
X81819471Y-104259612D01*
X81649100Y-104387530D01*
X81644965Y-104390635D01*
X81634431Y-104401658D01*
X81533729Y-104507037D01*
X81490629Y-104552138D01*
X81383204Y-104709618D01*
X81382898Y-104710066D01*
X81327987Y-104755069D01*
X81257462Y-104763240D01*
X81193715Y-104731986D01*
X81173018Y-104707502D01*
X81092426Y-104582926D01*
X81086136Y-104574757D01*
X80942806Y-104417240D01*
X80935273Y-104410215D01*
X80768139Y-104278222D01*
X80759552Y-104272517D01*
X80573117Y-104169599D01*
X80563705Y-104165369D01*
X80362959Y-104094280D01*
X80352988Y-104091646D01*
X80281837Y-104078972D01*
X80268540Y-104080432D01*
X80264000Y-104094989D01*
X80264000Y-106728517D01*
X79756000Y-106728517D01*
X79756000Y-104093102D01*
X79752082Y-104079758D01*
X79737806Y-104077771D01*
X79699324Y-104083660D01*
X79689288Y-104086051D01*
X79486868Y-104152212D01*
X79477359Y-104156209D01*
X79288463Y-104254542D01*
X79279738Y-104260036D01*
X79109433Y-104387905D01*
X79101726Y-104394748D01*
X78954590Y-104548717D01*
X78948109Y-104556722D01*
X78843498Y-104710074D01*
X78788587Y-104755076D01*
X78718062Y-104763247D01*
X78654315Y-104731993D01*
X78633618Y-104707509D01*
X78552822Y-104582617D01*
X78552820Y-104582614D01*
X78550014Y-104578277D01*
X78399670Y-104413051D01*
X78395619Y-104409852D01*
X78395615Y-104409848D01*
X78228414Y-104277800D01*
X78228410Y-104277798D01*
X78224359Y-104274598D01*
X78188028Y-104254542D01*
X78172136Y-104245769D01*
X78028789Y-104166638D01*
X78023920Y-104164914D01*
X78023916Y-104164912D01*
X77823087Y-104093795D01*
X77823083Y-104093794D01*
X77818212Y-104092069D01*
X77813119Y-104091162D01*
X77813116Y-104091161D01*
X77603373Y-104053800D01*
X77603367Y-104053799D01*
X77598284Y-104052894D01*
X77524452Y-104051992D01*
X77380081Y-104050228D01*
X77380079Y-104050228D01*
X77374911Y-104050165D01*
X77154091Y-104083955D01*
X76941756Y-104153357D01*
X76743607Y-104256507D01*
X76739474Y-104259610D01*
X76739471Y-104259612D01*
X76569100Y-104387530D01*
X76564965Y-104390635D01*
X76554431Y-104401658D01*
X76453729Y-104507037D01*
X76410629Y-104552138D01*
X76303201Y-104709621D01*
X76248293Y-104754621D01*
X76177768Y-104762792D01*
X76114021Y-104731538D01*
X76093324Y-104707054D01*
X76012822Y-104582617D01*
X76012820Y-104582614D01*
X76010014Y-104578277D01*
X75859670Y-104413051D01*
X75855619Y-104409852D01*
X75855615Y-104409848D01*
X75688414Y-104277800D01*
X75688410Y-104277798D01*
X75684359Y-104274598D01*
X75648028Y-104254542D01*
X75632136Y-104245769D01*
X75488789Y-104166638D01*
X75483920Y-104164914D01*
X75483916Y-104164912D01*
X75283087Y-104093795D01*
X75283083Y-104093794D01*
X75278212Y-104092069D01*
X75273119Y-104091162D01*
X75273116Y-104091161D01*
X75063373Y-104053800D01*
X75063367Y-104053799D01*
X75058284Y-104052894D01*
X74984452Y-104051992D01*
X74840081Y-104050228D01*
X74840079Y-104050228D01*
X74834911Y-104050165D01*
X74614091Y-104083955D01*
X74401756Y-104153357D01*
X74203607Y-104256507D01*
X74199474Y-104259610D01*
X74199471Y-104259612D01*
X74029100Y-104387530D01*
X74024965Y-104390635D01*
X74014431Y-104401658D01*
X73913729Y-104507037D01*
X73870629Y-104552138D01*
X73763201Y-104709621D01*
X73708293Y-104754621D01*
X73637768Y-104762792D01*
X73574021Y-104731538D01*
X73553324Y-104707054D01*
X73472822Y-104582617D01*
X73472820Y-104582614D01*
X73470014Y-104578277D01*
X73319670Y-104413051D01*
X73315619Y-104409852D01*
X73315615Y-104409848D01*
X73148414Y-104277800D01*
X73148410Y-104277798D01*
X73144359Y-104274598D01*
X73108028Y-104254542D01*
X73092136Y-104245769D01*
X72948789Y-104166638D01*
X72943920Y-104164914D01*
X72943916Y-104164912D01*
X72743087Y-104093795D01*
X72743083Y-104093794D01*
X72738212Y-104092069D01*
X72733119Y-104091162D01*
X72733116Y-104091161D01*
X72523373Y-104053800D01*
X72523367Y-104053799D01*
X72518284Y-104052894D01*
X72444452Y-104051992D01*
X72300081Y-104050228D01*
X72300079Y-104050228D01*
X72294911Y-104050165D01*
X72074091Y-104083955D01*
X71861756Y-104153357D01*
X71663607Y-104256507D01*
X71659474Y-104259610D01*
X71659471Y-104259612D01*
X71489100Y-104387530D01*
X71484965Y-104390635D01*
X71474431Y-104401658D01*
X71373729Y-104507037D01*
X71330629Y-104552138D01*
X71223201Y-104709621D01*
X71168293Y-104754621D01*
X71097768Y-104762792D01*
X71034021Y-104731538D01*
X71013324Y-104707054D01*
X70932822Y-104582617D01*
X70932820Y-104582614D01*
X70930014Y-104578277D01*
X70779670Y-104413051D01*
X70775619Y-104409852D01*
X70775615Y-104409848D01*
X70608414Y-104277800D01*
X70608410Y-104277798D01*
X70604359Y-104274598D01*
X70568028Y-104254542D01*
X70552136Y-104245769D01*
X70408789Y-104166638D01*
X70403920Y-104164914D01*
X70403916Y-104164912D01*
X70203087Y-104093795D01*
X70203083Y-104093794D01*
X70198212Y-104092069D01*
X70193119Y-104091162D01*
X70193116Y-104091161D01*
X69983373Y-104053800D01*
X69983367Y-104053799D01*
X69978284Y-104052894D01*
X69904452Y-104051992D01*
X69760081Y-104050228D01*
X69760079Y-104050228D01*
X69754911Y-104050165D01*
X69534091Y-104083955D01*
X69321756Y-104153357D01*
X69123607Y-104256507D01*
X69119474Y-104259610D01*
X69119471Y-104259612D01*
X68949100Y-104387530D01*
X68944965Y-104390635D01*
X68934431Y-104401658D01*
X68833729Y-104507037D01*
X68790629Y-104552138D01*
X68683201Y-104709621D01*
X68628293Y-104754621D01*
X68557768Y-104762792D01*
X68494021Y-104731538D01*
X68473324Y-104707054D01*
X68392822Y-104582617D01*
X68392820Y-104582614D01*
X68390014Y-104578277D01*
X68239670Y-104413051D01*
X68235619Y-104409852D01*
X68235615Y-104409848D01*
X68068414Y-104277800D01*
X68068410Y-104277798D01*
X68064359Y-104274598D01*
X68028028Y-104254542D01*
X68012136Y-104245769D01*
X67868789Y-104166638D01*
X67863920Y-104164914D01*
X67863916Y-104164912D01*
X67663087Y-104093795D01*
X67663083Y-104093794D01*
X67658212Y-104092069D01*
X67653119Y-104091162D01*
X67653116Y-104091161D01*
X67443373Y-104053800D01*
X67443367Y-104053799D01*
X67438284Y-104052894D01*
X67364452Y-104051992D01*
X67220081Y-104050228D01*
X67220079Y-104050228D01*
X67214911Y-104050165D01*
X66994091Y-104083955D01*
X66781756Y-104153357D01*
X66583607Y-104256507D01*
X66579474Y-104259610D01*
X66579471Y-104259612D01*
X66409100Y-104387530D01*
X66404965Y-104390635D01*
X66394431Y-104401658D01*
X66293729Y-104507037D01*
X66250629Y-104552138D01*
X66143201Y-104709621D01*
X66088293Y-104754621D01*
X66017768Y-104762792D01*
X65954021Y-104731538D01*
X65933324Y-104707054D01*
X65852822Y-104582617D01*
X65852820Y-104582614D01*
X65850014Y-104578277D01*
X65699670Y-104413051D01*
X65695619Y-104409852D01*
X65695615Y-104409848D01*
X65528414Y-104277800D01*
X65528410Y-104277798D01*
X65524359Y-104274598D01*
X65488028Y-104254542D01*
X65472136Y-104245769D01*
X65328789Y-104166638D01*
X65323920Y-104164914D01*
X65323916Y-104164912D01*
X65123087Y-104093795D01*
X65123083Y-104093794D01*
X65118212Y-104092069D01*
X65113119Y-104091162D01*
X65113116Y-104091161D01*
X64903373Y-104053800D01*
X64903367Y-104053799D01*
X64898284Y-104052894D01*
X64824452Y-104051992D01*
X64680081Y-104050228D01*
X64680079Y-104050228D01*
X64674911Y-104050165D01*
X64454091Y-104083955D01*
X64241756Y-104153357D01*
X64043607Y-104256507D01*
X64039474Y-104259610D01*
X64039471Y-104259612D01*
X63869100Y-104387530D01*
X63864965Y-104390635D01*
X63854431Y-104401658D01*
X63753729Y-104507037D01*
X63710629Y-104552138D01*
X63603201Y-104709621D01*
X63548293Y-104754621D01*
X63477768Y-104762792D01*
X63414021Y-104731538D01*
X63393324Y-104707054D01*
X63312822Y-104582617D01*
X63312820Y-104582614D01*
X63310014Y-104578277D01*
X63159670Y-104413051D01*
X63155619Y-104409852D01*
X63155615Y-104409848D01*
X62988414Y-104277800D01*
X62988410Y-104277798D01*
X62984359Y-104274598D01*
X62948028Y-104254542D01*
X62932136Y-104245769D01*
X62788789Y-104166638D01*
X62783920Y-104164914D01*
X62783916Y-104164912D01*
X62583087Y-104093795D01*
X62583083Y-104093794D01*
X62578212Y-104092069D01*
X62573119Y-104091162D01*
X62573116Y-104091161D01*
X62363373Y-104053800D01*
X62363367Y-104053799D01*
X62358284Y-104052894D01*
X62284452Y-104051992D01*
X62140081Y-104050228D01*
X62140079Y-104050228D01*
X62134911Y-104050165D01*
X61914091Y-104083955D01*
X61701756Y-104153357D01*
X61503607Y-104256507D01*
X61499474Y-104259610D01*
X61499471Y-104259612D01*
X61329100Y-104387530D01*
X61324965Y-104390635D01*
X61314431Y-104401658D01*
X61213729Y-104507037D01*
X61170629Y-104552138D01*
X61063201Y-104709621D01*
X61008293Y-104754621D01*
X60937768Y-104762792D01*
X60874021Y-104731538D01*
X60853324Y-104707054D01*
X60772822Y-104582617D01*
X60772820Y-104582614D01*
X60770014Y-104578277D01*
X60619670Y-104413051D01*
X60615619Y-104409852D01*
X60615615Y-104409848D01*
X60448414Y-104277800D01*
X60448410Y-104277798D01*
X60444359Y-104274598D01*
X60408028Y-104254542D01*
X60392136Y-104245769D01*
X60248789Y-104166638D01*
X60243920Y-104164914D01*
X60243916Y-104164912D01*
X60043087Y-104093795D01*
X60043083Y-104093794D01*
X60038212Y-104092069D01*
X60033119Y-104091162D01*
X60033116Y-104091161D01*
X59823373Y-104053800D01*
X59823367Y-104053799D01*
X59818284Y-104052894D01*
X59744452Y-104051992D01*
X59600081Y-104050228D01*
X59600079Y-104050228D01*
X59594911Y-104050165D01*
X59374091Y-104083955D01*
X59161756Y-104153357D01*
X58963607Y-104256507D01*
X58959474Y-104259610D01*
X58959471Y-104259612D01*
X58789100Y-104387530D01*
X58784965Y-104390635D01*
X58708810Y-104470327D01*
X58704283Y-104475064D01*
X58642759Y-104510494D01*
X58571846Y-104507037D01*
X58514060Y-104465791D01*
X58495207Y-104432243D01*
X58453767Y-104321703D01*
X58450615Y-104313295D01*
X58363261Y-104196739D01*
X58246705Y-104109385D01*
X58110316Y-104058255D01*
X58048134Y-104051500D01*
X56251866Y-104051500D01*
X56189684Y-104058255D01*
X56053295Y-104109385D01*
X55936739Y-104196739D01*
X55849385Y-104313295D01*
X55798255Y-104449684D01*
X55791500Y-104511866D01*
X55791500Y-106308134D01*
X44957986Y-106308134D01*
X44958037Y-106218699D01*
X44958470Y-105463356D01*
X44960216Y-105442524D01*
X44962769Y-105427347D01*
X44963576Y-105422552D01*
X44963729Y-105410000D01*
X44961996Y-105397897D01*
X44960991Y-105371831D01*
X44973362Y-105182342D01*
X44975205Y-105154098D01*
X44977339Y-105137824D01*
X44977555Y-105136738D01*
X45025573Y-104894338D01*
X45029805Y-104878479D01*
X45109284Y-104643326D01*
X45115542Y-104628150D01*
X45224915Y-104405331D01*
X45233093Y-104391097D01*
X45289591Y-104306109D01*
X45370507Y-104184388D01*
X45380466Y-104171338D01*
X45543590Y-103984243D01*
X45555161Y-103972599D01*
X45741220Y-103808304D01*
X45754206Y-103798263D01*
X45816856Y-103756044D01*
X45960059Y-103659540D01*
X45974229Y-103651281D01*
X46196364Y-103540500D01*
X46211483Y-103534154D01*
X46446150Y-103453188D01*
X46461963Y-103448862D01*
X46705159Y-103399092D01*
X46721419Y-103396856D01*
X46935676Y-103381514D01*
X46958010Y-103382371D01*
X46962082Y-103382395D01*
X46970960Y-103383720D01*
X46979854Y-103382500D01*
X46979855Y-103382500D01*
X47000493Y-103379669D01*
X47017616Y-103378500D01*
X104122633Y-103378500D01*
X104142018Y-103380000D01*
G37*
%TD.AperFunction*%
M02*
