%TF.GenerationSoftware,KiCad,Pcbnew,(6.0.4-0)*%
%TF.CreationDate,2022-04-04T21:56:53+02:00*%
%TF.ProjectId,smart-button,736d6172-742d-4627-9574-746f6e2e6b69,rev?*%
%TF.SameCoordinates,Original*%
%TF.FileFunction,Soldermask,Bot*%
%TF.FilePolarity,Negative*%
%FSLAX46Y46*%
G04 Gerber Fmt 4.6, Leading zero omitted, Abs format (unit mm)*
G04 Created by KiCad (PCBNEW (6.0.4-0)) date 2022-04-04 21:56:53*
%MOMM*%
%LPD*%
G01*
G04 APERTURE LIST*
%ADD10R,1.700000X1.700000*%
%ADD11O,1.700000X1.700000*%
%ADD12C,4.000000*%
%ADD13C,1.700000*%
%ADD14C,2.200000*%
G04 APERTURE END LIST*
D10*
X57150000Y-105410000D03*
D11*
X59690000Y-105410000D03*
X62230000Y-105410000D03*
X64770000Y-105410000D03*
X67310000Y-105410000D03*
X69850000Y-105410000D03*
X72390000Y-105410000D03*
X74930000Y-105410000D03*
X77470000Y-105410000D03*
X80010000Y-105410000D03*
X82550000Y-105410000D03*
X85090000Y-105410000D03*
X87630000Y-105410000D03*
X90170000Y-105410000D03*
X92710000Y-105410000D03*
D12*
X55626000Y-119326000D03*
D13*
X50546000Y-119326000D03*
X60706000Y-119326000D03*
D14*
X58166000Y-114246000D03*
X51816000Y-116786000D03*
D13*
X100330000Y-119326000D03*
D12*
X95250000Y-119326000D03*
D13*
X90170000Y-119326000D03*
D14*
X97790000Y-114246000D03*
X91440000Y-116786000D03*
D13*
X57155000Y-133350000D03*
D11*
X59695000Y-133350000D03*
X62235000Y-133350000D03*
X64775000Y-133350000D03*
X67315000Y-133350000D03*
X69855000Y-133350000D03*
X72395000Y-133350000D03*
X74935000Y-133350000D03*
X77475000Y-133350000D03*
X80015000Y-133350000D03*
X82555000Y-133350000D03*
X85095000Y-133350000D03*
X87635000Y-133350000D03*
X90175000Y-133350000D03*
X92715000Y-133350000D03*
D13*
X70358000Y-119326000D03*
X80518000Y-119326000D03*
D12*
X75438000Y-119326000D03*
D14*
X77978000Y-114246000D03*
X71628000Y-116786000D03*
M02*
